<?xml version="1.0" encoding="utf-8" standalone="no"?>
<!DOCTYPE svg PUBLIC "-//W3C//DTD SVG 1.1//EN"
  "http://www.w3.org/Graphics/SVG/1.1/DTD/svg11.dtd">
<svg xmlns:xlink="http://www.w3.org/1999/xlink" width="1008.77275pt" height="423.941157pt" viewBox="0 0 1008.77275 423.941157" xmlns="http://www.w3.org/2000/svg" version="1.1">
 <metadata>
  <rdf:RDF xmlns:dc="http://purl.org/dc/elements/1.1/" xmlns:cc="http://creativecommons.org/ns#" xmlns:rdf="http://www.w3.org/1999/02/22-rdf-syntax-ns#">
   <cc:Work>
    <dc:type rdf:resource="http://purl.org/dc/dcmitype/StillImage"/>
    <dc:date>2024-02-01T00:34:47.894149</dc:date>
    <dc:format>image/svg+xml</dc:format>
    <dc:creator>
     <cc:Agent>
      <dc:title>Matplotlib v3.6.2, https://matplotlib.org/</dc:title>
     </cc:Agent>
    </dc:creator>
   </cc:Work>
  </rdf:RDF>
 </metadata>
 <defs>
  <style type="text/css">*{stroke-linejoin: round; stroke-linecap: butt}</style>
 </defs>
 <g id="figure_1">
  <g id="patch_1">
   <path d="M 0 423.941157 
L 1008.77275 423.941157 
L 1008.77275 0 
L 0 0 
z
" style="fill: #ffffff"/>
  </g>
  <g id="axes_1">
   <g id="patch_2">
    <path d="M 43.78125 295.26938 
L 880.99125 295.26938 
L 880.99125 7.2 
L 43.78125 7.2 
z
" style="fill: #ffffff"/>
   </g>
   <g id="patch_3">
    <path d="M 81.83625 295.26938 
L 116.431705 295.26938 
L 116.431705 44.273843 
L 81.83625 44.273843 
z
" clip-path="url(#pc979f86cbf)" style="fill: #597dbf"/>
   </g>
   <g id="patch_4">
    <path d="M 168.324886 295.26938 
L 202.920341 295.26938 
L 202.920341 31.204747 
L 168.324886 31.204747 
z
" clip-path="url(#pc979f86cbf)" style="fill: #597dbf"/>
   </g>
   <g id="patch_5">
    <path d="M 254.813523 295.26938 
L 289.408977 295.26938 
L 289.408977 38.667642 
L 254.813523 38.667642 
z
" clip-path="url(#pc979f86cbf)" style="fill: #597dbf"/>
   </g>
   <g id="patch_6">
    <path d="M 341.302159 295.26938 
L 375.897614 295.26938 
L 375.897614 43.891126 
L 341.302159 43.891126 
z
" clip-path="url(#pc979f86cbf)" style="fill: #597dbf"/>
   </g>
   <g id="patch_7">
    <path d="M 427.790795 295.26938 
L 462.38625 295.26938 
L 462.38625 34.817586 
L 427.790795 34.817586 
z
" clip-path="url(#pc979f86cbf)" style="fill: #597dbf"/>
   </g>
   <g id="patch_8">
    <path d="M 514.279432 295.26938 
L 548.874886 295.26938 
L 548.874886 35.223484 
L 514.279432 35.223484 
z
" clip-path="url(#pc979f86cbf)" style="fill: #597dbf"/>
   </g>
   <g id="patch_9">
    <path d="M 600.768068 295.26938 
L 635.363523 295.26938 
L 635.363523 29.608022 
L 600.768068 29.608022 
z
" clip-path="url(#pc979f86cbf)" style="fill: #597dbf"/>
   </g>
   <g id="patch_10">
    <path d="M 687.256705 295.26938 
L 721.852159 295.26938 
L 721.852159 45.484462 
L 687.256705 45.484462 
z
" clip-path="url(#pc979f86cbf)" style="fill: #597dbf"/>
   </g>
   <g id="patch_11">
    <path d="M 773.745341 295.26938 
L 808.340795 295.26938 
L 808.340795 33.443946 
L 773.745341 33.443946 
z
" clip-path="url(#pc979f86cbf)" style="fill: #597dbf"/>
   </g>
   <g id="patch_12">
    <path d="M 116.431705 295.26938 
L 151.027159 295.26938 
L 151.027159 45.759662 
L 116.431705 45.759662 
z
" clip-path="url(#pc979f86cbf)" style="fill: #8ec1d6"/>
   </g>
   <g id="patch_13">
    <path d="M 202.920341 295.26938 
L 237.515795 295.26938 
L 237.515795 32.235188 
L 202.920341 32.235188 
z
" clip-path="url(#pc979f86cbf)" style="fill: #8ec1d6"/>
   </g>
   <g id="patch_14">
    <path d="M 289.408977 295.26938 
L 324.004432 295.26938 
L 324.004432 44.775251 
L 289.408977 44.775251 
z
" clip-path="url(#pc979f86cbf)" style="fill: #8ec1d6"/>
   </g>
   <g id="patch_15">
    <path d="M 375.897614 295.26938 
L 410.493068 295.26938 
L 410.493068 49.993698 
L 375.897614 49.993698 
z
" clip-path="url(#pc979f86cbf)" style="fill: #8ec1d6"/>
   </g>
   <g id="patch_16">
    <path d="M 462.38625 295.26938 
L 496.981705 295.26938 
L 496.981705 38.030297 
L 462.38625 38.030297 
z
" clip-path="url(#pc979f86cbf)" style="fill: #8ec1d6"/>
   </g>
   <g id="patch_17">
    <path d="M 548.874886 295.26938 
L 583.470341 295.26938 
L 583.470341 37.50854 
L 548.874886 37.50854 
z
" clip-path="url(#pc979f86cbf)" style="fill: #8ec1d6"/>
   </g>
   <g id="patch_18">
    <path d="M 635.363523 295.26938 
L 669.958977 295.26938 
L 669.958977 36.452905 
L 635.363523 36.452905 
z
" clip-path="url(#pc979f86cbf)" style="fill: #8ec1d6"/>
   </g>
   <g id="patch_19">
    <path d="M 721.852159 295.26938 
L 756.447614 295.26938 
L 756.447614 53.888458 
L 721.852159 53.888458 
z
" clip-path="url(#pc979f86cbf)" style="fill: #8ec1d6"/>
   </g>
   <g id="patch_20">
    <path d="M 808.340795 295.26938 
L 842.93625 295.26938 
L 842.93625 35.052094 
L 808.340795 35.052094 
z
" clip-path="url(#pc979f86cbf)" style="fill: #8ec1d6"/>
   </g>
   <g id="PathCollection_1">
    <defs>
     <path id="mf30cf2532f" d="M -5 5 
L 5 -5 
M -5 -5 
L 5 5 
" style="stroke: #001c7f; stroke-width: 1.5"/>
    </defs>
    <g clip-path="url(#pc979f86cbf)">
     <use xlink:href="#mf30cf2532f" x="99.133977" y="126.469475" style="fill: #001c7f; stroke: #001c7f; stroke-width: 1.5"/>
     <use xlink:href="#mf30cf2532f" x="185.622614" y="157.944297" style="fill: #001c7f; stroke: #001c7f; stroke-width: 1.5"/>
     <use xlink:href="#mf30cf2532f" x="272.11125" y="177.032669" style="fill: #001c7f; stroke: #001c7f; stroke-width: 1.5"/>
     <use xlink:href="#mf30cf2532f" x="358.599886" y="129.679883" style="fill: #001c7f; stroke: #001c7f; stroke-width: 1.5"/>
     <use xlink:href="#mf30cf2532f" x="445.088523" y="131.887743" style="fill: #001c7f; stroke: #001c7f; stroke-width: 1.5"/>
     <use xlink:href="#mf30cf2532f" x="531.577159" y="132.87197" style="fill: #001c7f; stroke: #001c7f; stroke-width: 1.5"/>
     <use xlink:href="#mf30cf2532f" x="618.065795" y="142.099095" style="fill: #001c7f; stroke: #001c7f; stroke-width: 1.5"/>
     <use xlink:href="#mf30cf2532f" x="704.554432" y="142.099095" style="fill: #001c7f; stroke: #001c7f; stroke-width: 1.5"/>
     <use xlink:href="#mf30cf2532f" x="791.043068" y="113.120934" style="fill: #001c7f; stroke: #001c7f; stroke-width: 1.5"/>
    </g>
   </g>
   <g id="PathCollection_2">
    <defs>
     <path id="m3a05d1208c" d="M -5 5 
L 5 -5 
M -5 -5 
L 5 5 
" style="stroke: #006374; stroke-width: 1.5"/>
    </defs>
    <g clip-path="url(#pc979f86cbf)">
     <use xlink:href="#m3a05d1208c" x="133.729432" y="89.643519" style="fill: #006374; stroke: #006374; stroke-width: 1.5"/>
     <use xlink:href="#m3a05d1208c" x="220.218068" y="180.06438" style="fill: #006374; stroke: #006374; stroke-width: 1.5"/>
     <use xlink:href="#m3a05d1208c" x="306.706705" y="105.734927" style="fill: #006374; stroke: #006374; stroke-width: 1.5"/>
     <use xlink:href="#m3a05d1208c" x="393.195341" y="169.591198" style="fill: #006374; stroke: #006374; stroke-width: 1.5"/>
     <use xlink:href="#m3a05d1208c" x="479.683977" y="134.037502" style="fill: #006374; stroke: #006374; stroke-width: 1.5"/>
     <use xlink:href="#m3a05d1208c" x="566.172614" y="147.040072" style="fill: #006374; stroke: #006374; stroke-width: 1.5"/>
     <use xlink:href="#m3a05d1208c" x="652.66125" y="108.423359" style="fill: #006374; stroke: #006374; stroke-width: 1.5"/>
     <use xlink:href="#m3a05d1208c" x="739.149886" y="75.024526" style="fill: #006374; stroke: #006374; stroke-width: 1.5"/>
     <use xlink:href="#m3a05d1208c" x="825.638523" y="122.222036" style="fill: #006374; stroke: #006374; stroke-width: 1.5"/>
    </g>
   </g>
   <g id="matplotlib.axis_1">
    <g id="xtick_1">
     <g id="line2d_1">
      <defs>
       <path id="m77f1f90313" d="M 0 0 
L 0 3.5 
" style="stroke: #000000; stroke-width: 0.8"/>
      </defs>
      <g>
       <use xlink:href="#m77f1f90313" x="116.431705" y="295.26938" style="stroke: #000000; stroke-width: 0.8"/>
      </g>
     </g>
     <g id="text_1">
      <!-- AdaBoostClassifier -->
      <g transform="translate(85.495783 373.416476) rotate(-45) scale(0.1 -0.1)">
       <defs>
        <path id="DejaVuSans-41" d="M 2188 4044 
L 1331 1722 
L 3047 1722 
L 2188 4044 
z
M 1831 4666 
L 2547 4666 
L 4325 0 
L 3669 0 
L 3244 1197 
L 1141 1197 
L 716 0 
L 50 0 
L 1831 4666 
z
" transform="scale(0.015625)"/>
        <path id="DejaVuSans-64" d="M 2906 2969 
L 2906 4863 
L 3481 4863 
L 3481 0 
L 2906 0 
L 2906 525 
Q 2725 213 2448 61 
Q 2172 -91 1784 -91 
Q 1150 -91 751 415 
Q 353 922 353 1747 
Q 353 2572 751 3078 
Q 1150 3584 1784 3584 
Q 2172 3584 2448 3432 
Q 2725 3281 2906 2969 
z
M 947 1747 
Q 947 1113 1208 752 
Q 1469 391 1925 391 
Q 2381 391 2643 752 
Q 2906 1113 2906 1747 
Q 2906 2381 2643 2742 
Q 2381 3103 1925 3103 
Q 1469 3103 1208 2742 
Q 947 2381 947 1747 
z
" transform="scale(0.015625)"/>
        <path id="DejaVuSans-61" d="M 2194 1759 
Q 1497 1759 1228 1600 
Q 959 1441 959 1056 
Q 959 750 1161 570 
Q 1363 391 1709 391 
Q 2188 391 2477 730 
Q 2766 1069 2766 1631 
L 2766 1759 
L 2194 1759 
z
M 3341 1997 
L 3341 0 
L 2766 0 
L 2766 531 
Q 2569 213 2275 61 
Q 1981 -91 1556 -91 
Q 1019 -91 701 211 
Q 384 513 384 1019 
Q 384 1609 779 1909 
Q 1175 2209 1959 2209 
L 2766 2209 
L 2766 2266 
Q 2766 2663 2505 2880 
Q 2244 3097 1772 3097 
Q 1472 3097 1187 3025 
Q 903 2953 641 2809 
L 641 3341 
Q 956 3463 1253 3523 
Q 1550 3584 1831 3584 
Q 2591 3584 2966 3190 
Q 3341 2797 3341 1997 
z
" transform="scale(0.015625)"/>
        <path id="DejaVuSans-42" d="M 1259 2228 
L 1259 519 
L 2272 519 
Q 2781 519 3026 730 
Q 3272 941 3272 1375 
Q 3272 1813 3026 2020 
Q 2781 2228 2272 2228 
L 1259 2228 
z
M 1259 4147 
L 1259 2741 
L 2194 2741 
Q 2656 2741 2882 2914 
Q 3109 3088 3109 3444 
Q 3109 3797 2882 3972 
Q 2656 4147 2194 4147 
L 1259 4147 
z
M 628 4666 
L 2241 4666 
Q 2963 4666 3353 4366 
Q 3744 4066 3744 3513 
Q 3744 3084 3544 2831 
Q 3344 2578 2956 2516 
Q 3422 2416 3680 2098 
Q 3938 1781 3938 1306 
Q 3938 681 3513 340 
Q 3088 0 2303 0 
L 628 0 
L 628 4666 
z
" transform="scale(0.015625)"/>
        <path id="DejaVuSans-6f" d="M 1959 3097 
Q 1497 3097 1228 2736 
Q 959 2375 959 1747 
Q 959 1119 1226 758 
Q 1494 397 1959 397 
Q 2419 397 2687 759 
Q 2956 1122 2956 1747 
Q 2956 2369 2687 2733 
Q 2419 3097 1959 3097 
z
M 1959 3584 
Q 2709 3584 3137 3096 
Q 3566 2609 3566 1747 
Q 3566 888 3137 398 
Q 2709 -91 1959 -91 
Q 1206 -91 779 398 
Q 353 888 353 1747 
Q 353 2609 779 3096 
Q 1206 3584 1959 3584 
z
" transform="scale(0.015625)"/>
        <path id="DejaVuSans-73" d="M 2834 3397 
L 2834 2853 
Q 2591 2978 2328 3040 
Q 2066 3103 1784 3103 
Q 1356 3103 1142 2972 
Q 928 2841 928 2578 
Q 928 2378 1081 2264 
Q 1234 2150 1697 2047 
L 1894 2003 
Q 2506 1872 2764 1633 
Q 3022 1394 3022 966 
Q 3022 478 2636 193 
Q 2250 -91 1575 -91 
Q 1294 -91 989 -36 
Q 684 19 347 128 
L 347 722 
Q 666 556 975 473 
Q 1284 391 1588 391 
Q 1994 391 2212 530 
Q 2431 669 2431 922 
Q 2431 1156 2273 1281 
Q 2116 1406 1581 1522 
L 1381 1569 
Q 847 1681 609 1914 
Q 372 2147 372 2553 
Q 372 3047 722 3315 
Q 1072 3584 1716 3584 
Q 2034 3584 2315 3537 
Q 2597 3491 2834 3397 
z
" transform="scale(0.015625)"/>
        <path id="DejaVuSans-74" d="M 1172 4494 
L 1172 3500 
L 2356 3500 
L 2356 3053 
L 1172 3053 
L 1172 1153 
Q 1172 725 1289 603 
Q 1406 481 1766 481 
L 2356 481 
L 2356 0 
L 1766 0 
Q 1100 0 847 248 
Q 594 497 594 1153 
L 594 3053 
L 172 3053 
L 172 3500 
L 594 3500 
L 594 4494 
L 1172 4494 
z
" transform="scale(0.015625)"/>
        <path id="DejaVuSans-43" d="M 4122 4306 
L 4122 3641 
Q 3803 3938 3442 4084 
Q 3081 4231 2675 4231 
Q 1875 4231 1450 3742 
Q 1025 3253 1025 2328 
Q 1025 1406 1450 917 
Q 1875 428 2675 428 
Q 3081 428 3442 575 
Q 3803 722 4122 1019 
L 4122 359 
Q 3791 134 3420 21 
Q 3050 -91 2638 -91 
Q 1578 -91 968 557 
Q 359 1206 359 2328 
Q 359 3453 968 4101 
Q 1578 4750 2638 4750 
Q 3056 4750 3426 4639 
Q 3797 4528 4122 4306 
z
" transform="scale(0.015625)"/>
        <path id="DejaVuSans-6c" d="M 603 4863 
L 1178 4863 
L 1178 0 
L 603 0 
L 603 4863 
z
" transform="scale(0.015625)"/>
        <path id="DejaVuSans-69" d="M 603 3500 
L 1178 3500 
L 1178 0 
L 603 0 
L 603 3500 
z
M 603 4863 
L 1178 4863 
L 1178 4134 
L 603 4134 
L 603 4863 
z
" transform="scale(0.015625)"/>
        <path id="DejaVuSans-66" d="M 2375 4863 
L 2375 4384 
L 1825 4384 
Q 1516 4384 1395 4259 
Q 1275 4134 1275 3809 
L 1275 3500 
L 2222 3500 
L 2222 3053 
L 1275 3053 
L 1275 0 
L 697 0 
L 697 3053 
L 147 3053 
L 147 3500 
L 697 3500 
L 697 3744 
Q 697 4328 969 4595 
Q 1241 4863 1831 4863 
L 2375 4863 
z
" transform="scale(0.015625)"/>
        <path id="DejaVuSans-65" d="M 3597 1894 
L 3597 1613 
L 953 1613 
Q 991 1019 1311 708 
Q 1631 397 2203 397 
Q 2534 397 2845 478 
Q 3156 559 3463 722 
L 3463 178 
Q 3153 47 2828 -22 
Q 2503 -91 2169 -91 
Q 1331 -91 842 396 
Q 353 884 353 1716 
Q 353 2575 817 3079 
Q 1281 3584 2069 3584 
Q 2775 3584 3186 3129 
Q 3597 2675 3597 1894 
z
M 3022 2063 
Q 3016 2534 2758 2815 
Q 2500 3097 2075 3097 
Q 1594 3097 1305 2825 
Q 1016 2553 972 2059 
L 3022 2063 
z
" transform="scale(0.015625)"/>
        <path id="DejaVuSans-72" d="M 2631 2963 
Q 2534 3019 2420 3045 
Q 2306 3072 2169 3072 
Q 1681 3072 1420 2755 
Q 1159 2438 1159 1844 
L 1159 0 
L 581 0 
L 581 3500 
L 1159 3500 
L 1159 2956 
Q 1341 3275 1631 3429 
Q 1922 3584 2338 3584 
Q 2397 3584 2469 3576 
Q 2541 3569 2628 3553 
L 2631 2963 
z
" transform="scale(0.015625)"/>
       </defs>
       <use xlink:href="#DejaVuSans-41"/>
       <use xlink:href="#DejaVuSans-64" x="66.658203"/>
       <use xlink:href="#DejaVuSans-61" x="130.134766"/>
       <use xlink:href="#DejaVuSans-42" x="191.414062"/>
       <use xlink:href="#DejaVuSans-6f" x="260.017578"/>
       <use xlink:href="#DejaVuSans-6f" x="321.199219"/>
       <use xlink:href="#DejaVuSans-73" x="382.380859"/>
       <use xlink:href="#DejaVuSans-74" x="434.480469"/>
       <use xlink:href="#DejaVuSans-43" x="473.689453"/>
       <use xlink:href="#DejaVuSans-6c" x="543.513672"/>
       <use xlink:href="#DejaVuSans-61" x="571.296875"/>
       <use xlink:href="#DejaVuSans-73" x="632.576172"/>
       <use xlink:href="#DejaVuSans-73" x="684.675781"/>
       <use xlink:href="#DejaVuSans-69" x="736.775391"/>
       <use xlink:href="#DejaVuSans-66" x="764.558594"/>
       <use xlink:href="#DejaVuSans-69" x="799.763672"/>
       <use xlink:href="#DejaVuSans-65" x="827.546875"/>
       <use xlink:href="#DejaVuSans-72" x="889.070312"/>
      </g>
     </g>
    </g>
    <g id="xtick_2">
     <g id="line2d_2">
      <g>
       <use xlink:href="#m77f1f90313" x="202.920341" y="295.26938" style="stroke: #000000; stroke-width: 0.8"/>
      </g>
     </g>
     <g id="text_2">
      <!-- ExtraTreesClassifier -->
      <g transform="translate(170.195108 376.995099) rotate(-45) scale(0.1 -0.1)">
       <defs>
        <path id="DejaVuSans-45" d="M 628 4666 
L 3578 4666 
L 3578 4134 
L 1259 4134 
L 1259 2753 
L 3481 2753 
L 3481 2222 
L 1259 2222 
L 1259 531 
L 3634 531 
L 3634 0 
L 628 0 
L 628 4666 
z
" transform="scale(0.015625)"/>
        <path id="DejaVuSans-78" d="M 3513 3500 
L 2247 1797 
L 3578 0 
L 2900 0 
L 1881 1375 
L 863 0 
L 184 0 
L 1544 1831 
L 300 3500 
L 978 3500 
L 1906 2253 
L 2834 3500 
L 3513 3500 
z
" transform="scale(0.015625)"/>
        <path id="DejaVuSans-54" d="M -19 4666 
L 3928 4666 
L 3928 4134 
L 2272 4134 
L 2272 0 
L 1638 0 
L 1638 4134 
L -19 4134 
L -19 4666 
z
" transform="scale(0.015625)"/>
       </defs>
       <use xlink:href="#DejaVuSans-45"/>
       <use xlink:href="#DejaVuSans-78" x="63.183594"/>
       <use xlink:href="#DejaVuSans-74" x="122.363281"/>
       <use xlink:href="#DejaVuSans-72" x="161.572266"/>
       <use xlink:href="#DejaVuSans-61" x="202.685547"/>
       <use xlink:href="#DejaVuSans-54" x="263.964844"/>
       <use xlink:href="#DejaVuSans-72" x="310.298828"/>
       <use xlink:href="#DejaVuSans-65" x="349.162109"/>
       <use xlink:href="#DejaVuSans-65" x="410.685547"/>
       <use xlink:href="#DejaVuSans-73" x="472.208984"/>
       <use xlink:href="#DejaVuSans-43" x="524.308594"/>
       <use xlink:href="#DejaVuSans-6c" x="594.132812"/>
       <use xlink:href="#DejaVuSans-61" x="621.916016"/>
       <use xlink:href="#DejaVuSans-73" x="683.195312"/>
       <use xlink:href="#DejaVuSans-73" x="735.294922"/>
       <use xlink:href="#DejaVuSans-69" x="787.394531"/>
       <use xlink:href="#DejaVuSans-66" x="815.177734"/>
       <use xlink:href="#DejaVuSans-69" x="850.382812"/>
       <use xlink:href="#DejaVuSans-65" x="878.166016"/>
       <use xlink:href="#DejaVuSans-72" x="939.689453"/>
      </g>
     </g>
    </g>
    <g id="xtick_3">
     <g id="line2d_3">
      <g>
       <use xlink:href="#m77f1f90313" x="289.408977" y="295.26938" style="stroke: #000000; stroke-width: 0.8"/>
      </g>
     </g>
     <g id="text_3">
      <!-- GaussianNB -->
      <g transform="translate(270.069607 350.223373) rotate(-45) scale(0.1 -0.1)">
       <defs>
        <path id="DejaVuSans-47" d="M 3809 666 
L 3809 1919 
L 2778 1919 
L 2778 2438 
L 4434 2438 
L 4434 434 
Q 4069 175 3628 42 
Q 3188 -91 2688 -91 
Q 1594 -91 976 548 
Q 359 1188 359 2328 
Q 359 3472 976 4111 
Q 1594 4750 2688 4750 
Q 3144 4750 3555 4637 
Q 3966 4525 4313 4306 
L 4313 3634 
Q 3963 3931 3569 4081 
Q 3175 4231 2741 4231 
Q 1884 4231 1454 3753 
Q 1025 3275 1025 2328 
Q 1025 1384 1454 906 
Q 1884 428 2741 428 
Q 3075 428 3337 486 
Q 3600 544 3809 666 
z
" transform="scale(0.015625)"/>
        <path id="DejaVuSans-75" d="M 544 1381 
L 544 3500 
L 1119 3500 
L 1119 1403 
Q 1119 906 1312 657 
Q 1506 409 1894 409 
Q 2359 409 2629 706 
Q 2900 1003 2900 1516 
L 2900 3500 
L 3475 3500 
L 3475 0 
L 2900 0 
L 2900 538 
Q 2691 219 2414 64 
Q 2138 -91 1772 -91 
Q 1169 -91 856 284 
Q 544 659 544 1381 
z
M 1991 3584 
L 1991 3584 
z
" transform="scale(0.015625)"/>
        <path id="DejaVuSans-6e" d="M 3513 2113 
L 3513 0 
L 2938 0 
L 2938 2094 
Q 2938 2591 2744 2837 
Q 2550 3084 2163 3084 
Q 1697 3084 1428 2787 
Q 1159 2491 1159 1978 
L 1159 0 
L 581 0 
L 581 3500 
L 1159 3500 
L 1159 2956 
Q 1366 3272 1645 3428 
Q 1925 3584 2291 3584 
Q 2894 3584 3203 3211 
Q 3513 2838 3513 2113 
z
" transform="scale(0.015625)"/>
        <path id="DejaVuSans-4e" d="M 628 4666 
L 1478 4666 
L 3547 763 
L 3547 4666 
L 4159 4666 
L 4159 0 
L 3309 0 
L 1241 3903 
L 1241 0 
L 628 0 
L 628 4666 
z
" transform="scale(0.015625)"/>
       </defs>
       <use xlink:href="#DejaVuSans-47"/>
       <use xlink:href="#DejaVuSans-61" x="77.490234"/>
       <use xlink:href="#DejaVuSans-75" x="138.769531"/>
       <use xlink:href="#DejaVuSans-73" x="202.148438"/>
       <use xlink:href="#DejaVuSans-73" x="254.248047"/>
       <use xlink:href="#DejaVuSans-69" x="306.347656"/>
       <use xlink:href="#DejaVuSans-61" x="334.130859"/>
       <use xlink:href="#DejaVuSans-6e" x="395.410156"/>
       <use xlink:href="#DejaVuSans-4e" x="458.789062"/>
       <use xlink:href="#DejaVuSans-42" x="533.59375"/>
      </g>
     </g>
    </g>
    <g id="xtick_4">
     <g id="line2d_4">
      <g>
       <use xlink:href="#m77f1f90313" x="375.897614" y="295.26938" style="stroke: #000000; stroke-width: 0.8"/>
      </g>
     </g>
     <g id="text_4">
      <!-- GradientBoostingClassifier -->
      <g transform="translate(330.873694 401.592471) rotate(-45) scale(0.1 -0.1)">
       <defs>
        <path id="DejaVuSans-67" d="M 2906 1791 
Q 2906 2416 2648 2759 
Q 2391 3103 1925 3103 
Q 1463 3103 1205 2759 
Q 947 2416 947 1791 
Q 947 1169 1205 825 
Q 1463 481 1925 481 
Q 2391 481 2648 825 
Q 2906 1169 2906 1791 
z
M 3481 434 
Q 3481 -459 3084 -895 
Q 2688 -1331 1869 -1331 
Q 1566 -1331 1297 -1286 
Q 1028 -1241 775 -1147 
L 775 -588 
Q 1028 -725 1275 -790 
Q 1522 -856 1778 -856 
Q 2344 -856 2625 -561 
Q 2906 -266 2906 331 
L 2906 616 
Q 2728 306 2450 153 
Q 2172 0 1784 0 
Q 1141 0 747 490 
Q 353 981 353 1791 
Q 353 2603 747 3093 
Q 1141 3584 1784 3584 
Q 2172 3584 2450 3431 
Q 2728 3278 2906 2969 
L 2906 3500 
L 3481 3500 
L 3481 434 
z
" transform="scale(0.015625)"/>
       </defs>
       <use xlink:href="#DejaVuSans-47"/>
       <use xlink:href="#DejaVuSans-72" x="77.490234"/>
       <use xlink:href="#DejaVuSans-61" x="118.603516"/>
       <use xlink:href="#DejaVuSans-64" x="179.882812"/>
       <use xlink:href="#DejaVuSans-69" x="243.359375"/>
       <use xlink:href="#DejaVuSans-65" x="271.142578"/>
       <use xlink:href="#DejaVuSans-6e" x="332.666016"/>
       <use xlink:href="#DejaVuSans-74" x="396.044922"/>
       <use xlink:href="#DejaVuSans-42" x="435.253906"/>
       <use xlink:href="#DejaVuSans-6f" x="503.857422"/>
       <use xlink:href="#DejaVuSans-6f" x="565.039062"/>
       <use xlink:href="#DejaVuSans-73" x="626.220703"/>
       <use xlink:href="#DejaVuSans-74" x="678.320312"/>
       <use xlink:href="#DejaVuSans-69" x="717.529297"/>
       <use xlink:href="#DejaVuSans-6e" x="745.3125"/>
       <use xlink:href="#DejaVuSans-67" x="808.691406"/>
       <use xlink:href="#DejaVuSans-43" x="872.167969"/>
       <use xlink:href="#DejaVuSans-6c" x="941.992188"/>
       <use xlink:href="#DejaVuSans-61" x="969.775391"/>
       <use xlink:href="#DejaVuSans-73" x="1031.054688"/>
       <use xlink:href="#DejaVuSans-73" x="1083.154297"/>
       <use xlink:href="#DejaVuSans-69" x="1135.253906"/>
       <use xlink:href="#DejaVuSans-66" x="1163.037109"/>
       <use xlink:href="#DejaVuSans-69" x="1198.242188"/>
       <use xlink:href="#DejaVuSans-65" x="1226.025391"/>
       <use xlink:href="#DejaVuSans-72" x="1287.548828"/>
      </g>
     </g>
    </g>
    <g id="xtick_5">
     <g id="line2d_5">
      <g>
       <use xlink:href="#m77f1f90313" x="462.38625" y="295.26938" style="stroke: #000000; stroke-width: 0.8"/>
      </g>
     </g>
     <g id="text_5">
      <!-- KNeighborsClassifier -->
      <g transform="translate(427.88883 380.539472) rotate(-45) scale(0.1 -0.1)">
       <defs>
        <path id="DejaVuSans-4b" d="M 628 4666 
L 1259 4666 
L 1259 2694 
L 3353 4666 
L 4166 4666 
L 1850 2491 
L 4331 0 
L 3500 0 
L 1259 2247 
L 1259 0 
L 628 0 
L 628 4666 
z
" transform="scale(0.015625)"/>
        <path id="DejaVuSans-68" d="M 3513 2113 
L 3513 0 
L 2938 0 
L 2938 2094 
Q 2938 2591 2744 2837 
Q 2550 3084 2163 3084 
Q 1697 3084 1428 2787 
Q 1159 2491 1159 1978 
L 1159 0 
L 581 0 
L 581 4863 
L 1159 4863 
L 1159 2956 
Q 1366 3272 1645 3428 
Q 1925 3584 2291 3584 
Q 2894 3584 3203 3211 
Q 3513 2838 3513 2113 
z
" transform="scale(0.015625)"/>
        <path id="DejaVuSans-62" d="M 3116 1747 
Q 3116 2381 2855 2742 
Q 2594 3103 2138 3103 
Q 1681 3103 1420 2742 
Q 1159 2381 1159 1747 
Q 1159 1113 1420 752 
Q 1681 391 2138 391 
Q 2594 391 2855 752 
Q 3116 1113 3116 1747 
z
M 1159 2969 
Q 1341 3281 1617 3432 
Q 1894 3584 2278 3584 
Q 2916 3584 3314 3078 
Q 3713 2572 3713 1747 
Q 3713 922 3314 415 
Q 2916 -91 2278 -91 
Q 1894 -91 1617 61 
Q 1341 213 1159 525 
L 1159 0 
L 581 0 
L 581 4863 
L 1159 4863 
L 1159 2969 
z
" transform="scale(0.015625)"/>
       </defs>
       <use xlink:href="#DejaVuSans-4b"/>
       <use xlink:href="#DejaVuSans-4e" x="65.576172"/>
       <use xlink:href="#DejaVuSans-65" x="140.380859"/>
       <use xlink:href="#DejaVuSans-69" x="201.904297"/>
       <use xlink:href="#DejaVuSans-67" x="229.6875"/>
       <use xlink:href="#DejaVuSans-68" x="293.164062"/>
       <use xlink:href="#DejaVuSans-62" x="356.542969"/>
       <use xlink:href="#DejaVuSans-6f" x="420.019531"/>
       <use xlink:href="#DejaVuSans-72" x="481.201172"/>
       <use xlink:href="#DejaVuSans-73" x="522.314453"/>
       <use xlink:href="#DejaVuSans-43" x="574.414062"/>
       <use xlink:href="#DejaVuSans-6c" x="644.238281"/>
       <use xlink:href="#DejaVuSans-61" x="672.021484"/>
       <use xlink:href="#DejaVuSans-73" x="733.300781"/>
       <use xlink:href="#DejaVuSans-73" x="785.400391"/>
       <use xlink:href="#DejaVuSans-69" x="837.5"/>
       <use xlink:href="#DejaVuSans-66" x="865.283203"/>
       <use xlink:href="#DejaVuSans-69" x="900.488281"/>
       <use xlink:href="#DejaVuSans-65" x="928.271484"/>
       <use xlink:href="#DejaVuSans-72" x="989.794922"/>
      </g>
     </g>
    </g>
    <g id="xtick_6">
     <g id="line2d_6">
      <g>
       <use xlink:href="#m77f1f90313" x="548.874886" y="295.26938" style="stroke: #000000; stroke-width: 0.8"/>
      </g>
     </g>
     <g id="text_6">
      <!-- MLPClassifier -->
      <g transform="translate(527.534625 354.225156) rotate(-45) scale(0.1 -0.1)">
       <defs>
        <path id="DejaVuSans-4d" d="M 628 4666 
L 1569 4666 
L 2759 1491 
L 3956 4666 
L 4897 4666 
L 4897 0 
L 4281 0 
L 4281 4097 
L 3078 897 
L 2444 897 
L 1241 4097 
L 1241 0 
L 628 0 
L 628 4666 
z
" transform="scale(0.015625)"/>
        <path id="DejaVuSans-4c" d="M 628 4666 
L 1259 4666 
L 1259 531 
L 3531 531 
L 3531 0 
L 628 0 
L 628 4666 
z
" transform="scale(0.015625)"/>
        <path id="DejaVuSans-50" d="M 1259 4147 
L 1259 2394 
L 2053 2394 
Q 2494 2394 2734 2622 
Q 2975 2850 2975 3272 
Q 2975 3691 2734 3919 
Q 2494 4147 2053 4147 
L 1259 4147 
z
M 628 4666 
L 2053 4666 
Q 2838 4666 3239 4311 
Q 3641 3956 3641 3272 
Q 3641 2581 3239 2228 
Q 2838 1875 2053 1875 
L 1259 1875 
L 1259 0 
L 628 0 
L 628 4666 
z
" transform="scale(0.015625)"/>
       </defs>
       <use xlink:href="#DejaVuSans-4d"/>
       <use xlink:href="#DejaVuSans-4c" x="86.279297"/>
       <use xlink:href="#DejaVuSans-50" x="141.992188"/>
       <use xlink:href="#DejaVuSans-43" x="202.294922"/>
       <use xlink:href="#DejaVuSans-6c" x="272.119141"/>
       <use xlink:href="#DejaVuSans-61" x="299.902344"/>
       <use xlink:href="#DejaVuSans-73" x="361.181641"/>
       <use xlink:href="#DejaVuSans-73" x="413.28125"/>
       <use xlink:href="#DejaVuSans-69" x="465.380859"/>
       <use xlink:href="#DejaVuSans-66" x="493.164062"/>
       <use xlink:href="#DejaVuSans-69" x="528.369141"/>
       <use xlink:href="#DejaVuSans-65" x="556.152344"/>
       <use xlink:href="#DejaVuSans-72" x="617.675781"/>
      </g>
     </g>
    </g>
    <g id="xtick_7">
     <g id="line2d_7">
      <g>
       <use xlink:href="#m77f1f90313" x="635.363523" y="295.26938" style="stroke: #000000; stroke-width: 0.8"/>
      </g>
     </g>
     <g id="text_7">
      <!-- RandomForestClassifier -->
      <g transform="translate(595.693727 390.884223) rotate(-45) scale(0.1 -0.1)">
       <defs>
        <path id="DejaVuSans-52" d="M 2841 2188 
Q 3044 2119 3236 1894 
Q 3428 1669 3622 1275 
L 4263 0 
L 3584 0 
L 2988 1197 
Q 2756 1666 2539 1819 
Q 2322 1972 1947 1972 
L 1259 1972 
L 1259 0 
L 628 0 
L 628 4666 
L 2053 4666 
Q 2853 4666 3247 4331 
Q 3641 3997 3641 3322 
Q 3641 2881 3436 2590 
Q 3231 2300 2841 2188 
z
M 1259 4147 
L 1259 2491 
L 2053 2491 
Q 2509 2491 2742 2702 
Q 2975 2913 2975 3322 
Q 2975 3731 2742 3939 
Q 2509 4147 2053 4147 
L 1259 4147 
z
" transform="scale(0.015625)"/>
        <path id="DejaVuSans-6d" d="M 3328 2828 
Q 3544 3216 3844 3400 
Q 4144 3584 4550 3584 
Q 5097 3584 5394 3201 
Q 5691 2819 5691 2113 
L 5691 0 
L 5113 0 
L 5113 2094 
Q 5113 2597 4934 2840 
Q 4756 3084 4391 3084 
Q 3944 3084 3684 2787 
Q 3425 2491 3425 1978 
L 3425 0 
L 2847 0 
L 2847 2094 
Q 2847 2600 2669 2842 
Q 2491 3084 2119 3084 
Q 1678 3084 1418 2786 
Q 1159 2488 1159 1978 
L 1159 0 
L 581 0 
L 581 3500 
L 1159 3500 
L 1159 2956 
Q 1356 3278 1631 3431 
Q 1906 3584 2284 3584 
Q 2666 3584 2933 3390 
Q 3200 3197 3328 2828 
z
" transform="scale(0.015625)"/>
        <path id="DejaVuSans-46" d="M 628 4666 
L 3309 4666 
L 3309 4134 
L 1259 4134 
L 1259 2759 
L 3109 2759 
L 3109 2228 
L 1259 2228 
L 1259 0 
L 628 0 
L 628 4666 
z
" transform="scale(0.015625)"/>
       </defs>
       <use xlink:href="#DejaVuSans-52"/>
       <use xlink:href="#DejaVuSans-61" x="67.232422"/>
       <use xlink:href="#DejaVuSans-6e" x="128.511719"/>
       <use xlink:href="#DejaVuSans-64" x="191.890625"/>
       <use xlink:href="#DejaVuSans-6f" x="255.367188"/>
       <use xlink:href="#DejaVuSans-6d" x="316.548828"/>
       <use xlink:href="#DejaVuSans-46" x="413.960938"/>
       <use xlink:href="#DejaVuSans-6f" x="467.855469"/>
       <use xlink:href="#DejaVuSans-72" x="529.037109"/>
       <use xlink:href="#DejaVuSans-65" x="567.900391"/>
       <use xlink:href="#DejaVuSans-73" x="629.423828"/>
       <use xlink:href="#DejaVuSans-74" x="681.523438"/>
       <use xlink:href="#DejaVuSans-43" x="720.732422"/>
       <use xlink:href="#DejaVuSans-6c" x="790.556641"/>
       <use xlink:href="#DejaVuSans-61" x="818.339844"/>
       <use xlink:href="#DejaVuSans-73" x="879.619141"/>
       <use xlink:href="#DejaVuSans-73" x="931.71875"/>
       <use xlink:href="#DejaVuSans-69" x="983.818359"/>
       <use xlink:href="#DejaVuSans-66" x="1011.601562"/>
       <use xlink:href="#DejaVuSans-69" x="1046.806641"/>
       <use xlink:href="#DejaVuSans-65" x="1074.589844"/>
       <use xlink:href="#DejaVuSans-72" x="1136.113281"/>
      </g>
     </g>
    </g>
    <g id="xtick_8">
     <g id="line2d_8">
      <g>
       <use xlink:href="#m77f1f90313" x="721.852159" y="295.26938" style="stroke: #000000; stroke-width: 0.8"/>
      </g>
     </g>
     <g id="text_8">
      <!-- SVC -->
      <g transform="translate(716.671497 321.905956) rotate(-45) scale(0.1 -0.1)">
       <defs>
        <path id="DejaVuSans-53" d="M 3425 4513 
L 3425 3897 
Q 3066 4069 2747 4153 
Q 2428 4238 2131 4238 
Q 1616 4238 1336 4038 
Q 1056 3838 1056 3469 
Q 1056 3159 1242 3001 
Q 1428 2844 1947 2747 
L 2328 2669 
Q 3034 2534 3370 2195 
Q 3706 1856 3706 1288 
Q 3706 609 3251 259 
Q 2797 -91 1919 -91 
Q 1588 -91 1214 -16 
Q 841 59 441 206 
L 441 856 
Q 825 641 1194 531 
Q 1563 422 1919 422 
Q 2459 422 2753 634 
Q 3047 847 3047 1241 
Q 3047 1584 2836 1778 
Q 2625 1972 2144 2069 
L 1759 2144 
Q 1053 2284 737 2584 
Q 422 2884 422 3419 
Q 422 4038 858 4394 
Q 1294 4750 2059 4750 
Q 2388 4750 2728 4690 
Q 3069 4631 3425 4513 
z
" transform="scale(0.015625)"/>
        <path id="DejaVuSans-56" d="M 1831 0 
L 50 4666 
L 709 4666 
L 2188 738 
L 3669 4666 
L 4325 4666 
L 2547 0 
L 1831 0 
z
" transform="scale(0.015625)"/>
       </defs>
       <use xlink:href="#DejaVuSans-53"/>
       <use xlink:href="#DejaVuSans-56" x="63.476562"/>
       <use xlink:href="#DejaVuSans-43" x="131.884766"/>
      </g>
     </g>
    </g>
    <g id="xtick_9">
     <g id="line2d_9">
      <g>
       <use xlink:href="#m77f1f90313" x="808.340795" y="295.26938" style="stroke: #000000; stroke-width: 0.8"/>
      </g>
     </g>
     <g id="text_9">
      <!-- XGBClassifier -->
      <g transform="translate(786.627645 354.970932) rotate(-45) scale(0.1 -0.1)">
       <defs>
        <path id="DejaVuSans-58" d="M 403 4666 
L 1081 4666 
L 2241 2931 
L 3406 4666 
L 4084 4666 
L 2584 2425 
L 4184 0 
L 3506 0 
L 2194 1984 
L 872 0 
L 191 0 
L 1856 2491 
L 403 4666 
z
" transform="scale(0.015625)"/>
       </defs>
       <use xlink:href="#DejaVuSans-58"/>
       <use xlink:href="#DejaVuSans-47" x="68.505859"/>
       <use xlink:href="#DejaVuSans-42" x="145.996094"/>
       <use xlink:href="#DejaVuSans-43" x="212.849609"/>
       <use xlink:href="#DejaVuSans-6c" x="282.673828"/>
       <use xlink:href="#DejaVuSans-61" x="310.457031"/>
       <use xlink:href="#DejaVuSans-73" x="371.736328"/>
       <use xlink:href="#DejaVuSans-73" x="423.835938"/>
       <use xlink:href="#DejaVuSans-69" x="475.935547"/>
       <use xlink:href="#DejaVuSans-66" x="503.71875"/>
       <use xlink:href="#DejaVuSans-69" x="538.923828"/>
       <use xlink:href="#DejaVuSans-65" x="566.707031"/>
       <use xlink:href="#DejaVuSans-72" x="628.230469"/>
      </g>
     </g>
    </g>
    <g id="text_10">
     <!-- Model -->
     <g transform="translate(447.372969 414.66147) scale(0.1 -0.1)">
      <use xlink:href="#DejaVuSans-4d"/>
      <use xlink:href="#DejaVuSans-6f" x="86.279297"/>
      <use xlink:href="#DejaVuSans-64" x="147.460938"/>
      <use xlink:href="#DejaVuSans-65" x="210.9375"/>
      <use xlink:href="#DejaVuSans-6c" x="272.460938"/>
     </g>
    </g>
   </g>
   <g id="matplotlib.axis_2">
    <g id="ytick_1">
     <g id="line2d_10">
      <defs>
       <path id="m1a60b07101" d="M 0 0 
L -3.5 0 
" style="stroke: #000000; stroke-width: 0.8"/>
      </defs>
      <g>
       <use xlink:href="#m1a60b07101" x="43.78125" y="295.26938" style="stroke: #000000; stroke-width: 0.8"/>
      </g>
     </g>
     <g id="text_11">
      <!-- 0.0 -->
      <g transform="translate(20.878125 299.068599) scale(0.1 -0.1)">
       <defs>
        <path id="DejaVuSans-30" d="M 2034 4250 
Q 1547 4250 1301 3770 
Q 1056 3291 1056 2328 
Q 1056 1369 1301 889 
Q 1547 409 2034 409 
Q 2525 409 2770 889 
Q 3016 1369 3016 2328 
Q 3016 3291 2770 3770 
Q 2525 4250 2034 4250 
z
M 2034 4750 
Q 2819 4750 3233 4129 
Q 3647 3509 3647 2328 
Q 3647 1150 3233 529 
Q 2819 -91 2034 -91 
Q 1250 -91 836 529 
Q 422 1150 422 2328 
Q 422 3509 836 4129 
Q 1250 4750 2034 4750 
z
" transform="scale(0.015625)"/>
        <path id="DejaVuSans-2e" d="M 684 794 
L 1344 794 
L 1344 0 
L 684 0 
L 684 794 
z
" transform="scale(0.015625)"/>
       </defs>
       <use xlink:href="#DejaVuSans-30"/>
       <use xlink:href="#DejaVuSans-2e" x="63.623047"/>
       <use xlink:href="#DejaVuSans-30" x="95.410156"/>
      </g>
     </g>
    </g>
    <g id="ytick_2">
     <g id="line2d_11">
      <g>
       <use xlink:href="#m1a60b07101" x="43.78125" y="264.635323" style="stroke: #000000; stroke-width: 0.8"/>
      </g>
     </g>
     <g id="text_12">
      <!-- 0.1 -->
      <g transform="translate(20.878125 268.434542) scale(0.1 -0.1)">
       <defs>
        <path id="DejaVuSans-31" d="M 794 531 
L 1825 531 
L 1825 4091 
L 703 3866 
L 703 4441 
L 1819 4666 
L 2450 4666 
L 2450 531 
L 3481 531 
L 3481 0 
L 794 0 
L 794 531 
z
" transform="scale(0.015625)"/>
       </defs>
       <use xlink:href="#DejaVuSans-30"/>
       <use xlink:href="#DejaVuSans-2e" x="63.623047"/>
       <use xlink:href="#DejaVuSans-31" x="95.410156"/>
      </g>
     </g>
    </g>
    <g id="ytick_3">
     <g id="line2d_12">
      <g>
       <use xlink:href="#m1a60b07101" x="43.78125" y="234.001266" style="stroke: #000000; stroke-width: 0.8"/>
      </g>
     </g>
     <g id="text_13">
      <!-- 0.2 -->
      <g transform="translate(20.878125 237.800485) scale(0.1 -0.1)">
       <defs>
        <path id="DejaVuSans-32" d="M 1228 531 
L 3431 531 
L 3431 0 
L 469 0 
L 469 531 
Q 828 903 1448 1529 
Q 2069 2156 2228 2338 
Q 2531 2678 2651 2914 
Q 2772 3150 2772 3378 
Q 2772 3750 2511 3984 
Q 2250 4219 1831 4219 
Q 1534 4219 1204 4116 
Q 875 4013 500 3803 
L 500 4441 
Q 881 4594 1212 4672 
Q 1544 4750 1819 4750 
Q 2544 4750 2975 4387 
Q 3406 4025 3406 3419 
Q 3406 3131 3298 2873 
Q 3191 2616 2906 2266 
Q 2828 2175 2409 1742 
Q 1991 1309 1228 531 
z
" transform="scale(0.015625)"/>
       </defs>
       <use xlink:href="#DejaVuSans-30"/>
       <use xlink:href="#DejaVuSans-2e" x="63.623047"/>
       <use xlink:href="#DejaVuSans-32" x="95.410156"/>
      </g>
     </g>
    </g>
    <g id="ytick_4">
     <g id="line2d_13">
      <g>
       <use xlink:href="#m1a60b07101" x="43.78125" y="203.367209" style="stroke: #000000; stroke-width: 0.8"/>
      </g>
     </g>
     <g id="text_14">
      <!-- 0.3 -->
      <g transform="translate(20.878125 207.166428) scale(0.1 -0.1)">
       <defs>
        <path id="DejaVuSans-33" d="M 2597 2516 
Q 3050 2419 3304 2112 
Q 3559 1806 3559 1356 
Q 3559 666 3084 287 
Q 2609 -91 1734 -91 
Q 1441 -91 1130 -33 
Q 819 25 488 141 
L 488 750 
Q 750 597 1062 519 
Q 1375 441 1716 441 
Q 2309 441 2620 675 
Q 2931 909 2931 1356 
Q 2931 1769 2642 2001 
Q 2353 2234 1838 2234 
L 1294 2234 
L 1294 2753 
L 1863 2753 
Q 2328 2753 2575 2939 
Q 2822 3125 2822 3475 
Q 2822 3834 2567 4026 
Q 2313 4219 1838 4219 
Q 1578 4219 1281 4162 
Q 984 4106 628 3988 
L 628 4550 
Q 988 4650 1302 4700 
Q 1616 4750 1894 4750 
Q 2613 4750 3031 4423 
Q 3450 4097 3450 3541 
Q 3450 3153 3228 2886 
Q 3006 2619 2597 2516 
z
" transform="scale(0.015625)"/>
       </defs>
       <use xlink:href="#DejaVuSans-30"/>
       <use xlink:href="#DejaVuSans-2e" x="63.623047"/>
       <use xlink:href="#DejaVuSans-33" x="95.410156"/>
      </g>
     </g>
    </g>
    <g id="ytick_5">
     <g id="line2d_14">
      <g>
       <use xlink:href="#m1a60b07101" x="43.78125" y="172.733152" style="stroke: #000000; stroke-width: 0.8"/>
      </g>
     </g>
     <g id="text_15">
      <!-- 0.4 -->
      <g transform="translate(20.878125 176.532371) scale(0.1 -0.1)">
       <defs>
        <path id="DejaVuSans-34" d="M 2419 4116 
L 825 1625 
L 2419 1625 
L 2419 4116 
z
M 2253 4666 
L 3047 4666 
L 3047 1625 
L 3713 1625 
L 3713 1100 
L 3047 1100 
L 3047 0 
L 2419 0 
L 2419 1100 
L 313 1100 
L 313 1709 
L 2253 4666 
z
" transform="scale(0.015625)"/>
       </defs>
       <use xlink:href="#DejaVuSans-30"/>
       <use xlink:href="#DejaVuSans-2e" x="63.623047"/>
       <use xlink:href="#DejaVuSans-34" x="95.410156"/>
      </g>
     </g>
    </g>
    <g id="ytick_6">
     <g id="line2d_15">
      <g>
       <use xlink:href="#m1a60b07101" x="43.78125" y="142.099095" style="stroke: #000000; stroke-width: 0.8"/>
      </g>
     </g>
     <g id="text_16">
      <!-- 0.5 -->
      <g transform="translate(20.878125 145.898314) scale(0.1 -0.1)">
       <defs>
        <path id="DejaVuSans-35" d="M 691 4666 
L 3169 4666 
L 3169 4134 
L 1269 4134 
L 1269 2991 
Q 1406 3038 1543 3061 
Q 1681 3084 1819 3084 
Q 2600 3084 3056 2656 
Q 3513 2228 3513 1497 
Q 3513 744 3044 326 
Q 2575 -91 1722 -91 
Q 1428 -91 1123 -41 
Q 819 9 494 109 
L 494 744 
Q 775 591 1075 516 
Q 1375 441 1709 441 
Q 2250 441 2565 725 
Q 2881 1009 2881 1497 
Q 2881 1984 2565 2268 
Q 2250 2553 1709 2553 
Q 1456 2553 1204 2497 
Q 953 2441 691 2322 
L 691 4666 
z
" transform="scale(0.015625)"/>
       </defs>
       <use xlink:href="#DejaVuSans-30"/>
       <use xlink:href="#DejaVuSans-2e" x="63.623047"/>
       <use xlink:href="#DejaVuSans-35" x="95.410156"/>
      </g>
     </g>
    </g>
    <g id="ytick_7">
     <g id="line2d_16">
      <g>
       <use xlink:href="#m1a60b07101" x="43.78125" y="111.465039" style="stroke: #000000; stroke-width: 0.8"/>
      </g>
     </g>
     <g id="text_17">
      <!-- 0.6 -->
      <g transform="translate(20.878125 115.264257) scale(0.1 -0.1)">
       <defs>
        <path id="DejaVuSans-36" d="M 2113 2584 
Q 1688 2584 1439 2293 
Q 1191 2003 1191 1497 
Q 1191 994 1439 701 
Q 1688 409 2113 409 
Q 2538 409 2786 701 
Q 3034 994 3034 1497 
Q 3034 2003 2786 2293 
Q 2538 2584 2113 2584 
z
M 3366 4563 
L 3366 3988 
Q 3128 4100 2886 4159 
Q 2644 4219 2406 4219 
Q 1781 4219 1451 3797 
Q 1122 3375 1075 2522 
Q 1259 2794 1537 2939 
Q 1816 3084 2150 3084 
Q 2853 3084 3261 2657 
Q 3669 2231 3669 1497 
Q 3669 778 3244 343 
Q 2819 -91 2113 -91 
Q 1303 -91 875 529 
Q 447 1150 447 2328 
Q 447 3434 972 4092 
Q 1497 4750 2381 4750 
Q 2619 4750 2861 4703 
Q 3103 4656 3366 4563 
z
" transform="scale(0.015625)"/>
       </defs>
       <use xlink:href="#DejaVuSans-30"/>
       <use xlink:href="#DejaVuSans-2e" x="63.623047"/>
       <use xlink:href="#DejaVuSans-36" x="95.410156"/>
      </g>
     </g>
    </g>
    <g id="ytick_8">
     <g id="line2d_17">
      <g>
       <use xlink:href="#m1a60b07101" x="43.78125" y="80.830982" style="stroke: #000000; stroke-width: 0.8"/>
      </g>
     </g>
     <g id="text_18">
      <!-- 0.7 -->
      <g transform="translate(20.878125 84.6302) scale(0.1 -0.1)">
       <defs>
        <path id="DejaVuSans-37" d="M 525 4666 
L 3525 4666 
L 3525 4397 
L 1831 0 
L 1172 0 
L 2766 4134 
L 525 4134 
L 525 4666 
z
" transform="scale(0.015625)"/>
       </defs>
       <use xlink:href="#DejaVuSans-30"/>
       <use xlink:href="#DejaVuSans-2e" x="63.623047"/>
       <use xlink:href="#DejaVuSans-37" x="95.410156"/>
      </g>
     </g>
    </g>
    <g id="ytick_9">
     <g id="line2d_18">
      <g>
       <use xlink:href="#m1a60b07101" x="43.78125" y="50.196925" style="stroke: #000000; stroke-width: 0.8"/>
      </g>
     </g>
     <g id="text_19">
      <!-- 0.8 -->
      <g transform="translate(20.878125 53.996144) scale(0.1 -0.1)">
       <defs>
        <path id="DejaVuSans-38" d="M 2034 2216 
Q 1584 2216 1326 1975 
Q 1069 1734 1069 1313 
Q 1069 891 1326 650 
Q 1584 409 2034 409 
Q 2484 409 2743 651 
Q 3003 894 3003 1313 
Q 3003 1734 2745 1975 
Q 2488 2216 2034 2216 
z
M 1403 2484 
Q 997 2584 770 2862 
Q 544 3141 544 3541 
Q 544 4100 942 4425 
Q 1341 4750 2034 4750 
Q 2731 4750 3128 4425 
Q 3525 4100 3525 3541 
Q 3525 3141 3298 2862 
Q 3072 2584 2669 2484 
Q 3125 2378 3379 2068 
Q 3634 1759 3634 1313 
Q 3634 634 3220 271 
Q 2806 -91 2034 -91 
Q 1263 -91 848 271 
Q 434 634 434 1313 
Q 434 1759 690 2068 
Q 947 2378 1403 2484 
z
M 1172 3481 
Q 1172 3119 1398 2916 
Q 1625 2713 2034 2713 
Q 2441 2713 2670 2916 
Q 2900 3119 2900 3481 
Q 2900 3844 2670 4047 
Q 2441 4250 2034 4250 
Q 1625 4250 1398 4047 
Q 1172 3844 1172 3481 
z
" transform="scale(0.015625)"/>
       </defs>
       <use xlink:href="#DejaVuSans-30"/>
       <use xlink:href="#DejaVuSans-2e" x="63.623047"/>
       <use xlink:href="#DejaVuSans-38" x="95.410156"/>
      </g>
     </g>
    </g>
    <g id="ytick_10">
     <g id="line2d_19">
      <g>
       <use xlink:href="#m1a60b07101" x="43.78125" y="19.562868" style="stroke: #000000; stroke-width: 0.8"/>
      </g>
     </g>
     <g id="text_20">
      <!-- 0.9 -->
      <g transform="translate(20.878125 23.362087) scale(0.1 -0.1)">
       <defs>
        <path id="DejaVuSans-39" d="M 703 97 
L 703 672 
Q 941 559 1184 500 
Q 1428 441 1663 441 
Q 2288 441 2617 861 
Q 2947 1281 2994 2138 
Q 2813 1869 2534 1725 
Q 2256 1581 1919 1581 
Q 1219 1581 811 2004 
Q 403 2428 403 3163 
Q 403 3881 828 4315 
Q 1253 4750 1959 4750 
Q 2769 4750 3195 4129 
Q 3622 3509 3622 2328 
Q 3622 1225 3098 567 
Q 2575 -91 1691 -91 
Q 1453 -91 1209 -44 
Q 966 3 703 97 
z
M 1959 2075 
Q 2384 2075 2632 2365 
Q 2881 2656 2881 3163 
Q 2881 3666 2632 3958 
Q 2384 4250 1959 4250 
Q 1534 4250 1286 3958 
Q 1038 3666 1038 3163 
Q 1038 2656 1286 2365 
Q 1534 2075 1959 2075 
z
" transform="scale(0.015625)"/>
       </defs>
       <use xlink:href="#DejaVuSans-30"/>
       <use xlink:href="#DejaVuSans-2e" x="63.623047"/>
       <use xlink:href="#DejaVuSans-39" x="95.410156"/>
      </g>
     </g>
    </g>
    <g id="text_21">
     <!-- F1 -->
     <g transform="translate(14.798438 157.291721) rotate(-90) scale(0.1 -0.1)">
      <use xlink:href="#DejaVuSans-46"/>
      <use xlink:href="#DejaVuSans-31" x="57.519531"/>
     </g>
    </g>
   </g>
   <g id="line2d_20">
    <path d="M 99.133977 53.319322 
L 99.133977 37.694898 
" clip-path="url(#pc979f86cbf)" style="fill: none; stroke: #424242; stroke-width: 2.7; stroke-linecap: square"/>
   </g>
   <g id="line2d_21">
    <path d="M 94.809545 53.319322 
L 103.458409 53.319322 
" clip-path="url(#pc979f86cbf)" style="fill: none; stroke: #424242; stroke-width: 2.7; stroke-linecap: square"/>
   </g>
   <g id="line2d_22">
    <path d="M 94.809545 37.694898 
L 103.458409 37.694898 
" clip-path="url(#pc979f86cbf)" style="fill: none; stroke: #424242; stroke-width: 2.7; stroke-linecap: square"/>
   </g>
   <g id="line2d_23">
    <path d="M 185.622614 45.237831 
L 185.622614 22.112317 
" clip-path="url(#pc979f86cbf)" style="fill: none; stroke: #424242; stroke-width: 2.7; stroke-linecap: square"/>
   </g>
   <g id="line2d_24">
    <path d="M 181.298182 45.237831 
L 189.947045 45.237831 
" clip-path="url(#pc979f86cbf)" style="fill: none; stroke: #424242; stroke-width: 2.7; stroke-linecap: square"/>
   </g>
   <g id="line2d_25">
    <path d="M 181.298182 22.112317 
L 189.947045 22.112317 
" clip-path="url(#pc979f86cbf)" style="fill: none; stroke: #424242; stroke-width: 2.7; stroke-linecap: square"/>
   </g>
   <g id="line2d_26">
    <path d="M 272.11125 52.901357 
L 272.11125 28.570124 
" clip-path="url(#pc979f86cbf)" style="fill: none; stroke: #424242; stroke-width: 2.7; stroke-linecap: square"/>
   </g>
   <g id="line2d_27">
    <path d="M 267.786818 52.901357 
L 276.435682 52.901357 
" clip-path="url(#pc979f86cbf)" style="fill: none; stroke: #424242; stroke-width: 2.7; stroke-linecap: square"/>
   </g>
   <g id="line2d_28">
    <path d="M 267.786818 28.570124 
L 276.435682 28.570124 
" clip-path="url(#pc979f86cbf)" style="fill: none; stroke: #424242; stroke-width: 2.7; stroke-linecap: square"/>
   </g>
   <g id="line2d_29">
    <path d="M 358.599886 55.20274 
L 358.599886 31.500895 
" clip-path="url(#pc979f86cbf)" style="fill: none; stroke: #424242; stroke-width: 2.7; stroke-linecap: square"/>
   </g>
   <g id="line2d_30">
    <path d="M 354.275455 55.20274 
L 362.924318 55.20274 
" clip-path="url(#pc979f86cbf)" style="fill: none; stroke: #424242; stroke-width: 2.7; stroke-linecap: square"/>
   </g>
   <g id="line2d_31">
    <path d="M 354.275455 31.500895 
L 362.924318 31.500895 
" clip-path="url(#pc979f86cbf)" style="fill: none; stroke: #424242; stroke-width: 2.7; stroke-linecap: square"/>
   </g>
   <g id="line2d_32">
    <path d="M 445.088523 46.646117 
L 445.088523 24.377237 
" clip-path="url(#pc979f86cbf)" style="fill: none; stroke: #424242; stroke-width: 2.7; stroke-linecap: square"/>
   </g>
   <g id="line2d_33">
    <path d="M 440.764091 46.646117 
L 449.412955 46.646117 
" clip-path="url(#pc979f86cbf)" style="fill: none; stroke: #424242; stroke-width: 2.7; stroke-linecap: square"/>
   </g>
   <g id="line2d_34">
    <path d="M 440.764091 24.377237 
L 449.412955 24.377237 
" clip-path="url(#pc979f86cbf)" style="fill: none; stroke: #424242; stroke-width: 2.7; stroke-linecap: square"/>
   </g>
   <g id="line2d_35">
    <path d="M 531.577159 51.139306 
L 531.577159 23.53564 
" clip-path="url(#pc979f86cbf)" style="fill: none; stroke: #424242; stroke-width: 2.7; stroke-linecap: square"/>
   </g>
   <g id="line2d_36">
    <path d="M 527.252727 51.139306 
L 535.901591 51.139306 
" clip-path="url(#pc979f86cbf)" style="fill: none; stroke: #424242; stroke-width: 2.7; stroke-linecap: square"/>
   </g>
   <g id="line2d_37">
    <path d="M 527.252727 23.53564 
L 535.901591 23.53564 
" clip-path="url(#pc979f86cbf)" style="fill: none; stroke: #424242; stroke-width: 2.7; stroke-linecap: square"/>
   </g>
   <g id="line2d_38">
    <path d="M 618.065795 42.751902 
L 618.065795 20.91759 
" clip-path="url(#pc979f86cbf)" style="fill: none; stroke: #424242; stroke-width: 2.7; stroke-linecap: square"/>
   </g>
   <g id="line2d_39">
    <path d="M 613.741364 42.751902 
L 622.390227 42.751902 
" clip-path="url(#pc979f86cbf)" style="fill: none; stroke: #424242; stroke-width: 2.7; stroke-linecap: square"/>
   </g>
   <g id="line2d_40">
    <path d="M 613.741364 20.91759 
L 622.390227 20.91759 
" clip-path="url(#pc979f86cbf)" style="fill: none; stroke: #424242; stroke-width: 2.7; stroke-linecap: square"/>
   </g>
   <g id="line2d_41">
    <path d="M 704.554432 49.897244 
L 704.554432 40.571086 
" clip-path="url(#pc979f86cbf)" style="fill: none; stroke: #424242; stroke-width: 2.7; stroke-linecap: square"/>
   </g>
   <g id="line2d_42">
    <path d="M 700.23 49.897244 
L 708.878864 49.897244 
" clip-path="url(#pc979f86cbf)" style="fill: none; stroke: #424242; stroke-width: 2.7; stroke-linecap: square"/>
   </g>
   <g id="line2d_43">
    <path d="M 700.23 40.571086 
L 708.878864 40.571086 
" clip-path="url(#pc979f86cbf)" style="fill: none; stroke: #424242; stroke-width: 2.7; stroke-linecap: square"/>
   </g>
   <g id="line2d_44">
    <path d="M 791.043068 45.618454 
L 791.043068 21.07327 
" clip-path="url(#pc979f86cbf)" style="fill: none; stroke: #424242; stroke-width: 2.7; stroke-linecap: square"/>
   </g>
   <g id="line2d_45">
    <path d="M 786.718636 45.618454 
L 795.3675 45.618454 
" clip-path="url(#pc979f86cbf)" style="fill: none; stroke: #424242; stroke-width: 2.7; stroke-linecap: square"/>
   </g>
   <g id="line2d_46">
    <path d="M 786.718636 21.07327 
L 795.3675 21.07327 
" clip-path="url(#pc979f86cbf)" style="fill: none; stroke: #424242; stroke-width: 2.7; stroke-linecap: square"/>
   </g>
   <g id="line2d_47">
    <path d="M 133.729432 55.338119 
L 133.729432 37.954637 
" clip-path="url(#pc979f86cbf)" style="fill: none; stroke: #424242; stroke-width: 2.7; stroke-linecap: square"/>
   </g>
   <g id="line2d_48">
    <path d="M 129.405 55.338119 
L 138.053864 55.338119 
" clip-path="url(#pc979f86cbf)" style="fill: none; stroke: #424242; stroke-width: 2.7; stroke-linecap: square"/>
   </g>
   <g id="line2d_49">
    <path d="M 129.405 37.954637 
L 138.053864 37.954637 
" clip-path="url(#pc979f86cbf)" style="fill: none; stroke: #424242; stroke-width: 2.7; stroke-linecap: square"/>
   </g>
   <g id="line2d_50">
    <path d="M 220.218068 40.643307 
L 220.218068 23.827069 
" clip-path="url(#pc979f86cbf)" style="fill: none; stroke: #424242; stroke-width: 2.7; stroke-linecap: square"/>
   </g>
   <g id="line2d_51">
    <path d="M 215.893636 40.643307 
L 224.5425 40.643307 
" clip-path="url(#pc979f86cbf)" style="fill: none; stroke: #424242; stroke-width: 2.7; stroke-linecap: square"/>
   </g>
   <g id="line2d_52">
    <path d="M 215.893636 23.827069 
L 224.5425 23.827069 
" clip-path="url(#pc979f86cbf)" style="fill: none; stroke: #424242; stroke-width: 2.7; stroke-linecap: square"/>
   </g>
   <g id="line2d_53">
    <path d="M 306.706705 54.749416 
L 306.706705 33.858761 
" clip-path="url(#pc979f86cbf)" style="fill: none; stroke: #424242; stroke-width: 2.7; stroke-linecap: square"/>
   </g>
   <g id="line2d_54">
    <path d="M 302.382273 54.749416 
L 311.031136 54.749416 
" clip-path="url(#pc979f86cbf)" style="fill: none; stroke: #424242; stroke-width: 2.7; stroke-linecap: square"/>
   </g>
   <g id="line2d_55">
    <path d="M 302.382273 33.858761 
L 311.031136 33.858761 
" clip-path="url(#pc979f86cbf)" style="fill: none; stroke: #424242; stroke-width: 2.7; stroke-linecap: square"/>
   </g>
   <g id="line2d_56">
    <path d="M 393.195341 65.558346 
L 393.195341 34.242844 
" clip-path="url(#pc979f86cbf)" style="fill: none; stroke: #424242; stroke-width: 2.7; stroke-linecap: square"/>
   </g>
   <g id="line2d_57">
    <path d="M 388.870909 65.558346 
L 397.519773 65.558346 
" clip-path="url(#pc979f86cbf)" style="fill: none; stroke: #424242; stroke-width: 2.7; stroke-linecap: square"/>
   </g>
   <g id="line2d_58">
    <path d="M 388.870909 34.242844 
L 397.519773 34.242844 
" clip-path="url(#pc979f86cbf)" style="fill: none; stroke: #424242; stroke-width: 2.7; stroke-linecap: square"/>
   </g>
   <g id="line2d_59">
    <path d="M 479.683977 45.981623 
L 479.683977 30.672652 
" clip-path="url(#pc979f86cbf)" style="fill: none; stroke: #424242; stroke-width: 2.7; stroke-linecap: square"/>
   </g>
   <g id="line2d_60">
    <path d="M 475.359545 45.981623 
L 484.008409 45.981623 
" clip-path="url(#pc979f86cbf)" style="fill: none; stroke: #424242; stroke-width: 2.7; stroke-linecap: square"/>
   </g>
   <g id="line2d_61">
    <path d="M 475.359545 30.672652 
L 484.008409 30.672652 
" clip-path="url(#pc979f86cbf)" style="fill: none; stroke: #424242; stroke-width: 2.7; stroke-linecap: square"/>
   </g>
   <g id="line2d_62">
    <path d="M 566.172614 43.620314 
L 566.172614 32.453595 
" clip-path="url(#pc979f86cbf)" style="fill: none; stroke: #424242; stroke-width: 2.7; stroke-linecap: square"/>
   </g>
   <g id="line2d_63">
    <path d="M 561.848182 43.620314 
L 570.497045 43.620314 
" clip-path="url(#pc979f86cbf)" style="fill: none; stroke: #424242; stroke-width: 2.7; stroke-linecap: square"/>
   </g>
   <g id="line2d_64">
    <path d="M 561.848182 32.453595 
L 570.497045 32.453595 
" clip-path="url(#pc979f86cbf)" style="fill: none; stroke: #424242; stroke-width: 2.7; stroke-linecap: square"/>
   </g>
   <g id="line2d_65">
    <path d="M 652.66125 47.417789 
L 652.66125 26.051783 
" clip-path="url(#pc979f86cbf)" style="fill: none; stroke: #424242; stroke-width: 2.7; stroke-linecap: square"/>
   </g>
   <g id="line2d_66">
    <path d="M 648.336818 47.417789 
L 656.985682 47.417789 
" clip-path="url(#pc979f86cbf)" style="fill: none; stroke: #424242; stroke-width: 2.7; stroke-linecap: square"/>
   </g>
   <g id="line2d_67">
    <path d="M 648.336818 26.051783 
L 656.985682 26.051783 
" clip-path="url(#pc979f86cbf)" style="fill: none; stroke: #424242; stroke-width: 2.7; stroke-linecap: square"/>
   </g>
   <g id="line2d_68">
    <path d="M 739.149886 68.051534 
L 739.149886 42.380661 
" clip-path="url(#pc979f86cbf)" style="fill: none; stroke: #424242; stroke-width: 2.7; stroke-linecap: square"/>
   </g>
   <g id="line2d_69">
    <path d="M 734.825455 68.051534 
L 743.474318 68.051534 
" clip-path="url(#pc979f86cbf)" style="fill: none; stroke: #424242; stroke-width: 2.7; stroke-linecap: square"/>
   </g>
   <g id="line2d_70">
    <path d="M 734.825455 42.380661 
L 743.474318 42.380661 
" clip-path="url(#pc979f86cbf)" style="fill: none; stroke: #424242; stroke-width: 2.7; stroke-linecap: square"/>
   </g>
   <g id="line2d_71">
    <path d="M 825.638523 44.351029 
L 825.638523 24.67343 
" clip-path="url(#pc979f86cbf)" style="fill: none; stroke: #424242; stroke-width: 2.7; stroke-linecap: square"/>
   </g>
   <g id="line2d_72">
    <path d="M 821.314091 44.351029 
L 829.962955 44.351029 
" clip-path="url(#pc979f86cbf)" style="fill: none; stroke: #424242; stroke-width: 2.7; stroke-linecap: square"/>
   </g>
   <g id="line2d_73">
    <path d="M 821.314091 24.67343 
L 829.962955 24.67343 
" clip-path="url(#pc979f86cbf)" style="fill: none; stroke: #424242; stroke-width: 2.7; stroke-linecap: square"/>
   </g>
   <g id="patch_21">
    <path d="M 43.78125 295.26938 
L 43.78125 7.2 
" style="fill: none; stroke: #000000; stroke-width: 0.8; stroke-linejoin: miter; stroke-linecap: square"/>
   </g>
   <g id="patch_22">
    <path d="M 43.78125 295.26938 
L 880.99125 295.26938 
" style="fill: none; stroke: #000000; stroke-width: 0.8; stroke-linejoin: miter; stroke-linecap: square"/>
   </g>
   <g id="legend_1">
    <g id="patch_23">
     <path d="M 904.443062 189.430003 
L 999.57275 189.430003 
Q 1001.57275 189.430003 1001.57275 187.430003 
L 1001.57275 115.039378 
Q 1001.57275 113.039378 999.57275 113.039378 
L 904.443062 113.039378 
Q 902.443062 113.039378 902.443062 115.039378 
L 902.443062 187.430003 
Q 902.443062 189.430003 904.443062 189.430003 
z
" style="fill: #ffffff; opacity: 0.8"/>
    </g>
    <g id="text_22">
     <!-- Approach -->
     <g transform="translate(928.254781 124.637815) scale(0.1 -0.1)">
      <defs>
       <path id="DejaVuSans-70" d="M 1159 525 
L 1159 -1331 
L 581 -1331 
L 581 3500 
L 1159 3500 
L 1159 2969 
Q 1341 3281 1617 3432 
Q 1894 3584 2278 3584 
Q 2916 3584 3314 3078 
Q 3713 2572 3713 1747 
Q 3713 922 3314 415 
Q 2916 -91 2278 -91 
Q 1894 -91 1617 61 
Q 1341 213 1159 525 
z
M 3116 1747 
Q 3116 2381 2855 2742 
Q 2594 3103 2138 3103 
Q 1681 3103 1420 2742 
Q 1159 2381 1159 1747 
Q 1159 1113 1420 752 
Q 1681 391 2138 391 
Q 2594 391 2855 752 
Q 3116 1113 3116 1747 
z
" transform="scale(0.015625)"/>
       <path id="DejaVuSans-63" d="M 3122 3366 
L 3122 2828 
Q 2878 2963 2633 3030 
Q 2388 3097 2138 3097 
Q 1578 3097 1268 2742 
Q 959 2388 959 1747 
Q 959 1106 1268 751 
Q 1578 397 2138 397 
Q 2388 397 2633 464 
Q 2878 531 3122 666 
L 3122 134 
Q 2881 22 2623 -34 
Q 2366 -91 2075 -91 
Q 1284 -91 818 406 
Q 353 903 353 1747 
Q 353 2603 823 3093 
Q 1294 3584 2113 3584 
Q 2378 3584 2631 3529 
Q 2884 3475 3122 3366 
z
" transform="scale(0.015625)"/>
      </defs>
      <use xlink:href="#DejaVuSans-41"/>
      <use xlink:href="#DejaVuSans-70" x="68.408203"/>
      <use xlink:href="#DejaVuSans-70" x="131.884766"/>
      <use xlink:href="#DejaVuSans-72" x="195.361328"/>
      <use xlink:href="#DejaVuSans-6f" x="234.224609"/>
      <use xlink:href="#DejaVuSans-61" x="295.40625"/>
      <use xlink:href="#DejaVuSans-63" x="356.685547"/>
      <use xlink:href="#DejaVuSans-68" x="411.666016"/>
     </g>
    </g>
    <g id="PathCollection_3">
     <g>
      <use xlink:href="#mf30cf2532f" x="916.443062" y="136.69094" style="fill: #001c7f; stroke: #001c7f; stroke-width: 1.5"/>
     </g>
    </g>
    <g id="text_23">
     <!-- Scaffold Test -->
     <g transform="translate(934.443062 139.31594) scale(0.1 -0.1)">
      <defs>
       <path id="DejaVuSans-20" transform="scale(0.015625)"/>
      </defs>
      <use xlink:href="#DejaVuSans-53"/>
      <use xlink:href="#DejaVuSans-63" x="63.476562"/>
      <use xlink:href="#DejaVuSans-61" x="118.457031"/>
      <use xlink:href="#DejaVuSans-66" x="179.736328"/>
      <use xlink:href="#DejaVuSans-66" x="214.941406"/>
      <use xlink:href="#DejaVuSans-6f" x="250.146484"/>
      <use xlink:href="#DejaVuSans-6c" x="311.328125"/>
      <use xlink:href="#DejaVuSans-64" x="339.111328"/>
      <use xlink:href="#DejaVuSans-20" x="402.587891"/>
      <use xlink:href="#DejaVuSans-54" x="434.375"/>
      <use xlink:href="#DejaVuSans-65" x="478.458984"/>
      <use xlink:href="#DejaVuSans-73" x="539.982422"/>
      <use xlink:href="#DejaVuSans-74" x="592.082031"/>
     </g>
    </g>
    <g id="PathCollection_4">
     <g>
      <use xlink:href="#m3a05d1208c" x="916.443062" y="151.369065" style="fill: #006374; stroke: #006374; stroke-width: 1.5"/>
     </g>
    </g>
    <g id="text_24">
     <!-- Time Test -->
     <g transform="translate(934.443062 153.994065) scale(0.1 -0.1)">
      <use xlink:href="#DejaVuSans-54"/>
      <use xlink:href="#DejaVuSans-69" x="57.958984"/>
      <use xlink:href="#DejaVuSans-6d" x="85.742188"/>
      <use xlink:href="#DejaVuSans-65" x="183.154297"/>
      <use xlink:href="#DejaVuSans-20" x="244.677734"/>
      <use xlink:href="#DejaVuSans-54" x="276.464844"/>
      <use xlink:href="#DejaVuSans-65" x="320.548828"/>
      <use xlink:href="#DejaVuSans-73" x="382.072266"/>
      <use xlink:href="#DejaVuSans-74" x="434.171875"/>
     </g>
    </g>
    <g id="patch_24">
     <path d="M 906.443062 168.67219 
L 926.443062 168.67219 
L 926.443062 161.67219 
L 906.443062 161.67219 
z
" style="fill: #597dbf"/>
    </g>
    <g id="text_25">
     <!-- Scaffold CV -->
     <g transform="translate(934.443062 168.67219) scale(0.1 -0.1)">
      <use xlink:href="#DejaVuSans-53"/>
      <use xlink:href="#DejaVuSans-63" x="63.476562"/>
      <use xlink:href="#DejaVuSans-61" x="118.457031"/>
      <use xlink:href="#DejaVuSans-66" x="179.736328"/>
      <use xlink:href="#DejaVuSans-66" x="214.941406"/>
      <use xlink:href="#DejaVuSans-6f" x="250.146484"/>
      <use xlink:href="#DejaVuSans-6c" x="311.328125"/>
      <use xlink:href="#DejaVuSans-64" x="339.111328"/>
      <use xlink:href="#DejaVuSans-20" x="402.587891"/>
      <use xlink:href="#DejaVuSans-43" x="434.375"/>
      <use xlink:href="#DejaVuSans-56" x="504.199219"/>
     </g>
    </g>
    <g id="patch_25">
     <path d="M 906.443062 183.350315 
L 926.443062 183.350315 
L 926.443062 176.350315 
L 906.443062 176.350315 
z
" style="fill: #8ec1d6"/>
    </g>
    <g id="text_26">
     <!-- Time CV -->
     <g transform="translate(934.443062 183.350315) scale(0.1 -0.1)">
      <use xlink:href="#DejaVuSans-54"/>
      <use xlink:href="#DejaVuSans-69" x="57.958984"/>
      <use xlink:href="#DejaVuSans-6d" x="85.742188"/>
      <use xlink:href="#DejaVuSans-65" x="183.154297"/>
      <use xlink:href="#DejaVuSans-20" x="244.677734"/>
      <use xlink:href="#DejaVuSans-43" x="276.464844"/>
      <use xlink:href="#DejaVuSans-56" x="346.289062"/>
     </g>
    </g>
   </g>
  </g>
 </g>
 <defs>
  <clipPath id="pc979f86cbf">
   <rect x="43.78125" y="7.2" width="837.21" height="288.06938"/>
  </clipPath>
 </defs>
</svg>
