<?xml version="1.0" encoding="utf-8" standalone="no"?>
<!DOCTYPE svg PUBLIC "-//W3C//DTD SVG 1.1//EN"
  "http://www.w3.org/Graphics/SVG/1.1/DTD/svg11.dtd">
<svg xmlns:xlink="http://www.w3.org/1999/xlink" width="947.075938pt" height="205.617812pt" viewBox="0 0 947.075938 205.617812" xmlns="http://www.w3.org/2000/svg" version="1.1">
 <metadata>
  <rdf:RDF xmlns:dc="http://purl.org/dc/elements/1.1/" xmlns:cc="http://creativecommons.org/ns#" xmlns:rdf="http://www.w3.org/1999/02/22-rdf-syntax-ns#">
   <cc:Work>
    <dc:type rdf:resource="http://purl.org/dc/dcmitype/StillImage"/>
    <dc:date>2024-01-26T19:10:32.635205</dc:date>
    <dc:format>image/svg+xml</dc:format>
    <dc:creator>
     <cc:Agent>
      <dc:title>Matplotlib v3.6.2, https://matplotlib.org/</dc:title>
     </cc:Agent>
    </dc:creator>
   </cc:Work>
  </rdf:RDF>
 </metadata>
 <defs>
  <style type="text/css">*{stroke-linejoin: round; stroke-linecap: butt}</style>
 </defs>
 <g id="figure_1">
  <g id="patch_1">
   <path d="M 0 205.617812 
L 947.075938 205.617812 
L 947.075938 0 
L 0 0 
z
" style="fill: #ffffff"/>
  </g>
  <g id="axes_1">
   <g id="patch_2">
    <path d="M 56.805938 162.658125 
L 203.032351 162.658125 
L 203.032351 22.318125 
L 56.805938 22.318125 
z
" style="fill: #ffffff"/>
   </g>
   <g id="matplotlib.axis_1">
    <g id="xtick_1">
     <g id="text_1">
      <!-- 1 -->
      <g style="fill: #262626" transform="translate(60.617883 180.516406) scale(0.11 -0.11)">
       <defs>
        <path id="DejaVuSans-31" d="M 794 531 
L 1825 531 
L 1825 4091 
L 703 3866 
L 703 4441 
L 1819 4666 
L 2450 4666 
L 2450 531 
L 3481 531 
L 3481 0 
L 794 0 
L 794 531 
z
" transform="scale(0.015625)"/>
       </defs>
       <use xlink:href="#DejaVuSans-31"/>
      </g>
     </g>
    </g>
    <g id="xtick_2">
     <g id="text_2">
      <!-- 2 -->
      <g style="fill: #262626" transform="translate(75.240525 180.516406) scale(0.11 -0.11)">
       <defs>
        <path id="DejaVuSans-32" d="M 1228 531 
L 3431 531 
L 3431 0 
L 469 0 
L 469 531 
Q 828 903 1448 1529 
Q 2069 2156 2228 2338 
Q 2531 2678 2651 2914 
Q 2772 3150 2772 3378 
Q 2772 3750 2511 3984 
Q 2250 4219 1831 4219 
Q 1534 4219 1204 4116 
Q 875 4013 500 3803 
L 500 4441 
Q 881 4594 1212 4672 
Q 1544 4750 1819 4750 
Q 2544 4750 2975 4387 
Q 3406 4025 3406 3419 
Q 3406 3131 3298 2873 
Q 3191 2616 2906 2266 
Q 2828 2175 2409 1742 
Q 1991 1309 1228 531 
z
" transform="scale(0.015625)"/>
       </defs>
       <use xlink:href="#DejaVuSans-32"/>
      </g>
     </g>
    </g>
    <g id="xtick_3">
     <g id="text_3">
      <!-- 3 -->
      <g style="fill: #262626" transform="translate(89.863166 180.516406) scale(0.11 -0.11)">
       <defs>
        <path id="DejaVuSans-33" d="M 2597 2516 
Q 3050 2419 3304 2112 
Q 3559 1806 3559 1356 
Q 3559 666 3084 287 
Q 2609 -91 1734 -91 
Q 1441 -91 1130 -33 
Q 819 25 488 141 
L 488 750 
Q 750 597 1062 519 
Q 1375 441 1716 441 
Q 2309 441 2620 675 
Q 2931 909 2931 1356 
Q 2931 1769 2642 2001 
Q 2353 2234 1838 2234 
L 1294 2234 
L 1294 2753 
L 1863 2753 
Q 2328 2753 2575 2939 
Q 2822 3125 2822 3475 
Q 2822 3834 2567 4026 
Q 2313 4219 1838 4219 
Q 1578 4219 1281 4162 
Q 984 4106 628 3988 
L 628 4550 
Q 988 4650 1302 4700 
Q 1616 4750 1894 4750 
Q 2613 4750 3031 4423 
Q 3450 4097 3450 3541 
Q 3450 3153 3228 2886 
Q 3006 2619 2597 2516 
z
" transform="scale(0.015625)"/>
       </defs>
       <use xlink:href="#DejaVuSans-33"/>
      </g>
     </g>
    </g>
    <g id="xtick_4">
     <g id="text_4">
      <!-- 4 -->
      <g style="fill: #262626" transform="translate(104.485807 180.516406) scale(0.11 -0.11)">
       <defs>
        <path id="DejaVuSans-34" d="M 2419 4116 
L 825 1625 
L 2419 1625 
L 2419 4116 
z
M 2253 4666 
L 3047 4666 
L 3047 1625 
L 3713 1625 
L 3713 1100 
L 3047 1100 
L 3047 0 
L 2419 0 
L 2419 1100 
L 313 1100 
L 313 1709 
L 2253 4666 
z
" transform="scale(0.015625)"/>
       </defs>
       <use xlink:href="#DejaVuSans-34"/>
      </g>
     </g>
    </g>
    <g id="xtick_5">
     <g id="text_5">
      <!-- 5 -->
      <g style="fill: #262626" transform="translate(119.108449 180.516406) scale(0.11 -0.11)">
       <defs>
        <path id="DejaVuSans-35" d="M 691 4666 
L 3169 4666 
L 3169 4134 
L 1269 4134 
L 1269 2991 
Q 1406 3038 1543 3061 
Q 1681 3084 1819 3084 
Q 2600 3084 3056 2656 
Q 3513 2228 3513 1497 
Q 3513 744 3044 326 
Q 2575 -91 1722 -91 
Q 1428 -91 1123 -41 
Q 819 9 494 109 
L 494 744 
Q 775 591 1075 516 
Q 1375 441 1709 441 
Q 2250 441 2565 725 
Q 2881 1009 2881 1497 
Q 2881 1984 2565 2268 
Q 2250 2553 1709 2553 
Q 1456 2553 1204 2497 
Q 953 2441 691 2322 
L 691 4666 
z
" transform="scale(0.015625)"/>
       </defs>
       <use xlink:href="#DejaVuSans-35"/>
      </g>
     </g>
    </g>
    <g id="xtick_6">
     <g id="text_6">
      <!-- 6 -->
      <g style="fill: #262626" transform="translate(133.73109 180.516406) scale(0.11 -0.11)">
       <defs>
        <path id="DejaVuSans-36" d="M 2113 2584 
Q 1688 2584 1439 2293 
Q 1191 2003 1191 1497 
Q 1191 994 1439 701 
Q 1688 409 2113 409 
Q 2538 409 2786 701 
Q 3034 994 3034 1497 
Q 3034 2003 2786 2293 
Q 2538 2584 2113 2584 
z
M 3366 4563 
L 3366 3988 
Q 3128 4100 2886 4159 
Q 2644 4219 2406 4219 
Q 1781 4219 1451 3797 
Q 1122 3375 1075 2522 
Q 1259 2794 1537 2939 
Q 1816 3084 2150 3084 
Q 2853 3084 3261 2657 
Q 3669 2231 3669 1497 
Q 3669 778 3244 343 
Q 2819 -91 2113 -91 
Q 1303 -91 875 529 
Q 447 1150 447 2328 
Q 447 3434 972 4092 
Q 1497 4750 2381 4750 
Q 2619 4750 2861 4703 
Q 3103 4656 3366 4563 
z
" transform="scale(0.015625)"/>
       </defs>
       <use xlink:href="#DejaVuSans-36"/>
      </g>
     </g>
    </g>
    <g id="xtick_7">
     <g id="text_7">
      <!-- 7 -->
      <g style="fill: #262626" transform="translate(148.353731 180.516406) scale(0.11 -0.11)">
       <defs>
        <path id="DejaVuSans-37" d="M 525 4666 
L 3525 4666 
L 3525 4397 
L 1831 0 
L 1172 0 
L 2766 4134 
L 525 4134 
L 525 4666 
z
" transform="scale(0.015625)"/>
       </defs>
       <use xlink:href="#DejaVuSans-37"/>
      </g>
     </g>
    </g>
    <g id="xtick_8">
     <g id="text_8">
      <!-- 8 -->
      <g style="fill: #262626" transform="translate(162.976373 180.516406) scale(0.11 -0.11)">
       <defs>
        <path id="DejaVuSans-38" d="M 2034 2216 
Q 1584 2216 1326 1975 
Q 1069 1734 1069 1313 
Q 1069 891 1326 650 
Q 1584 409 2034 409 
Q 2484 409 2743 651 
Q 3003 894 3003 1313 
Q 3003 1734 2745 1975 
Q 2488 2216 2034 2216 
z
M 1403 2484 
Q 997 2584 770 2862 
Q 544 3141 544 3541 
Q 544 4100 942 4425 
Q 1341 4750 2034 4750 
Q 2731 4750 3128 4425 
Q 3525 4100 3525 3541 
Q 3525 3141 3298 2862 
Q 3072 2584 2669 2484 
Q 3125 2378 3379 2068 
Q 3634 1759 3634 1313 
Q 3634 634 3220 271 
Q 2806 -91 2034 -91 
Q 1263 -91 848 271 
Q 434 634 434 1313 
Q 434 1759 690 2068 
Q 947 2378 1403 2484 
z
M 1172 3481 
Q 1172 3119 1398 2916 
Q 1625 2713 2034 2713 
Q 2441 2713 2670 2916 
Q 2900 3119 2900 3481 
Q 2900 3844 2670 4047 
Q 2441 4250 2034 4250 
Q 1625 4250 1398 4047 
Q 1172 3844 1172 3481 
z
" transform="scale(0.015625)"/>
       </defs>
       <use xlink:href="#DejaVuSans-38"/>
      </g>
     </g>
    </g>
    <g id="xtick_9">
     <g id="text_9">
      <!-- 9 -->
      <g style="fill: #262626" transform="translate(177.599014 180.516406) scale(0.11 -0.11)">
       <defs>
        <path id="DejaVuSans-39" d="M 703 97 
L 703 672 
Q 941 559 1184 500 
Q 1428 441 1663 441 
Q 2288 441 2617 861 
Q 2947 1281 2994 2138 
Q 2813 1869 2534 1725 
Q 2256 1581 1919 1581 
Q 1219 1581 811 2004 
Q 403 2428 403 3163 
Q 403 3881 828 4315 
Q 1253 4750 1959 4750 
Q 2769 4750 3195 4129 
Q 3622 3509 3622 2328 
Q 3622 1225 3098 567 
Q 2575 -91 1691 -91 
Q 1453 -91 1209 -44 
Q 966 3 703 97 
z
M 1959 2075 
Q 2384 2075 2632 2365 
Q 2881 2656 2881 3163 
Q 2881 3666 2632 3958 
Q 2384 4250 1959 4250 
Q 1534 4250 1286 3958 
Q 1038 3666 1038 3163 
Q 1038 2656 1286 2365 
Q 1534 2075 1959 2075 
z
" transform="scale(0.015625)"/>
       </defs>
       <use xlink:href="#DejaVuSans-39"/>
      </g>
     </g>
    </g>
    <g id="xtick_10">
     <g id="text_10">
      <!-- 10 -->
      <g style="fill: #262626" transform="translate(188.722281 180.516406) scale(0.11 -0.11)">
       <defs>
        <path id="DejaVuSans-30" d="M 2034 4250 
Q 1547 4250 1301 3770 
Q 1056 3291 1056 2328 
Q 1056 1369 1301 889 
Q 1547 409 2034 409 
Q 2525 409 2770 889 
Q 3016 1369 3016 2328 
Q 3016 3291 2770 3770 
Q 2525 4250 2034 4250 
z
M 2034 4750 
Q 2819 4750 3233 4129 
Q 3647 3509 3647 2328 
Q 3647 1150 3233 529 
Q 2819 -91 2034 -91 
Q 1250 -91 836 529 
Q 422 1150 422 2328 
Q 422 3509 836 4129 
Q 1250 4750 2034 4750 
z
" transform="scale(0.015625)"/>
       </defs>
       <use xlink:href="#DejaVuSans-31"/>
       <use xlink:href="#DejaVuSans-30" x="63.623047"/>
      </g>
     </g>
    </g>
    <g id="text_11">
     <!-- Number of Reactions -->
     <g style="fill: #262626" transform="translate(67.033519 195.922187) scale(0.12 -0.12)">
      <defs>
       <path id="DejaVuSans-4e" d="M 628 4666 
L 1478 4666 
L 3547 763 
L 3547 4666 
L 4159 4666 
L 4159 0 
L 3309 0 
L 1241 3903 
L 1241 0 
L 628 0 
L 628 4666 
z
" transform="scale(0.015625)"/>
       <path id="DejaVuSans-75" d="M 544 1381 
L 544 3500 
L 1119 3500 
L 1119 1403 
Q 1119 906 1312 657 
Q 1506 409 1894 409 
Q 2359 409 2629 706 
Q 2900 1003 2900 1516 
L 2900 3500 
L 3475 3500 
L 3475 0 
L 2900 0 
L 2900 538 
Q 2691 219 2414 64 
Q 2138 -91 1772 -91 
Q 1169 -91 856 284 
Q 544 659 544 1381 
z
M 1991 3584 
L 1991 3584 
z
" transform="scale(0.015625)"/>
       <path id="DejaVuSans-6d" d="M 3328 2828 
Q 3544 3216 3844 3400 
Q 4144 3584 4550 3584 
Q 5097 3584 5394 3201 
Q 5691 2819 5691 2113 
L 5691 0 
L 5113 0 
L 5113 2094 
Q 5113 2597 4934 2840 
Q 4756 3084 4391 3084 
Q 3944 3084 3684 2787 
Q 3425 2491 3425 1978 
L 3425 0 
L 2847 0 
L 2847 2094 
Q 2847 2600 2669 2842 
Q 2491 3084 2119 3084 
Q 1678 3084 1418 2786 
Q 1159 2488 1159 1978 
L 1159 0 
L 581 0 
L 581 3500 
L 1159 3500 
L 1159 2956 
Q 1356 3278 1631 3431 
Q 1906 3584 2284 3584 
Q 2666 3584 2933 3390 
Q 3200 3197 3328 2828 
z
" transform="scale(0.015625)"/>
       <path id="DejaVuSans-62" d="M 3116 1747 
Q 3116 2381 2855 2742 
Q 2594 3103 2138 3103 
Q 1681 3103 1420 2742 
Q 1159 2381 1159 1747 
Q 1159 1113 1420 752 
Q 1681 391 2138 391 
Q 2594 391 2855 752 
Q 3116 1113 3116 1747 
z
M 1159 2969 
Q 1341 3281 1617 3432 
Q 1894 3584 2278 3584 
Q 2916 3584 3314 3078 
Q 3713 2572 3713 1747 
Q 3713 922 3314 415 
Q 2916 -91 2278 -91 
Q 1894 -91 1617 61 
Q 1341 213 1159 525 
L 1159 0 
L 581 0 
L 581 4863 
L 1159 4863 
L 1159 2969 
z
" transform="scale(0.015625)"/>
       <path id="DejaVuSans-65" d="M 3597 1894 
L 3597 1613 
L 953 1613 
Q 991 1019 1311 708 
Q 1631 397 2203 397 
Q 2534 397 2845 478 
Q 3156 559 3463 722 
L 3463 178 
Q 3153 47 2828 -22 
Q 2503 -91 2169 -91 
Q 1331 -91 842 396 
Q 353 884 353 1716 
Q 353 2575 817 3079 
Q 1281 3584 2069 3584 
Q 2775 3584 3186 3129 
Q 3597 2675 3597 1894 
z
M 3022 2063 
Q 3016 2534 2758 2815 
Q 2500 3097 2075 3097 
Q 1594 3097 1305 2825 
Q 1016 2553 972 2059 
L 3022 2063 
z
" transform="scale(0.015625)"/>
       <path id="DejaVuSans-72" d="M 2631 2963 
Q 2534 3019 2420 3045 
Q 2306 3072 2169 3072 
Q 1681 3072 1420 2755 
Q 1159 2438 1159 1844 
L 1159 0 
L 581 0 
L 581 3500 
L 1159 3500 
L 1159 2956 
Q 1341 3275 1631 3429 
Q 1922 3584 2338 3584 
Q 2397 3584 2469 3576 
Q 2541 3569 2628 3553 
L 2631 2963 
z
" transform="scale(0.015625)"/>
       <path id="DejaVuSans-20" transform="scale(0.015625)"/>
       <path id="DejaVuSans-6f" d="M 1959 3097 
Q 1497 3097 1228 2736 
Q 959 2375 959 1747 
Q 959 1119 1226 758 
Q 1494 397 1959 397 
Q 2419 397 2687 759 
Q 2956 1122 2956 1747 
Q 2956 2369 2687 2733 
Q 2419 3097 1959 3097 
z
M 1959 3584 
Q 2709 3584 3137 3096 
Q 3566 2609 3566 1747 
Q 3566 888 3137 398 
Q 2709 -91 1959 -91 
Q 1206 -91 779 398 
Q 353 888 353 1747 
Q 353 2609 779 3096 
Q 1206 3584 1959 3584 
z
" transform="scale(0.015625)"/>
       <path id="DejaVuSans-66" d="M 2375 4863 
L 2375 4384 
L 1825 4384 
Q 1516 4384 1395 4259 
Q 1275 4134 1275 3809 
L 1275 3500 
L 2222 3500 
L 2222 3053 
L 1275 3053 
L 1275 0 
L 697 0 
L 697 3053 
L 147 3053 
L 147 3500 
L 697 3500 
L 697 3744 
Q 697 4328 969 4595 
Q 1241 4863 1831 4863 
L 2375 4863 
z
" transform="scale(0.015625)"/>
       <path id="DejaVuSans-52" d="M 2841 2188 
Q 3044 2119 3236 1894 
Q 3428 1669 3622 1275 
L 4263 0 
L 3584 0 
L 2988 1197 
Q 2756 1666 2539 1819 
Q 2322 1972 1947 1972 
L 1259 1972 
L 1259 0 
L 628 0 
L 628 4666 
L 2053 4666 
Q 2853 4666 3247 4331 
Q 3641 3997 3641 3322 
Q 3641 2881 3436 2590 
Q 3231 2300 2841 2188 
z
M 1259 4147 
L 1259 2491 
L 2053 2491 
Q 2509 2491 2742 2702 
Q 2975 2913 2975 3322 
Q 2975 3731 2742 3939 
Q 2509 4147 2053 4147 
L 1259 4147 
z
" transform="scale(0.015625)"/>
       <path id="DejaVuSans-61" d="M 2194 1759 
Q 1497 1759 1228 1600 
Q 959 1441 959 1056 
Q 959 750 1161 570 
Q 1363 391 1709 391 
Q 2188 391 2477 730 
Q 2766 1069 2766 1631 
L 2766 1759 
L 2194 1759 
z
M 3341 1997 
L 3341 0 
L 2766 0 
L 2766 531 
Q 2569 213 2275 61 
Q 1981 -91 1556 -91 
Q 1019 -91 701 211 
Q 384 513 384 1019 
Q 384 1609 779 1909 
Q 1175 2209 1959 2209 
L 2766 2209 
L 2766 2266 
Q 2766 2663 2505 2880 
Q 2244 3097 1772 3097 
Q 1472 3097 1187 3025 
Q 903 2953 641 2809 
L 641 3341 
Q 956 3463 1253 3523 
Q 1550 3584 1831 3584 
Q 2591 3584 2966 3190 
Q 3341 2797 3341 1997 
z
" transform="scale(0.015625)"/>
       <path id="DejaVuSans-63" d="M 3122 3366 
L 3122 2828 
Q 2878 2963 2633 3030 
Q 2388 3097 2138 3097 
Q 1578 3097 1268 2742 
Q 959 2388 959 1747 
Q 959 1106 1268 751 
Q 1578 397 2138 397 
Q 2388 397 2633 464 
Q 2878 531 3122 666 
L 3122 134 
Q 2881 22 2623 -34 
Q 2366 -91 2075 -91 
Q 1284 -91 818 406 
Q 353 903 353 1747 
Q 353 2603 823 3093 
Q 1294 3584 2113 3584 
Q 2378 3584 2631 3529 
Q 2884 3475 3122 3366 
z
" transform="scale(0.015625)"/>
       <path id="DejaVuSans-74" d="M 1172 4494 
L 1172 3500 
L 2356 3500 
L 2356 3053 
L 1172 3053 
L 1172 1153 
Q 1172 725 1289 603 
Q 1406 481 1766 481 
L 2356 481 
L 2356 0 
L 1766 0 
Q 1100 0 847 248 
Q 594 497 594 1153 
L 594 3053 
L 172 3053 
L 172 3500 
L 594 3500 
L 594 4494 
L 1172 4494 
z
" transform="scale(0.015625)"/>
       <path id="DejaVuSans-69" d="M 603 3500 
L 1178 3500 
L 1178 0 
L 603 0 
L 603 3500 
z
M 603 4863 
L 1178 4863 
L 1178 4134 
L 603 4134 
L 603 4863 
z
" transform="scale(0.015625)"/>
       <path id="DejaVuSans-6e" d="M 3513 2113 
L 3513 0 
L 2938 0 
L 2938 2094 
Q 2938 2591 2744 2837 
Q 2550 3084 2163 3084 
Q 1697 3084 1428 2787 
Q 1159 2491 1159 1978 
L 1159 0 
L 581 0 
L 581 3500 
L 1159 3500 
L 1159 2956 
Q 1366 3272 1645 3428 
Q 1925 3584 2291 3584 
Q 2894 3584 3203 3211 
Q 3513 2838 3513 2113 
z
" transform="scale(0.015625)"/>
       <path id="DejaVuSans-73" d="M 2834 3397 
L 2834 2853 
Q 2591 2978 2328 3040 
Q 2066 3103 1784 3103 
Q 1356 3103 1142 2972 
Q 928 2841 928 2578 
Q 928 2378 1081 2264 
Q 1234 2150 1697 2047 
L 1894 2003 
Q 2506 1872 2764 1633 
Q 3022 1394 3022 966 
Q 3022 478 2636 193 
Q 2250 -91 1575 -91 
Q 1294 -91 989 -36 
Q 684 19 347 128 
L 347 722 
Q 666 556 975 473 
Q 1284 391 1588 391 
Q 1994 391 2212 530 
Q 2431 669 2431 922 
Q 2431 1156 2273 1281 
Q 2116 1406 1581 1522 
L 1381 1569 
Q 847 1681 609 1914 
Q 372 2147 372 2553 
Q 372 3047 722 3315 
Q 1072 3584 1716 3584 
Q 2034 3584 2315 3537 
Q 2597 3491 2834 3397 
z
" transform="scale(0.015625)"/>
      </defs>
      <use xlink:href="#DejaVuSans-4e"/>
      <use xlink:href="#DejaVuSans-75" x="74.804688"/>
      <use xlink:href="#DejaVuSans-6d" x="138.183594"/>
      <use xlink:href="#DejaVuSans-62" x="235.595703"/>
      <use xlink:href="#DejaVuSans-65" x="299.072266"/>
      <use xlink:href="#DejaVuSans-72" x="360.595703"/>
      <use xlink:href="#DejaVuSans-20" x="401.708984"/>
      <use xlink:href="#DejaVuSans-6f" x="433.496094"/>
      <use xlink:href="#DejaVuSans-66" x="494.677734"/>
      <use xlink:href="#DejaVuSans-20" x="529.882812"/>
      <use xlink:href="#DejaVuSans-52" x="561.669922"/>
      <use xlink:href="#DejaVuSans-65" x="626.652344"/>
      <use xlink:href="#DejaVuSans-61" x="688.175781"/>
      <use xlink:href="#DejaVuSans-63" x="749.455078"/>
      <use xlink:href="#DejaVuSans-74" x="804.435547"/>
      <use xlink:href="#DejaVuSans-69" x="843.644531"/>
      <use xlink:href="#DejaVuSans-6f" x="871.427734"/>
      <use xlink:href="#DejaVuSans-6e" x="932.609375"/>
      <use xlink:href="#DejaVuSans-73" x="995.988281"/>
     </g>
    </g>
   </g>
   <g id="matplotlib.axis_2">
    <g id="ytick_1">
     <g id="text_12">
      <!-- 0.00 -->
      <g style="fill: #262626" transform="translate(22.81375 166.837266) scale(0.11 -0.11)">
       <defs>
        <path id="DejaVuSans-2e" d="M 684 794 
L 1344 794 
L 1344 0 
L 684 0 
L 684 794 
z
" transform="scale(0.015625)"/>
       </defs>
       <use xlink:href="#DejaVuSans-30"/>
       <use xlink:href="#DejaVuSans-2e" x="63.623047"/>
       <use xlink:href="#DejaVuSans-30" x="95.410156"/>
       <use xlink:href="#DejaVuSans-30" x="159.033203"/>
      </g>
     </g>
    </g>
    <g id="ytick_2">
     <g id="text_13">
      <!-- 0.02 -->
      <g style="fill: #262626" transform="translate(22.81375 138.769266) scale(0.11 -0.11)">
       <use xlink:href="#DejaVuSans-30"/>
       <use xlink:href="#DejaVuSans-2e" x="63.623047"/>
       <use xlink:href="#DejaVuSans-30" x="95.410156"/>
       <use xlink:href="#DejaVuSans-32" x="159.033203"/>
      </g>
     </g>
    </g>
    <g id="ytick_3">
     <g id="text_14">
      <!-- 0.04 -->
      <g style="fill: #262626" transform="translate(22.81375 110.701266) scale(0.11 -0.11)">
       <use xlink:href="#DejaVuSans-30"/>
       <use xlink:href="#DejaVuSans-2e" x="63.623047"/>
       <use xlink:href="#DejaVuSans-30" x="95.410156"/>
       <use xlink:href="#DejaVuSans-34" x="159.033203"/>
      </g>
     </g>
    </g>
    <g id="ytick_4">
     <g id="text_15">
      <!-- 0.06 -->
      <g style="fill: #262626" transform="translate(22.81375 82.633266) scale(0.11 -0.11)">
       <use xlink:href="#DejaVuSans-30"/>
       <use xlink:href="#DejaVuSans-2e" x="63.623047"/>
       <use xlink:href="#DejaVuSans-30" x="95.410156"/>
       <use xlink:href="#DejaVuSans-36" x="159.033203"/>
      </g>
     </g>
    </g>
    <g id="ytick_5">
     <g id="text_16">
      <!-- 0.08 -->
      <g style="fill: #262626" transform="translate(22.81375 54.565266) scale(0.11 -0.11)">
       <use xlink:href="#DejaVuSans-30"/>
       <use xlink:href="#DejaVuSans-2e" x="63.623047"/>
       <use xlink:href="#DejaVuSans-30" x="95.410156"/>
       <use xlink:href="#DejaVuSans-38" x="159.033203"/>
      </g>
     </g>
    </g>
    <g id="ytick_6">
     <g id="text_17">
      <!-- 0.10 -->
      <g style="fill: #262626" transform="translate(22.81375 26.497266) scale(0.11 -0.11)">
       <use xlink:href="#DejaVuSans-30"/>
       <use xlink:href="#DejaVuSans-2e" x="63.623047"/>
       <use xlink:href="#DejaVuSans-31" x="95.410156"/>
       <use xlink:href="#DejaVuSans-30" x="159.033203"/>
      </g>
     </g>
    </g>
    <g id="text_18">
     <!-- Fraction of Dataset -->
     <g style="fill: #262626" transform="translate(16.318125 149.532187) rotate(-90) scale(0.12 -0.12)">
      <defs>
       <path id="DejaVuSans-46" d="M 628 4666 
L 3309 4666 
L 3309 4134 
L 1259 4134 
L 1259 2759 
L 3109 2759 
L 3109 2228 
L 1259 2228 
L 1259 0 
L 628 0 
L 628 4666 
z
" transform="scale(0.015625)"/>
       <path id="DejaVuSans-44" d="M 1259 4147 
L 1259 519 
L 2022 519 
Q 2988 519 3436 956 
Q 3884 1394 3884 2338 
Q 3884 3275 3436 3711 
Q 2988 4147 2022 4147 
L 1259 4147 
z
M 628 4666 
L 1925 4666 
Q 3281 4666 3915 4102 
Q 4550 3538 4550 2338 
Q 4550 1131 3912 565 
Q 3275 0 1925 0 
L 628 0 
L 628 4666 
z
" transform="scale(0.015625)"/>
      </defs>
      <use xlink:href="#DejaVuSans-46"/>
      <use xlink:href="#DejaVuSans-72" x="50.269531"/>
      <use xlink:href="#DejaVuSans-61" x="91.382812"/>
      <use xlink:href="#DejaVuSans-63" x="152.662109"/>
      <use xlink:href="#DejaVuSans-74" x="207.642578"/>
      <use xlink:href="#DejaVuSans-69" x="246.851562"/>
      <use xlink:href="#DejaVuSans-6f" x="274.634766"/>
      <use xlink:href="#DejaVuSans-6e" x="335.816406"/>
      <use xlink:href="#DejaVuSans-20" x="399.195312"/>
      <use xlink:href="#DejaVuSans-6f" x="430.982422"/>
      <use xlink:href="#DejaVuSans-66" x="492.164062"/>
      <use xlink:href="#DejaVuSans-20" x="527.369141"/>
      <use xlink:href="#DejaVuSans-44" x="559.15625"/>
      <use xlink:href="#DejaVuSans-61" x="636.158203"/>
      <use xlink:href="#DejaVuSans-74" x="697.4375"/>
      <use xlink:href="#DejaVuSans-61" x="736.646484"/>
      <use xlink:href="#DejaVuSans-73" x="797.925781"/>
      <use xlink:href="#DejaVuSans-65" x="850.025391"/>
      <use xlink:href="#DejaVuSans-74" x="911.548828"/>
     </g>
    </g>
   </g>
   <g id="patch_3">
    <path d="M 64.117258 162.658125 
L 69.966315 162.658125 
L 69.966315 106.384312 
L 64.117258 106.384312 
z
" clip-path="url(#pdafea60994)" style="fill: #ee854a; fill-opacity: 0.75; stroke: #ffffff; stroke-width: 0.42838; stroke-linejoin: miter"/>
   </g>
   <g id="patch_4">
    <path d="M 78.7399 162.658125 
L 84.588956 162.658125 
L 84.588956 82.266963 
L 78.7399 82.266963 
z
" clip-path="url(#pdafea60994)" style="fill: #ee854a; fill-opacity: 0.75; stroke: #ffffff; stroke-width: 0.42838; stroke-linejoin: miter"/>
   </g>
   <g id="patch_5">
    <path d="M 93.362541 162.658125 
L 99.211597 162.658125 
L 99.211597 43.219827 
L 93.362541 43.219827 
z
" clip-path="url(#pdafea60994)" style="fill: #ee854a; fill-opacity: 0.75; stroke: #ffffff; stroke-width: 0.42838; stroke-linejoin: miter"/>
   </g>
   <g id="patch_6">
    <path d="M 107.985182 162.658125 
L 113.834239 162.658125 
L 113.834239 34.032266 
L 107.985182 34.032266 
z
" clip-path="url(#pdafea60994)" style="fill: #ee854a; fill-opacity: 0.75; stroke: #ffffff; stroke-width: 0.42838; stroke-linejoin: miter"/>
   </g>
   <g id="patch_7">
    <path d="M 122.607824 162.658125 
L 128.45688 162.658125 
L 128.45688 69.634066 
L 122.607824 69.634066 
z
" clip-path="url(#pdafea60994)" style="fill: #ee854a; fill-opacity: 0.75; stroke: #ffffff; stroke-width: 0.42838; stroke-linejoin: miter"/>
   </g>
   <g id="patch_8">
    <path d="M 137.230465 162.658125 
L 143.079522 162.658125 
L 143.079522 85.712298 
L 137.230465 85.712298 
z
" clip-path="url(#pdafea60994)" style="fill: #ee854a; fill-opacity: 0.75; stroke: #ffffff; stroke-width: 0.42838; stroke-linejoin: miter"/>
   </g>
   <g id="patch_9">
    <path d="M 151.853106 162.658125 
L 157.702163 162.658125 
L 157.702163 92.60297 
L 151.853106 92.60297 
z
" clip-path="url(#pdafea60994)" style="fill: #ee854a; fill-opacity: 0.75; stroke: #ffffff; stroke-width: 0.42838; stroke-linejoin: miter"/>
   </g>
   <g id="patch_10">
    <path d="M 166.475748 162.658125 
L 172.324804 162.658125 
L 172.324804 100.642086 
L 166.475748 100.642086 
z
" clip-path="url(#pdafea60994)" style="fill: #ee854a; fill-opacity: 0.75; stroke: #ffffff; stroke-width: 0.42838; stroke-linejoin: miter"/>
   </g>
   <g id="patch_11">
    <path d="M 181.098389 162.658125 
L 186.947446 162.658125 
L 186.947446 83.415408 
L 181.098389 83.415408 
z
" clip-path="url(#pdafea60994)" style="fill: #ee854a; fill-opacity: 0.75; stroke: #ffffff; stroke-width: 0.42838; stroke-linejoin: miter"/>
   </g>
   <g id="patch_12">
    <path d="M 195.721031 162.658125 
L 201.570087 162.658125 
L 201.570087 127.056325 
L 195.721031 127.056325 
z
" clip-path="url(#pdafea60994)" style="fill: #ee854a; fill-opacity: 0.75; stroke: #ffffff; stroke-width: 0.42838; stroke-linejoin: miter"/>
   </g>
   <g id="patch_13">
    <path d="M 58.268202 162.658125 
L 64.117258 162.658125 
L 64.117258 151.173673 
L 58.268202 151.173673 
z
" clip-path="url(#pdafea60994)" style="fill: #4878d0; fill-opacity: 0.75; stroke: #ffffff; stroke-width: 0.42838; stroke-linejoin: miter"/>
   </g>
   <g id="patch_14">
    <path d="M 72.890843 162.658125 
L 78.7399 162.658125 
L 78.7399 144.283002 
L 72.890843 144.283002 
z
" clip-path="url(#pdafea60994)" style="fill: #4878d0; fill-opacity: 0.75; stroke: #ffffff; stroke-width: 0.42838; stroke-linejoin: miter"/>
   </g>
   <g id="patch_15">
    <path d="M 87.513484 162.658125 
L 93.362541 162.658125 
L 93.362541 128.20477 
L 87.513484 128.20477 
z
" clip-path="url(#pdafea60994)" style="fill: #4878d0; fill-opacity: 0.75; stroke: #ffffff; stroke-width: 0.42838; stroke-linejoin: miter"/>
   </g>
   <g id="patch_16">
    <path d="M 102.136126 162.658125 
L 107.985182 162.658125 
L 107.985182 123.610989 
L 102.136126 123.610989 
z
" clip-path="url(#pdafea60994)" style="fill: #4878d0; fill-opacity: 0.75; stroke: #ffffff; stroke-width: 0.42838; stroke-linejoin: miter"/>
   </g>
   <g id="patch_17">
    <path d="M 116.758767 162.658125 
L 122.607824 162.658125 
L 122.607824 100.642086 
L 116.758767 100.642086 
z
" clip-path="url(#pdafea60994)" style="fill: #4878d0; fill-opacity: 0.75; stroke: #ffffff; stroke-width: 0.42838; stroke-linejoin: miter"/>
   </g>
   <g id="patch_18">
    <path d="M 131.381409 162.658125 
L 137.230465 162.658125 
L 137.230465 84.563853 
L 131.381409 84.563853 
z
" clip-path="url(#pdafea60994)" style="fill: #4878d0; fill-opacity: 0.75; stroke: #ffffff; stroke-width: 0.42838; stroke-linejoin: miter"/>
   </g>
   <g id="patch_19">
    <path d="M 146.00405 162.658125 
L 151.853106 162.658125 
L 151.853106 101.790531 
L 146.00405 101.790531 
z
" clip-path="url(#pdafea60994)" style="fill: #4878d0; fill-opacity: 0.75; stroke: #ffffff; stroke-width: 0.42838; stroke-linejoin: miter"/>
   </g>
   <g id="patch_20">
    <path d="M 160.626691 162.658125 
L 166.475748 162.658125 
L 166.475748 73.079402 
L 160.626691 73.079402 
z
" clip-path="url(#pdafea60994)" style="fill: #4878d0; fill-opacity: 0.75; stroke: #ffffff; stroke-width: 0.42838; stroke-linejoin: miter"/>
   </g>
   <g id="patch_21">
    <path d="M 175.249333 162.658125 
L 181.098389 162.658125 
L 181.098389 61.59495 
L 175.249333 61.59495 
z
" clip-path="url(#pdafea60994)" style="fill: #4878d0; fill-opacity: 0.75; stroke: #ffffff; stroke-width: 0.42838; stroke-linejoin: miter"/>
   </g>
   <g id="patch_22">
    <path d="M 189.871974 162.658125 
L 195.721031 162.658125 
L 195.721031 55.852724 
L 189.871974 55.852724 
z
" clip-path="url(#pdafea60994)" style="fill: #4878d0; fill-opacity: 0.75; stroke: #ffffff; stroke-width: 0.42838; stroke-linejoin: miter"/>
   </g>
   <g id="patch_23">
    <path d="M 56.805938 162.658125 
L 56.805938 22.318125 
" style="fill: none; stroke: #262626; stroke-width: 1.25; stroke-linejoin: miter; stroke-linecap: square"/>
   </g>
   <g id="patch_24">
    <path d="M 56.805938 162.658125 
L 203.032351 162.658125 
" style="fill: none; stroke: #262626; stroke-width: 1.25; stroke-linejoin: miter; stroke-linecap: square"/>
   </g>
   <g id="text_19">
    <!-- Caspyrus1k -->
    <g style="fill: #262626" transform="translate(94.880082 16.318125) scale(0.12 -0.12)">
     <defs>
      <path id="DejaVuSans-43" d="M 4122 4306 
L 4122 3641 
Q 3803 3938 3442 4084 
Q 3081 4231 2675 4231 
Q 1875 4231 1450 3742 
Q 1025 3253 1025 2328 
Q 1025 1406 1450 917 
Q 1875 428 2675 428 
Q 3081 428 3442 575 
Q 3803 722 4122 1019 
L 4122 359 
Q 3791 134 3420 21 
Q 3050 -91 2638 -91 
Q 1578 -91 968 557 
Q 359 1206 359 2328 
Q 359 3453 968 4101 
Q 1578 4750 2638 4750 
Q 3056 4750 3426 4639 
Q 3797 4528 4122 4306 
z
" transform="scale(0.015625)"/>
      <path id="DejaVuSans-70" d="M 1159 525 
L 1159 -1331 
L 581 -1331 
L 581 3500 
L 1159 3500 
L 1159 2969 
Q 1341 3281 1617 3432 
Q 1894 3584 2278 3584 
Q 2916 3584 3314 3078 
Q 3713 2572 3713 1747 
Q 3713 922 3314 415 
Q 2916 -91 2278 -91 
Q 1894 -91 1617 61 
Q 1341 213 1159 525 
z
M 3116 1747 
Q 3116 2381 2855 2742 
Q 2594 3103 2138 3103 
Q 1681 3103 1420 2742 
Q 1159 2381 1159 1747 
Q 1159 1113 1420 752 
Q 1681 391 2138 391 
Q 2594 391 2855 752 
Q 3116 1113 3116 1747 
z
" transform="scale(0.015625)"/>
      <path id="DejaVuSans-79" d="M 2059 -325 
Q 1816 -950 1584 -1140 
Q 1353 -1331 966 -1331 
L 506 -1331 
L 506 -850 
L 844 -850 
Q 1081 -850 1212 -737 
Q 1344 -625 1503 -206 
L 1606 56 
L 191 3500 
L 800 3500 
L 1894 763 
L 2988 3500 
L 3597 3500 
L 2059 -325 
z
" transform="scale(0.015625)"/>
      <path id="DejaVuSans-6b" d="M 581 4863 
L 1159 4863 
L 1159 1991 
L 2875 3500 
L 3609 3500 
L 1753 1863 
L 3688 0 
L 2938 0 
L 1159 1709 
L 1159 0 
L 581 0 
L 581 4863 
z
" transform="scale(0.015625)"/>
     </defs>
     <use xlink:href="#DejaVuSans-43"/>
     <use xlink:href="#DejaVuSans-61" x="69.824219"/>
     <use xlink:href="#DejaVuSans-73" x="131.103516"/>
     <use xlink:href="#DejaVuSans-70" x="183.203125"/>
     <use xlink:href="#DejaVuSans-79" x="246.679688"/>
     <use xlink:href="#DejaVuSans-72" x="305.859375"/>
     <use xlink:href="#DejaVuSans-75" x="346.972656"/>
     <use xlink:href="#DejaVuSans-73" x="410.351562"/>
     <use xlink:href="#DejaVuSans-31" x="462.451172"/>
     <use xlink:href="#DejaVuSans-6b" x="526.074219"/>
    </g>
   </g>
  </g>
  <g id="axes_2">
   <g id="patch_25">
    <path d="M 217.239937 162.658125 
L 363.466351 162.658125 
L 363.466351 22.318125 
L 217.239937 22.318125 
z
" style="fill: #ffffff"/>
   </g>
   <g id="matplotlib.axis_3">
    <g id="xtick_11">
     <g id="text_20">
      <!-- 1 -->
      <g style="fill: #262626" transform="translate(221.051883 180.516406) scale(0.11 -0.11)">
       <use xlink:href="#DejaVuSans-31"/>
      </g>
     </g>
    </g>
    <g id="xtick_12">
     <g id="text_21">
      <!-- 2 -->
      <g style="fill: #262626" transform="translate(235.674525 180.516406) scale(0.11 -0.11)">
       <use xlink:href="#DejaVuSans-32"/>
      </g>
     </g>
    </g>
    <g id="xtick_13">
     <g id="text_22">
      <!-- 3 -->
      <g style="fill: #262626" transform="translate(250.297166 180.516406) scale(0.11 -0.11)">
       <use xlink:href="#DejaVuSans-33"/>
      </g>
     </g>
    </g>
    <g id="xtick_14">
     <g id="text_23">
      <!-- 4 -->
      <g style="fill: #262626" transform="translate(264.919807 180.516406) scale(0.11 -0.11)">
       <use xlink:href="#DejaVuSans-34"/>
      </g>
     </g>
    </g>
    <g id="xtick_15">
     <g id="text_24">
      <!-- 5 -->
      <g style="fill: #262626" transform="translate(279.542449 180.516406) scale(0.11 -0.11)">
       <use xlink:href="#DejaVuSans-35"/>
      </g>
     </g>
    </g>
    <g id="xtick_16">
     <g id="text_25">
      <!-- 6 -->
      <g style="fill: #262626" transform="translate(294.16509 180.516406) scale(0.11 -0.11)">
       <use xlink:href="#DejaVuSans-36"/>
      </g>
     </g>
    </g>
    <g id="xtick_17">
     <g id="text_26">
      <!-- 7 -->
      <g style="fill: #262626" transform="translate(308.787731 180.516406) scale(0.11 -0.11)">
       <use xlink:href="#DejaVuSans-37"/>
      </g>
     </g>
    </g>
    <g id="xtick_18">
     <g id="text_27">
      <!-- 8 -->
      <g style="fill: #262626" transform="translate(323.410373 180.516406) scale(0.11 -0.11)">
       <use xlink:href="#DejaVuSans-38"/>
      </g>
     </g>
    </g>
    <g id="xtick_19">
     <g id="text_28">
      <!-- 9 -->
      <g style="fill: #262626" transform="translate(338.033014 180.516406) scale(0.11 -0.11)">
       <use xlink:href="#DejaVuSans-39"/>
      </g>
     </g>
    </g>
    <g id="xtick_20">
     <g id="text_29">
      <!-- 10 -->
      <g style="fill: #262626" transform="translate(349.156281 180.516406) scale(0.11 -0.11)">
       <use xlink:href="#DejaVuSans-31"/>
       <use xlink:href="#DejaVuSans-30" x="63.623047"/>
      </g>
     </g>
    </g>
    <g id="text_30">
     <!-- Number of Reactions -->
     <g style="fill: #262626" transform="translate(227.467519 195.922187) scale(0.12 -0.12)">
      <use xlink:href="#DejaVuSans-4e"/>
      <use xlink:href="#DejaVuSans-75" x="74.804688"/>
      <use xlink:href="#DejaVuSans-6d" x="138.183594"/>
      <use xlink:href="#DejaVuSans-62" x="235.595703"/>
      <use xlink:href="#DejaVuSans-65" x="299.072266"/>
      <use xlink:href="#DejaVuSans-72" x="360.595703"/>
      <use xlink:href="#DejaVuSans-20" x="401.708984"/>
      <use xlink:href="#DejaVuSans-6f" x="433.496094"/>
      <use xlink:href="#DejaVuSans-66" x="494.677734"/>
      <use xlink:href="#DejaVuSans-20" x="529.882812"/>
      <use xlink:href="#DejaVuSans-52" x="561.669922"/>
      <use xlink:href="#DejaVuSans-65" x="626.652344"/>
      <use xlink:href="#DejaVuSans-61" x="688.175781"/>
      <use xlink:href="#DejaVuSans-63" x="749.455078"/>
      <use xlink:href="#DejaVuSans-74" x="804.435547"/>
      <use xlink:href="#DejaVuSans-69" x="843.644531"/>
      <use xlink:href="#DejaVuSans-6f" x="871.427734"/>
      <use xlink:href="#DejaVuSans-6e" x="932.609375"/>
      <use xlink:href="#DejaVuSans-73" x="995.988281"/>
     </g>
    </g>
   </g>
   <g id="matplotlib.axis_4">
    <g id="ytick_7"/>
    <g id="ytick_8"/>
    <g id="ytick_9"/>
    <g id="ytick_10"/>
    <g id="ytick_11"/>
    <g id="ytick_12"/>
   </g>
   <g id="patch_26">
    <path d="M 224.551258 162.658125 
L 230.400315 162.658125 
L 230.400315 60.34149 
L 224.551258 60.34149 
z
" clip-path="url(#pa4dd9508aa)" style="fill: #ee854a; fill-opacity: 0.75; stroke: #ffffff; stroke-width: 0.42838; stroke-linejoin: miter"/>
   </g>
   <g id="patch_27">
    <path d="M 239.1739 162.658125 
L 245.022956 162.658125 
L 245.022956 54.405399 
L 239.1739 54.405399 
z
" clip-path="url(#pa4dd9508aa)" style="fill: #ee854a; fill-opacity: 0.75; stroke: #ffffff; stroke-width: 0.42838; stroke-linejoin: miter"/>
   </g>
   <g id="patch_28">
    <path d="M 253.796541 162.658125 
L 259.645597 162.658125 
L 259.645597 39.727063 
L 253.796541 39.727063 
z
" clip-path="url(#pa4dd9508aa)" style="fill: #ee854a; fill-opacity: 0.75; stroke: #ffffff; stroke-width: 0.42838; stroke-linejoin: miter"/>
   </g>
   <g id="patch_29">
    <path d="M 268.419182 162.658125 
L 274.268239 162.658125 
L 274.268239 57.535338 
L 268.419182 57.535338 
z
" clip-path="url(#pa4dd9508aa)" style="fill: #ee854a; fill-opacity: 0.75; stroke: #ffffff; stroke-width: 0.42838; stroke-linejoin: miter"/>
   </g>
   <g id="patch_30">
    <path d="M 283.041824 162.658125 
L 288.89088 162.658125 
L 288.89088 74.58811 
L 283.041824 74.58811 
z
" clip-path="url(#pa4dd9508aa)" style="fill: #ee854a; fill-opacity: 0.75; stroke: #ffffff; stroke-width: 0.42838; stroke-linejoin: miter"/>
   </g>
   <g id="patch_31">
    <path d="M 297.664465 162.658125 
L 303.513522 162.658125 
L 303.513522 98.00869 
L 297.664465 98.00869 
z
" clip-path="url(#pa4dd9508aa)" style="fill: #ee854a; fill-opacity: 0.75; stroke: #ffffff; stroke-width: 0.42838; stroke-linejoin: miter"/>
   </g>
   <g id="patch_32">
    <path d="M 312.287106 162.658125 
L 318.136163 162.658125 
L 318.136163 103.297208 
L 312.287106 103.297208 
z
" clip-path="url(#pa4dd9508aa)" style="fill: #ee854a; fill-opacity: 0.75; stroke: #ffffff; stroke-width: 0.42838; stroke-linejoin: miter"/>
   </g>
   <g id="patch_33">
    <path d="M 326.909748 162.658125 
L 332.758804 162.658125 
L 332.758804 113.766315 
L 326.909748 113.766315 
z
" clip-path="url(#pa4dd9508aa)" style="fill: #ee854a; fill-opacity: 0.75; stroke: #ffffff; stroke-width: 0.42838; stroke-linejoin: miter"/>
   </g>
   <g id="patch_34">
    <path d="M 341.532389 162.658125 
L 347.381446 162.658125 
L 347.381446 111.499808 
L 341.532389 111.499808 
z
" clip-path="url(#pa4dd9508aa)" style="fill: #ee854a; fill-opacity: 0.75; stroke: #ffffff; stroke-width: 0.42838; stroke-linejoin: miter"/>
   </g>
   <g id="patch_35">
    <path d="M 356.155031 162.658125 
L 362.004087 162.658125 
L 362.004087 136.863108 
L 356.155031 136.863108 
z
" clip-path="url(#pa4dd9508aa)" style="fill: #ee854a; fill-opacity: 0.75; stroke: #ffffff; stroke-width: 0.42838; stroke-linejoin: miter"/>
   </g>
   <g id="patch_36">
    <path d="M 218.702202 162.658125 
L 224.551258 162.658125 
L 224.551258 150.246297 
L 218.702202 150.246297 
z
" clip-path="url(#pa4dd9508aa)" style="fill: #4878d0; fill-opacity: 0.75; stroke: #ffffff; stroke-width: 0.42838; stroke-linejoin: miter"/>
   </g>
   <g id="patch_37">
    <path d="M 233.324843 162.658125 
L 239.1739 162.658125 
L 239.1739 131.682519 
L 233.324843 131.682519 
z
" clip-path="url(#pa4dd9508aa)" style="fill: #4878d0; fill-opacity: 0.75; stroke: #ffffff; stroke-width: 0.42838; stroke-linejoin: miter"/>
   </g>
   <g id="patch_38">
    <path d="M 247.947484 162.658125 
L 253.796541 162.658125 
L 253.796541 109.665016 
L 247.947484 109.665016 
z
" clip-path="url(#pa4dd9508aa)" style="fill: #4878d0; fill-opacity: 0.75; stroke: #ffffff; stroke-width: 0.42838; stroke-linejoin: miter"/>
   </g>
   <g id="patch_39">
    <path d="M 262.570126 162.658125 
L 268.419182 162.658125 
L 268.419182 103.513066 
L 262.570126 103.513066 
z
" clip-path="url(#pa4dd9508aa)" style="fill: #4878d0; fill-opacity: 0.75; stroke: #ffffff; stroke-width: 0.42838; stroke-linejoin: miter"/>
   </g>
   <g id="patch_40">
    <path d="M 277.192767 162.658125 
L 283.041824 162.658125 
L 283.041824 98.764193 
L 277.192767 98.764193 
z
" clip-path="url(#pa4dd9508aa)" style="fill: #4878d0; fill-opacity: 0.75; stroke: #ffffff; stroke-width: 0.42838; stroke-linejoin: miter"/>
   </g>
   <g id="patch_41">
    <path d="M 291.815409 162.658125 
L 297.664465 162.658125 
L 297.664465 92.396385 
L 291.815409 92.396385 
z
" clip-path="url(#pa4dd9508aa)" style="fill: #4878d0; fill-opacity: 0.75; stroke: #ffffff; stroke-width: 0.42838; stroke-linejoin: miter"/>
   </g>
   <g id="patch_42">
    <path d="M 306.43805 162.658125 
L 312.287106 162.658125 
L 312.287106 90.88538 
L 306.43805 90.88538 
z
" clip-path="url(#pa4dd9508aa)" style="fill: #4878d0; fill-opacity: 0.75; stroke: #ffffff; stroke-width: 0.42838; stroke-linejoin: miter"/>
   </g>
   <g id="patch_43">
    <path d="M 321.060691 162.658125 
L 326.909748 162.658125 
L 326.909748 81.495563 
L 321.060691 81.495563 
z
" clip-path="url(#pa4dd9508aa)" style="fill: #4878d0; fill-opacity: 0.75; stroke: #ffffff; stroke-width: 0.42838; stroke-linejoin: miter"/>
   </g>
   <g id="patch_44">
    <path d="M 335.683333 162.658125 
L 341.532389 162.658125 
L 341.532389 68.652019 
L 335.683333 68.652019 
z
" clip-path="url(#pa4dd9508aa)" style="fill: #4878d0; fill-opacity: 0.75; stroke: #ffffff; stroke-width: 0.42838; stroke-linejoin: miter"/>
   </g>
   <g id="patch_45">
    <path d="M 350.305974 162.658125 
L 356.155031 162.658125 
L 356.155031 72.429532 
L 350.305974 72.429532 
z
" clip-path="url(#pa4dd9508aa)" style="fill: #4878d0; fill-opacity: 0.75; stroke: #ffffff; stroke-width: 0.42838; stroke-linejoin: miter"/>
   </g>
   <g id="patch_46">
    <path d="M 217.239937 162.658125 
L 217.239937 22.318125 
" style="fill: none; stroke: #262626; stroke-width: 1.25; stroke-linejoin: miter; stroke-linecap: square"/>
   </g>
   <g id="patch_47">
    <path d="M 217.239937 162.658125 
L 363.466351 162.658125 
" style="fill: none; stroke: #262626; stroke-width: 1.25; stroke-linejoin: miter; stroke-linecap: square"/>
   </g>
   <g id="text_31">
    <!-- Caspyrus10k -->
    <g style="fill: #262626" transform="translate(251.496582 16.318125) scale(0.12 -0.12)">
     <use xlink:href="#DejaVuSans-43"/>
     <use xlink:href="#DejaVuSans-61" x="69.824219"/>
     <use xlink:href="#DejaVuSans-73" x="131.103516"/>
     <use xlink:href="#DejaVuSans-70" x="183.203125"/>
     <use xlink:href="#DejaVuSans-79" x="246.679688"/>
     <use xlink:href="#DejaVuSans-72" x="305.859375"/>
     <use xlink:href="#DejaVuSans-75" x="346.972656"/>
     <use xlink:href="#DejaVuSans-73" x="410.351562"/>
     <use xlink:href="#DejaVuSans-31" x="462.451172"/>
     <use xlink:href="#DejaVuSans-30" x="526.074219"/>
     <use xlink:href="#DejaVuSans-6b" x="589.697266"/>
    </g>
   </g>
  </g>
  <g id="axes_3">
   <g id="patch_48">
    <path d="M 377.673937 162.658125 
L 523.900351 162.658125 
L 523.900351 22.318125 
L 377.673937 22.318125 
z
" style="fill: #ffffff"/>
   </g>
   <g id="matplotlib.axis_5">
    <g id="xtick_21">
     <g id="text_32">
      <!-- 1 -->
      <g style="fill: #262626" transform="translate(381.485883 180.516406) scale(0.11 -0.11)">
       <use xlink:href="#DejaVuSans-31"/>
      </g>
     </g>
    </g>
    <g id="xtick_22">
     <g id="text_33">
      <!-- 2 -->
      <g style="fill: #262626" transform="translate(396.108525 180.516406) scale(0.11 -0.11)">
       <use xlink:href="#DejaVuSans-32"/>
      </g>
     </g>
    </g>
    <g id="xtick_23">
     <g id="text_34">
      <!-- 3 -->
      <g style="fill: #262626" transform="translate(410.731166 180.516406) scale(0.11 -0.11)">
       <use xlink:href="#DejaVuSans-33"/>
      </g>
     </g>
    </g>
    <g id="xtick_24">
     <g id="text_35">
      <!-- 4 -->
      <g style="fill: #262626" transform="translate(425.353807 180.516406) scale(0.11 -0.11)">
       <use xlink:href="#DejaVuSans-34"/>
      </g>
     </g>
    </g>
    <g id="xtick_25">
     <g id="text_36">
      <!-- 5 -->
      <g style="fill: #262626" transform="translate(439.976449 180.516406) scale(0.11 -0.11)">
       <use xlink:href="#DejaVuSans-35"/>
      </g>
     </g>
    </g>
    <g id="xtick_26">
     <g id="text_37">
      <!-- 6 -->
      <g style="fill: #262626" transform="translate(454.59909 180.516406) scale(0.11 -0.11)">
       <use xlink:href="#DejaVuSans-36"/>
      </g>
     </g>
    </g>
    <g id="xtick_27">
     <g id="text_38">
      <!-- 7 -->
      <g style="fill: #262626" transform="translate(469.221731 180.516406) scale(0.11 -0.11)">
       <use xlink:href="#DejaVuSans-37"/>
      </g>
     </g>
    </g>
    <g id="xtick_28">
     <g id="text_39">
      <!-- 8 -->
      <g style="fill: #262626" transform="translate(483.844373 180.516406) scale(0.11 -0.11)">
       <use xlink:href="#DejaVuSans-38"/>
      </g>
     </g>
    </g>
    <g id="xtick_29">
     <g id="text_40">
      <!-- 9 -->
      <g style="fill: #262626" transform="translate(498.467014 180.516406) scale(0.11 -0.11)">
       <use xlink:href="#DejaVuSans-39"/>
      </g>
     </g>
    </g>
    <g id="xtick_30">
     <g id="text_41">
      <!-- 10 -->
      <g style="fill: #262626" transform="translate(509.590281 180.516406) scale(0.11 -0.11)">
       <use xlink:href="#DejaVuSans-31"/>
       <use xlink:href="#DejaVuSans-30" x="63.623047"/>
      </g>
     </g>
    </g>
    <g id="text_42">
     <!-- Number of Reactions -->
     <g style="fill: #262626" transform="translate(387.901519 195.922187) scale(0.12 -0.12)">
      <use xlink:href="#DejaVuSans-4e"/>
      <use xlink:href="#DejaVuSans-75" x="74.804688"/>
      <use xlink:href="#DejaVuSans-6d" x="138.183594"/>
      <use xlink:href="#DejaVuSans-62" x="235.595703"/>
      <use xlink:href="#DejaVuSans-65" x="299.072266"/>
      <use xlink:href="#DejaVuSans-72" x="360.595703"/>
      <use xlink:href="#DejaVuSans-20" x="401.708984"/>
      <use xlink:href="#DejaVuSans-6f" x="433.496094"/>
      <use xlink:href="#DejaVuSans-66" x="494.677734"/>
      <use xlink:href="#DejaVuSans-20" x="529.882812"/>
      <use xlink:href="#DejaVuSans-52" x="561.669922"/>
      <use xlink:href="#DejaVuSans-65" x="626.652344"/>
      <use xlink:href="#DejaVuSans-61" x="688.175781"/>
      <use xlink:href="#DejaVuSans-63" x="749.455078"/>
      <use xlink:href="#DejaVuSans-74" x="804.435547"/>
      <use xlink:href="#DejaVuSans-69" x="843.644531"/>
      <use xlink:href="#DejaVuSans-6f" x="871.427734"/>
      <use xlink:href="#DejaVuSans-6e" x="932.609375"/>
      <use xlink:href="#DejaVuSans-73" x="995.988281"/>
     </g>
    </g>
   </g>
   <g id="matplotlib.axis_6">
    <g id="ytick_13"/>
    <g id="ytick_14"/>
    <g id="ytick_15"/>
    <g id="ytick_16"/>
    <g id="ytick_17"/>
    <g id="ytick_18"/>
   </g>
   <g id="patch_49">
    <path d="M 384.985258 162.658125 
L 390.834315 162.658125 
L 390.834315 41.224945 
L 384.985258 41.224945 
z
" clip-path="url(#pcf39cd0c5d)" style="fill: #ee854a; fill-opacity: 0.75; stroke: #ffffff; stroke-width: 0.42838; stroke-linejoin: miter"/>
   </g>
   <g id="patch_50">
    <path d="M 399.6079 162.658125 
L 405.456956 162.658125 
L 405.456956 51.642662 
L 399.6079 51.642662 
z
" clip-path="url(#pcf39cd0c5d)" style="fill: #ee854a; fill-opacity: 0.75; stroke: #ffffff; stroke-width: 0.42838; stroke-linejoin: miter"/>
   </g>
   <g id="patch_51">
    <path d="M 414.230541 162.658125 
L 420.079597 162.658125 
L 420.079597 40.530431 
L 414.230541 40.530431 
z
" clip-path="url(#pcf39cd0c5d)" style="fill: #ee854a; fill-opacity: 0.75; stroke: #ffffff; stroke-width: 0.42838; stroke-linejoin: miter"/>
   </g>
   <g id="patch_52">
    <path d="M 428.853182 162.658125 
L 434.702239 162.658125 
L 434.702239 63.182287 
L 428.853182 63.182287 
z
" clip-path="url(#pcf39cd0c5d)" style="fill: #ee854a; fill-opacity: 0.75; stroke: #ffffff; stroke-width: 0.42838; stroke-linejoin: miter"/>
   </g>
   <g id="patch_53">
    <path d="M 443.475824 162.658125 
L 449.32488 162.658125 
L 449.32488 79.262967 
L 443.475824 79.262967 
z
" clip-path="url(#pcf39cd0c5d)" style="fill: #ee854a; fill-opacity: 0.75; stroke: #ffffff; stroke-width: 0.42838; stroke-linejoin: miter"/>
   </g>
   <g id="patch_54">
    <path d="M 458.098465 162.658125 
L 463.947522 162.658125 
L 463.947522 101.647702 
L 458.098465 101.647702 
z
" clip-path="url(#pcf39cd0c5d)" style="fill: #ee854a; fill-opacity: 0.75; stroke: #ffffff; stroke-width: 0.42838; stroke-linejoin: miter"/>
   </g>
   <g id="patch_55">
    <path d="M 472.721106 162.658125 
L 478.570163 162.658125 
L 478.570163 108.058605 
L 472.721106 108.058605 
z
" clip-path="url(#pcf39cd0c5d)" style="fill: #ee854a; fill-opacity: 0.75; stroke: #ffffff; stroke-width: 0.42838; stroke-linejoin: miter"/>
   </g>
   <g id="patch_56">
    <path d="M 487.343748 162.658125 
L 493.192804 162.658125 
L 493.192804 114.042114 
L 487.343748 114.042114 
z
" clip-path="url(#pcf39cd0c5d)" style="fill: #ee854a; fill-opacity: 0.75; stroke: #ffffff; stroke-width: 0.42838; stroke-linejoin: miter"/>
   </g>
   <g id="patch_57">
    <path d="M 501.966389 162.658125 
L 507.815446 162.658125 
L 507.815446 116.606475 
L 501.966389 116.606475 
z
" clip-path="url(#pcf39cd0c5d)" style="fill: #ee854a; fill-opacity: 0.75; stroke: #ffffff; stroke-width: 0.42838; stroke-linejoin: miter"/>
   </g>
   <g id="patch_58">
    <path d="M 516.589031 162.658125 
L 522.438087 162.658125 
L 522.438087 140.487087 
L 516.589031 140.487087 
z
" clip-path="url(#pcf39cd0c5d)" style="fill: #ee854a; fill-opacity: 0.75; stroke: #ffffff; stroke-width: 0.42838; stroke-linejoin: miter"/>
   </g>
   <g id="patch_59">
    <path d="M 379.136202 162.658125 
L 384.985258 162.658125 
L 384.985258 151.065076 
L 379.136202 151.065076 
z
" clip-path="url(#pcf39cd0c5d)" style="fill: #4878d0; fill-opacity: 0.75; stroke: #ffffff; stroke-width: 0.42838; stroke-linejoin: miter"/>
   </g>
   <g id="patch_60">
    <path d="M 393.758843 162.658125 
L 399.6079 162.658125 
L 399.6079 127.451585 
L 393.758843 127.451585 
z
" clip-path="url(#pcf39cd0c5d)" style="fill: #4878d0; fill-opacity: 0.75; stroke: #ffffff; stroke-width: 0.42838; stroke-linejoin: miter"/>
   </g>
   <g id="patch_61">
    <path d="M 408.381484 162.658125 
L 414.230541 162.658125 
L 414.230541 102.929883 
L 408.381484 102.929883 
z
" clip-path="url(#pcf39cd0c5d)" style="fill: #4878d0; fill-opacity: 0.75; stroke: #ffffff; stroke-width: 0.42838; stroke-linejoin: miter"/>
   </g>
   <g id="patch_62">
    <path d="M 423.004126 162.658125 
L 428.853182 162.658125 
L 428.853182 100.579218 
L 423.004126 100.579218 
z
" clip-path="url(#pcf39cd0c5d)" style="fill: #4878d0; fill-opacity: 0.75; stroke: #ffffff; stroke-width: 0.42838; stroke-linejoin: miter"/>
   </g>
   <g id="patch_63">
    <path d="M 437.626767 162.658125 
L 443.475824 162.658125 
L 443.475824 94.435437 
L 437.626767 94.435437 
z
" clip-path="url(#pcf39cd0c5d)" style="fill: #4878d0; fill-opacity: 0.75; stroke: #ffffff; stroke-width: 0.42838; stroke-linejoin: miter"/>
   </g>
   <g id="patch_64">
    <path d="M 452.249409 162.658125 
L 458.098465 162.658125 
L 458.098465 91.603955 
L 452.249409 91.603955 
z
" clip-path="url(#pcf39cd0c5d)" style="fill: #4878d0; fill-opacity: 0.75; stroke: #ffffff; stroke-width: 0.42838; stroke-linejoin: miter"/>
   </g>
   <g id="patch_65">
    <path d="M 466.87205 162.658125 
L 472.721106 162.658125 
L 472.721106 91.123137 
L 466.87205 91.123137 
z
" clip-path="url(#pcf39cd0c5d)" style="fill: #4878d0; fill-opacity: 0.75; stroke: #ffffff; stroke-width: 0.42838; stroke-linejoin: miter"/>
   </g>
   <g id="patch_66">
    <path d="M 481.494691 162.658125 
L 487.343748 162.658125 
L 487.343748 85.2999 
L 481.494691 85.2999 
z
" clip-path="url(#pcf39cd0c5d)" style="fill: #4878d0; fill-opacity: 0.75; stroke: #ffffff; stroke-width: 0.42838; stroke-linejoin: miter"/>
   </g>
   <g id="patch_67">
    <path d="M 496.117333 162.658125 
L 501.966389 162.658125 
L 501.966389 73.760276 
L 496.117333 73.760276 
z
" clip-path="url(#pcf39cd0c5d)" style="fill: #4878d0; fill-opacity: 0.75; stroke: #ffffff; stroke-width: 0.42838; stroke-linejoin: miter"/>
   </g>
   <g id="patch_68">
    <path d="M 510.739974 162.658125 
L 516.589031 162.658125 
L 516.589031 74.82876 
L 510.739974 74.82876 
z
" clip-path="url(#pcf39cd0c5d)" style="fill: #4878d0; fill-opacity: 0.75; stroke: #ffffff; stroke-width: 0.42838; stroke-linejoin: miter"/>
   </g>
   <g id="patch_69">
    <path d="M 377.673937 162.658125 
L 377.673937 22.318125 
" style="fill: none; stroke: #262626; stroke-width: 1.25; stroke-linejoin: miter; stroke-linecap: square"/>
   </g>
   <g id="patch_70">
    <path d="M 377.673937 162.658125 
L 523.900351 162.658125 
" style="fill: none; stroke: #262626; stroke-width: 1.25; stroke-linejoin: miter; stroke-linecap: square"/>
   </g>
   <g id="text_43">
    <!-- Caspyrus20k -->
    <g style="fill: #262626" transform="translate(411.930582 16.318125) scale(0.12 -0.12)">
     <use xlink:href="#DejaVuSans-43"/>
     <use xlink:href="#DejaVuSans-61" x="69.824219"/>
     <use xlink:href="#DejaVuSans-73" x="131.103516"/>
     <use xlink:href="#DejaVuSans-70" x="183.203125"/>
     <use xlink:href="#DejaVuSans-79" x="246.679688"/>
     <use xlink:href="#DejaVuSans-72" x="305.859375"/>
     <use xlink:href="#DejaVuSans-75" x="346.972656"/>
     <use xlink:href="#DejaVuSans-73" x="410.351562"/>
     <use xlink:href="#DejaVuSans-32" x="462.451172"/>
     <use xlink:href="#DejaVuSans-30" x="526.074219"/>
     <use xlink:href="#DejaVuSans-6b" x="589.697266"/>
    </g>
   </g>
  </g>
  <g id="axes_4">
   <g id="patch_71">
    <path d="M 538.107937 162.658125 
L 684.334351 162.658125 
L 684.334351 22.318125 
L 538.107937 22.318125 
z
" style="fill: #ffffff"/>
   </g>
   <g id="matplotlib.axis_7">
    <g id="xtick_31">
     <g id="text_44">
      <!-- 1 -->
      <g style="fill: #262626" transform="translate(541.919883 180.516406) scale(0.11 -0.11)">
       <use xlink:href="#DejaVuSans-31"/>
      </g>
     </g>
    </g>
    <g id="xtick_32">
     <g id="text_45">
      <!-- 2 -->
      <g style="fill: #262626" transform="translate(556.542525 180.516406) scale(0.11 -0.11)">
       <use xlink:href="#DejaVuSans-32"/>
      </g>
     </g>
    </g>
    <g id="xtick_33">
     <g id="text_46">
      <!-- 3 -->
      <g style="fill: #262626" transform="translate(571.165166 180.516406) scale(0.11 -0.11)">
       <use xlink:href="#DejaVuSans-33"/>
      </g>
     </g>
    </g>
    <g id="xtick_34">
     <g id="text_47">
      <!-- 4 -->
      <g style="fill: #262626" transform="translate(585.787807 180.516406) scale(0.11 -0.11)">
       <use xlink:href="#DejaVuSans-34"/>
      </g>
     </g>
    </g>
    <g id="xtick_35">
     <g id="text_48">
      <!-- 5 -->
      <g style="fill: #262626" transform="translate(600.410449 180.516406) scale(0.11 -0.11)">
       <use xlink:href="#DejaVuSans-35"/>
      </g>
     </g>
    </g>
    <g id="xtick_36">
     <g id="text_49">
      <!-- 6 -->
      <g style="fill: #262626" transform="translate(615.03309 180.516406) scale(0.11 -0.11)">
       <use xlink:href="#DejaVuSans-36"/>
      </g>
     </g>
    </g>
    <g id="xtick_37">
     <g id="text_50">
      <!-- 7 -->
      <g style="fill: #262626" transform="translate(629.655731 180.516406) scale(0.11 -0.11)">
       <use xlink:href="#DejaVuSans-37"/>
      </g>
     </g>
    </g>
    <g id="xtick_38">
     <g id="text_51">
      <!-- 8 -->
      <g style="fill: #262626" transform="translate(644.278373 180.516406) scale(0.11 -0.11)">
       <use xlink:href="#DejaVuSans-38"/>
      </g>
     </g>
    </g>
    <g id="xtick_39">
     <g id="text_52">
      <!-- 9 -->
      <g style="fill: #262626" transform="translate(658.901014 180.516406) scale(0.11 -0.11)">
       <use xlink:href="#DejaVuSans-39"/>
      </g>
     </g>
    </g>
    <g id="xtick_40">
     <g id="text_53">
      <!-- 10 -->
      <g style="fill: #262626" transform="translate(670.024281 180.516406) scale(0.11 -0.11)">
       <use xlink:href="#DejaVuSans-31"/>
       <use xlink:href="#DejaVuSans-30" x="63.623047"/>
      </g>
     </g>
    </g>
    <g id="text_54">
     <!-- Number of Reactions -->
     <g style="fill: #262626" transform="translate(548.335519 195.922187) scale(0.12 -0.12)">
      <use xlink:href="#DejaVuSans-4e"/>
      <use xlink:href="#DejaVuSans-75" x="74.804688"/>
      <use xlink:href="#DejaVuSans-6d" x="138.183594"/>
      <use xlink:href="#DejaVuSans-62" x="235.595703"/>
      <use xlink:href="#DejaVuSans-65" x="299.072266"/>
      <use xlink:href="#DejaVuSans-72" x="360.595703"/>
      <use xlink:href="#DejaVuSans-20" x="401.708984"/>
      <use xlink:href="#DejaVuSans-6f" x="433.496094"/>
      <use xlink:href="#DejaVuSans-66" x="494.677734"/>
      <use xlink:href="#DejaVuSans-20" x="529.882812"/>
      <use xlink:href="#DejaVuSans-52" x="561.669922"/>
      <use xlink:href="#DejaVuSans-65" x="626.652344"/>
      <use xlink:href="#DejaVuSans-61" x="688.175781"/>
      <use xlink:href="#DejaVuSans-63" x="749.455078"/>
      <use xlink:href="#DejaVuSans-74" x="804.435547"/>
      <use xlink:href="#DejaVuSans-69" x="843.644531"/>
      <use xlink:href="#DejaVuSans-6f" x="871.427734"/>
      <use xlink:href="#DejaVuSans-6e" x="932.609375"/>
      <use xlink:href="#DejaVuSans-73" x="995.988281"/>
     </g>
    </g>
   </g>
   <g id="matplotlib.axis_8">
    <g id="ytick_19"/>
    <g id="ytick_20"/>
    <g id="ytick_21"/>
    <g id="ytick_22"/>
    <g id="ytick_23"/>
    <g id="ytick_24"/>
   </g>
   <g id="patch_72">
    <path d="M 545.419258 162.658125 
L 551.268315 162.658125 
L 551.268315 24.787952 
L 545.419258 24.787952 
z
" clip-path="url(#p6e73fc2087)" style="fill: #ee854a; fill-opacity: 0.75; stroke: #ffffff; stroke-width: 0.42838; stroke-linejoin: miter"/>
   </g>
   <g id="patch_73">
    <path d="M 560.0419 162.658125 
L 565.890956 162.658125 
L 565.890956 45.277258 
L 560.0419 45.277258 
z
" clip-path="url(#p6e73fc2087)" style="fill: #ee854a; fill-opacity: 0.75; stroke: #ffffff; stroke-width: 0.42838; stroke-linejoin: miter"/>
   </g>
   <g id="patch_74">
    <path d="M 574.664541 162.658125 
L 580.513597 162.658125 
L 580.513597 46.260061 
L 574.664541 46.260061 
z
" clip-path="url(#p6e73fc2087)" style="fill: #ee854a; fill-opacity: 0.75; stroke: #ffffff; stroke-width: 0.42838; stroke-linejoin: miter"/>
   </g>
   <g id="patch_75">
    <path d="M 589.287182 162.658125 
L 595.136239 162.658125 
L 595.136239 62.967713 
L 589.287182 62.967713 
z
" clip-path="url(#p6e73fc2087)" style="fill: #ee854a; fill-opacity: 0.75; stroke: #ffffff; stroke-width: 0.42838; stroke-linejoin: miter"/>
   </g>
   <g id="patch_76">
    <path d="M 603.909824 162.658125 
L 609.75888 162.658125 
L 609.75888 83.392924 
L 603.909824 83.392924 
z
" clip-path="url(#p6e73fc2087)" style="fill: #ee854a; fill-opacity: 0.75; stroke: #ffffff; stroke-width: 0.42838; stroke-linejoin: miter"/>
   </g>
   <g id="patch_77">
    <path d="M 618.532465 162.658125 
L 624.381522 162.658125 
L 624.381522 103.47629 
L 618.532465 103.47629 
z
" clip-path="url(#p6e73fc2087)" style="fill: #ee854a; fill-opacity: 0.75; stroke: #ffffff; stroke-width: 0.42838; stroke-linejoin: miter"/>
   </g>
   <g id="patch_78">
    <path d="M 633.155106 162.658125 
L 639.004163 162.658125 
L 639.004163 112.748823 
L 633.155106 112.748823 
z
" clip-path="url(#p6e73fc2087)" style="fill: #ee854a; fill-opacity: 0.75; stroke: #ffffff; stroke-width: 0.42838; stroke-linejoin: miter"/>
   </g>
   <g id="patch_79">
    <path d="M 647.777748 162.658125 
L 653.626804 162.658125 
L 653.626804 119.094312 
L 647.777748 119.094312 
z
" clip-path="url(#p6e73fc2087)" style="fill: #ee854a; fill-opacity: 0.75; stroke: #ffffff; stroke-width: 0.42838; stroke-linejoin: miter"/>
   </g>
   <g id="patch_80">
    <path d="M 662.400389 162.658125 
L 668.249446 162.658125 
L 668.249446 120.760804 
L 662.400389 120.760804 
z
" clip-path="url(#p6e73fc2087)" style="fill: #ee854a; fill-opacity: 0.75; stroke: #ffffff; stroke-width: 0.42838; stroke-linejoin: miter"/>
   </g>
   <g id="patch_81">
    <path d="M 677.023031 162.658125 
L 682.872087 162.658125 
L 682.872087 143.279813 
L 677.023031 143.279813 
z
" clip-path="url(#p6e73fc2087)" style="fill: #ee854a; fill-opacity: 0.75; stroke: #ffffff; stroke-width: 0.42838; stroke-linejoin: miter"/>
   </g>
   <g id="patch_82">
    <path d="M 539.570202 162.658125 
L 545.419258 162.658125 
L 545.419258 150.821758 
L 539.570202 150.821758 
z
" clip-path="url(#p6e73fc2087)" style="fill: #4878d0; fill-opacity: 0.75; stroke: #ffffff; stroke-width: 0.42838; stroke-linejoin: miter"/>
   </g>
   <g id="patch_83">
    <path d="M 554.192843 162.658125 
L 560.0419 162.658125 
L 560.0419 125.290244 
L 554.192843 125.290244 
z
" clip-path="url(#p6e73fc2087)" style="fill: #4878d0; fill-opacity: 0.75; stroke: #ffffff; stroke-width: 0.42838; stroke-linejoin: miter"/>
   </g>
   <g id="patch_84">
    <path d="M 568.815484 162.658125 
L 574.664541 162.658125 
L 574.664541 98.412718 
L 568.815484 98.412718 
z
" clip-path="url(#p6e73fc2087)" style="fill: #4878d0; fill-opacity: 0.75; stroke: #ffffff; stroke-width: 0.42838; stroke-linejoin: miter"/>
   </g>
   <g id="patch_85">
    <path d="M 583.438126 162.658125 
L 589.287182 162.658125 
L 589.287182 91.768115 
L 583.438126 91.768115 
z
" clip-path="url(#p6e73fc2087)" style="fill: #4878d0; fill-opacity: 0.75; stroke: #ffffff; stroke-width: 0.42838; stroke-linejoin: miter"/>
   </g>
   <g id="patch_86">
    <path d="M 598.060767 162.658125 
L 603.909824 162.658125 
L 603.909824 91.469001 
L 598.060767 91.469001 
z
" clip-path="url(#p6e73fc2087)" style="fill: #4878d0; fill-opacity: 0.75; stroke: #ffffff; stroke-width: 0.42838; stroke-linejoin: miter"/>
   </g>
   <g id="patch_87">
    <path d="M 612.683409 162.658125 
L 618.532465 162.658125 
L 618.532465 89.845239 
L 612.683409 89.845239 
z
" clip-path="url(#p6e73fc2087)" style="fill: #4878d0; fill-opacity: 0.75; stroke: #ffffff; stroke-width: 0.42838; stroke-linejoin: miter"/>
   </g>
   <g id="patch_88">
    <path d="M 627.30605 162.658125 
L 633.155106 162.658125 
L 633.155106 91.191252 
L 627.30605 91.191252 
z
" clip-path="url(#p6e73fc2087)" style="fill: #4878d0; fill-opacity: 0.75; stroke: #ffffff; stroke-width: 0.42838; stroke-linejoin: miter"/>
   </g>
   <g id="patch_89">
    <path d="M 641.928691 162.658125 
L 647.777748 162.658125 
L 647.777748 88.200113 
L 641.928691 88.200113 
z
" clip-path="url(#p6e73fc2087)" style="fill: #4878d0; fill-opacity: 0.75; stroke: #ffffff; stroke-width: 0.42838; stroke-linejoin: miter"/>
   </g>
   <g id="patch_90">
    <path d="M 656.551333 162.658125 
L 662.400389 162.658125 
L 662.400389 78.692562 
L 656.551333 78.692562 
z
" clip-path="url(#p6e73fc2087)" style="fill: #4878d0; fill-opacity: 0.75; stroke: #ffffff; stroke-width: 0.42838; stroke-linejoin: miter"/>
   </g>
   <g id="patch_91">
    <path d="M 671.173974 162.658125 
L 677.023031 162.658125 
L 677.023031 82.025546 
L 671.173974 82.025546 
z
" clip-path="url(#p6e73fc2087)" style="fill: #4878d0; fill-opacity: 0.75; stroke: #ffffff; stroke-width: 0.42838; stroke-linejoin: miter"/>
   </g>
   <g id="patch_92">
    <path d="M 538.107937 162.658125 
L 538.107937 22.318125 
" style="fill: none; stroke: #262626; stroke-width: 1.25; stroke-linejoin: miter; stroke-linecap: square"/>
   </g>
   <g id="patch_93">
    <path d="M 538.107937 162.658125 
L 684.334351 162.658125 
" style="fill: none; stroke: #262626; stroke-width: 1.25; stroke-linejoin: miter; stroke-linecap: square"/>
   </g>
   <g id="text_55">
    <!-- Caspyrus50k -->
    <g style="fill: #262626" transform="translate(572.364582 16.318125) scale(0.12 -0.12)">
     <use xlink:href="#DejaVuSans-43"/>
     <use xlink:href="#DejaVuSans-61" x="69.824219"/>
     <use xlink:href="#DejaVuSans-73" x="131.103516"/>
     <use xlink:href="#DejaVuSans-70" x="183.203125"/>
     <use xlink:href="#DejaVuSans-79" x="246.679688"/>
     <use xlink:href="#DejaVuSans-72" x="305.859375"/>
     <use xlink:href="#DejaVuSans-75" x="346.972656"/>
     <use xlink:href="#DejaVuSans-73" x="410.351562"/>
     <use xlink:href="#DejaVuSans-35" x="462.451172"/>
     <use xlink:href="#DejaVuSans-30" x="526.074219"/>
     <use xlink:href="#DejaVuSans-6b" x="589.697266"/>
    </g>
   </g>
  </g>
  <g id="axes_5">
   <g id="patch_94">
    <path d="M 698.541938 162.658125 
L 844.768351 162.658125 
L 844.768351 22.318125 
L 698.541938 22.318125 
z
" style="fill: #ffffff"/>
   </g>
   <g id="matplotlib.axis_9">
    <g id="xtick_41">
     <g id="text_56">
      <!-- 1 -->
      <g style="fill: #262626" transform="translate(702.353883 180.516406) scale(0.11 -0.11)">
       <use xlink:href="#DejaVuSans-31"/>
      </g>
     </g>
    </g>
    <g id="xtick_42">
     <g id="text_57">
      <!-- 2 -->
      <g style="fill: #262626" transform="translate(716.976525 180.516406) scale(0.11 -0.11)">
       <use xlink:href="#DejaVuSans-32"/>
      </g>
     </g>
    </g>
    <g id="xtick_43">
     <g id="text_58">
      <!-- 3 -->
      <g style="fill: #262626" transform="translate(731.599166 180.516406) scale(0.11 -0.11)">
       <use xlink:href="#DejaVuSans-33"/>
      </g>
     </g>
    </g>
    <g id="xtick_44">
     <g id="text_59">
      <!-- 4 -->
      <g style="fill: #262626" transform="translate(746.221807 180.516406) scale(0.11 -0.11)">
       <use xlink:href="#DejaVuSans-34"/>
      </g>
     </g>
    </g>
    <g id="xtick_45">
     <g id="text_60">
      <!-- 5 -->
      <g style="fill: #262626" transform="translate(760.844449 180.516406) scale(0.11 -0.11)">
       <use xlink:href="#DejaVuSans-35"/>
      </g>
     </g>
    </g>
    <g id="xtick_46">
     <g id="text_61">
      <!-- 6 -->
      <g style="fill: #262626" transform="translate(775.46709 180.516406) scale(0.11 -0.11)">
       <use xlink:href="#DejaVuSans-36"/>
      </g>
     </g>
    </g>
    <g id="xtick_47">
     <g id="text_62">
      <!-- 7 -->
      <g style="fill: #262626" transform="translate(790.089731 180.516406) scale(0.11 -0.11)">
       <use xlink:href="#DejaVuSans-37"/>
      </g>
     </g>
    </g>
    <g id="xtick_48">
     <g id="text_63">
      <!-- 8 -->
      <g style="fill: #262626" transform="translate(804.712373 180.516406) scale(0.11 -0.11)">
       <use xlink:href="#DejaVuSans-38"/>
      </g>
     </g>
    </g>
    <g id="xtick_49">
     <g id="text_64">
      <!-- 9 -->
      <g style="fill: #262626" transform="translate(819.335014 180.516406) scale(0.11 -0.11)">
       <use xlink:href="#DejaVuSans-39"/>
      </g>
     </g>
    </g>
    <g id="xtick_50">
     <g id="text_65">
      <!-- 10 -->
      <g style="fill: #262626" transform="translate(830.458281 180.516406) scale(0.11 -0.11)">
       <use xlink:href="#DejaVuSans-31"/>
       <use xlink:href="#DejaVuSans-30" x="63.623047"/>
      </g>
     </g>
    </g>
    <g id="text_66">
     <!-- Number of Reactions -->
     <g style="fill: #262626" transform="translate(708.769519 195.922187) scale(0.12 -0.12)">
      <use xlink:href="#DejaVuSans-4e"/>
      <use xlink:href="#DejaVuSans-75" x="74.804688"/>
      <use xlink:href="#DejaVuSans-6d" x="138.183594"/>
      <use xlink:href="#DejaVuSans-62" x="235.595703"/>
      <use xlink:href="#DejaVuSans-65" x="299.072266"/>
      <use xlink:href="#DejaVuSans-72" x="360.595703"/>
      <use xlink:href="#DejaVuSans-20" x="401.708984"/>
      <use xlink:href="#DejaVuSans-6f" x="433.496094"/>
      <use xlink:href="#DejaVuSans-66" x="494.677734"/>
      <use xlink:href="#DejaVuSans-20" x="529.882812"/>
      <use xlink:href="#DejaVuSans-52" x="561.669922"/>
      <use xlink:href="#DejaVuSans-65" x="626.652344"/>
      <use xlink:href="#DejaVuSans-61" x="688.175781"/>
      <use xlink:href="#DejaVuSans-63" x="749.455078"/>
      <use xlink:href="#DejaVuSans-74" x="804.435547"/>
      <use xlink:href="#DejaVuSans-69" x="843.644531"/>
      <use xlink:href="#DejaVuSans-6f" x="871.427734"/>
      <use xlink:href="#DejaVuSans-6e" x="932.609375"/>
      <use xlink:href="#DejaVuSans-73" x="995.988281"/>
     </g>
    </g>
   </g>
   <g id="matplotlib.axis_10">
    <g id="ytick_25"/>
    <g id="ytick_26"/>
    <g id="ytick_27"/>
    <g id="ytick_28"/>
    <g id="ytick_29"/>
    <g id="ytick_30"/>
   </g>
   <g id="patch_95">
    <path d="M 705.853258 162.658125 
L 711.702315 162.658125 
L 711.702315 26.72804 
L 705.853258 26.72804 
z
" clip-path="url(#pec1ef5c340)" style="fill: #ee854a; fill-opacity: 0.75; stroke: #ffffff; stroke-width: 0.42838; stroke-linejoin: miter"/>
   </g>
   <g id="patch_96">
    <path d="M 720.4759 162.658125 
L 726.324956 162.658125 
L 726.324956 49.544505 
L 720.4759 49.544505 
z
" clip-path="url(#pec1ef5c340)" style="fill: #ee854a; fill-opacity: 0.75; stroke: #ffffff; stroke-width: 0.42838; stroke-linejoin: miter"/>
   </g>
   <g id="patch_97">
    <path d="M 735.098541 162.658125 
L 740.947598 162.658125 
L 740.947598 48.016488 
L 735.098541 48.016488 
z
" clip-path="url(#pec1ef5c340)" style="fill: #ee854a; fill-opacity: 0.75; stroke: #ffffff; stroke-width: 0.42838; stroke-linejoin: miter"/>
   </g>
   <g id="patch_98">
    <path d="M 749.721182 162.658125 
L 755.570239 162.658125 
L 755.570239 68.047926 
L 749.721182 68.047926 
z
" clip-path="url(#pec1ef5c340)" style="fill: #ee854a; fill-opacity: 0.75; stroke: #ffffff; stroke-width: 0.42838; stroke-linejoin: miter"/>
   </g>
   <g id="patch_99">
    <path d="M 764.343824 162.658125 
L 770.19288 162.658125 
L 770.19288 83.89894 
L 764.343824 83.89894 
z
" clip-path="url(#pec1ef5c340)" style="fill: #ee854a; fill-opacity: 0.75; stroke: #ffffff; stroke-width: 0.42838; stroke-linejoin: miter"/>
   </g>
   <g id="patch_100">
    <path d="M 778.966465 162.658125 
L 784.815522 162.658125 
L 784.815522 99.553906 
L 778.966465 99.553906 
z
" clip-path="url(#pec1ef5c340)" style="fill: #ee854a; fill-opacity: 0.75; stroke: #ffffff; stroke-width: 0.42838; stroke-linejoin: miter"/>
   </g>
   <g id="patch_101">
    <path d="M 793.589106 162.658125 
L 799.438163 162.658125 
L 799.438163 109.465835 
L 793.589106 109.465835 
z
" clip-path="url(#pec1ef5c340)" style="fill: #ee854a; fill-opacity: 0.75; stroke: #ffffff; stroke-width: 0.42838; stroke-linejoin: miter"/>
   </g>
   <g id="patch_102">
    <path d="M 808.211748 162.658125 
L 814.060804 162.658125 
L 814.060804 116.108385 
L 808.211748 116.108385 
z
" clip-path="url(#pec1ef5c340)" style="fill: #ee854a; fill-opacity: 0.75; stroke: #ffffff; stroke-width: 0.42838; stroke-linejoin: miter"/>
   </g>
   <g id="patch_103">
    <path d="M 822.834389 162.658125 
L 828.683446 162.658125 
L 828.683446 116.304432 
L 822.834389 116.304432 
z
" clip-path="url(#pec1ef5c340)" style="fill: #ee854a; fill-opacity: 0.75; stroke: #ffffff; stroke-width: 0.42838; stroke-linejoin: miter"/>
   </g>
   <g id="patch_104">
    <path d="M 837.457031 162.658125 
L 843.306087 162.658125 
L 843.306087 140.251053 
L 837.457031 140.251053 
z
" clip-path="url(#pec1ef5c340)" style="fill: #ee854a; fill-opacity: 0.75; stroke: #ffffff; stroke-width: 0.42838; stroke-linejoin: miter"/>
   </g>
   <g id="patch_105">
    <path d="M 700.004202 162.658125 
L 705.853258 162.658125 
L 705.853258 145.469375 
L 700.004202 145.469375 
z
" clip-path="url(#pec1ef5c340)" style="fill: #4878d0; fill-opacity: 0.75; stroke: #ffffff; stroke-width: 0.42838; stroke-linejoin: miter"/>
   </g>
   <g id="patch_106">
    <path d="M 714.626843 162.658125 
L 720.4759 162.658125 
L 720.4759 127.352283 
L 714.626843 127.352283 
z
" clip-path="url(#pec1ef5c340)" style="fill: #4878d0; fill-opacity: 0.75; stroke: #ffffff; stroke-width: 0.42838; stroke-linejoin: miter"/>
   </g>
   <g id="patch_107">
    <path d="M 729.249484 162.658125 
L 735.098541 162.658125 
L 735.098541 103.388364 
L 729.249484 103.388364 
z
" clip-path="url(#pec1ef5c340)" style="fill: #4878d0; fill-opacity: 0.75; stroke: #ffffff; stroke-width: 0.42838; stroke-linejoin: miter"/>
   </g>
   <g id="patch_108">
    <path d="M 743.872126 162.658125 
L 749.721182 162.658125 
L 749.721182 96.59013 
L 743.872126 96.59013 
z
" clip-path="url(#pec1ef5c340)" style="fill: #4878d0; fill-opacity: 0.75; stroke: #ffffff; stroke-width: 0.42838; stroke-linejoin: miter"/>
   </g>
   <g id="patch_109">
    <path d="M 758.494767 162.658125 
L 764.343824 162.658125 
L 764.343824 92.548092 
L 758.494767 92.548092 
z
" clip-path="url(#pec1ef5c340)" style="fill: #4878d0; fill-opacity: 0.75; stroke: #ffffff; stroke-width: 0.42838; stroke-linejoin: miter"/>
   </g>
   <g id="patch_110">
    <path d="M 773.117409 162.658125 
L 778.966465 162.658125 
L 778.966465 91.181526 
L 773.117409 91.181526 
z
" clip-path="url(#pec1ef5c340)" style="fill: #4878d0; fill-opacity: 0.75; stroke: #ffffff; stroke-width: 0.42838; stroke-linejoin: miter"/>
   </g>
   <g id="patch_111">
    <path d="M 787.74005 162.658125 
L 793.589106 162.658125 
L 793.589106 90.57032 
L 787.74005 90.57032 
z
" clip-path="url(#pec1ef5c340)" style="fill: #4878d0; fill-opacity: 0.75; stroke: #ffffff; stroke-width: 0.42838; stroke-linejoin: miter"/>
   </g>
   <g id="patch_112">
    <path d="M 802.362691 162.658125 
L 808.211748 162.658125 
L 808.211748 85.784455 
L 802.362691 85.784455 
z
" clip-path="url(#pec1ef5c340)" style="fill: #4878d0; fill-opacity: 0.75; stroke: #ffffff; stroke-width: 0.42838; stroke-linejoin: miter"/>
   </g>
   <g id="patch_113">
    <path d="M 816.985333 162.658125 
L 822.834389 162.658125 
L 822.834389 76.137767 
L 816.985333 76.137767 
z
" clip-path="url(#pec1ef5c340)" style="fill: #4878d0; fill-opacity: 0.75; stroke: #ffffff; stroke-width: 0.42838; stroke-linejoin: miter"/>
   </g>
   <g id="patch_114">
    <path d="M 831.607974 162.658125 
L 837.457031 162.658125 
L 837.457031 82.820679 
L 831.607974 82.820679 
z
" clip-path="url(#pec1ef5c340)" style="fill: #4878d0; fill-opacity: 0.75; stroke: #ffffff; stroke-width: 0.42838; stroke-linejoin: miter"/>
   </g>
   <g id="patch_115">
    <path d="M 698.541938 162.658125 
L 698.541938 22.318125 
" style="fill: none; stroke: #262626; stroke-width: 1.25; stroke-linejoin: miter; stroke-linecap: square"/>
   </g>
   <g id="patch_116">
    <path d="M 698.541938 162.658125 
L 844.768351 162.658125 
" style="fill: none; stroke: #262626; stroke-width: 1.25; stroke-linejoin: miter; stroke-linecap: square"/>
   </g>
   <g id="text_67">
    <!-- ChEMBL200k -->
    <g style="fill: #262626" transform="translate(732.308269 16.318125) scale(0.12 -0.12)">
     <defs>
      <path id="DejaVuSans-68" d="M 3513 2113 
L 3513 0 
L 2938 0 
L 2938 2094 
Q 2938 2591 2744 2837 
Q 2550 3084 2163 3084 
Q 1697 3084 1428 2787 
Q 1159 2491 1159 1978 
L 1159 0 
L 581 0 
L 581 4863 
L 1159 4863 
L 1159 2956 
Q 1366 3272 1645 3428 
Q 1925 3584 2291 3584 
Q 2894 3584 3203 3211 
Q 3513 2838 3513 2113 
z
" transform="scale(0.015625)"/>
      <path id="DejaVuSans-45" d="M 628 4666 
L 3578 4666 
L 3578 4134 
L 1259 4134 
L 1259 2753 
L 3481 2753 
L 3481 2222 
L 1259 2222 
L 1259 531 
L 3634 531 
L 3634 0 
L 628 0 
L 628 4666 
z
" transform="scale(0.015625)"/>
      <path id="DejaVuSans-4d" d="M 628 4666 
L 1569 4666 
L 2759 1491 
L 3956 4666 
L 4897 4666 
L 4897 0 
L 4281 0 
L 4281 4097 
L 3078 897 
L 2444 897 
L 1241 4097 
L 1241 0 
L 628 0 
L 628 4666 
z
" transform="scale(0.015625)"/>
      <path id="DejaVuSans-42" d="M 1259 2228 
L 1259 519 
L 2272 519 
Q 2781 519 3026 730 
Q 3272 941 3272 1375 
Q 3272 1813 3026 2020 
Q 2781 2228 2272 2228 
L 1259 2228 
z
M 1259 4147 
L 1259 2741 
L 2194 2741 
Q 2656 2741 2882 2914 
Q 3109 3088 3109 3444 
Q 3109 3797 2882 3972 
Q 2656 4147 2194 4147 
L 1259 4147 
z
M 628 4666 
L 2241 4666 
Q 2963 4666 3353 4366 
Q 3744 4066 3744 3513 
Q 3744 3084 3544 2831 
Q 3344 2578 2956 2516 
Q 3422 2416 3680 2098 
Q 3938 1781 3938 1306 
Q 3938 681 3513 340 
Q 3088 0 2303 0 
L 628 0 
L 628 4666 
z
" transform="scale(0.015625)"/>
      <path id="DejaVuSans-4c" d="M 628 4666 
L 1259 4666 
L 1259 531 
L 3531 531 
L 3531 0 
L 628 0 
L 628 4666 
z
" transform="scale(0.015625)"/>
     </defs>
     <use xlink:href="#DejaVuSans-43"/>
     <use xlink:href="#DejaVuSans-68" x="69.824219"/>
     <use xlink:href="#DejaVuSans-45" x="133.203125"/>
     <use xlink:href="#DejaVuSans-4d" x="196.386719"/>
     <use xlink:href="#DejaVuSans-42" x="282.666016"/>
     <use xlink:href="#DejaVuSans-4c" x="351.269531"/>
     <use xlink:href="#DejaVuSans-32" x="406.982422"/>
     <use xlink:href="#DejaVuSans-30" x="470.605469"/>
     <use xlink:href="#DejaVuSans-30" x="534.228516"/>
     <use xlink:href="#DejaVuSans-6b" x="597.851562"/>
    </g>
   </g>
  </g>
  <g id="legend_1">
   <g id="patch_117">
    <path d="M 842.074063 129.070937 
L 937.675938 129.070937 
Q 939.875938 129.070937 939.875938 126.870937 
L 939.875938 78.565312 
Q 939.875938 76.365312 937.675938 76.365312 
L 842.074063 76.365312 
Q 839.874063 76.365312 839.874063 78.565312 
L 839.874063 126.870937 
Q 839.874063 129.070937 842.074063 129.070937 
z
" style="fill: #ffffff; opacity: 0.8"/>
   </g>
   <g id="text_68">
    <!-- Building Blocks -->
    <g style="fill: #262626" transform="translate(844.274063 89.883437) scale(0.12 -0.12)">
     <defs>
      <path id="DejaVuSans-6c" d="M 603 4863 
L 1178 4863 
L 1178 0 
L 603 0 
L 603 4863 
z
" transform="scale(0.015625)"/>
      <path id="DejaVuSans-64" d="M 2906 2969 
L 2906 4863 
L 3481 4863 
L 3481 0 
L 2906 0 
L 2906 525 
Q 2725 213 2448 61 
Q 2172 -91 1784 -91 
Q 1150 -91 751 415 
Q 353 922 353 1747 
Q 353 2572 751 3078 
Q 1150 3584 1784 3584 
Q 2172 3584 2448 3432 
Q 2725 3281 2906 2969 
z
M 947 1747 
Q 947 1113 1208 752 
Q 1469 391 1925 391 
Q 2381 391 2643 752 
Q 2906 1113 2906 1747 
Q 2906 2381 2643 2742 
Q 2381 3103 1925 3103 
Q 1469 3103 1208 2742 
Q 947 2381 947 1747 
z
" transform="scale(0.015625)"/>
      <path id="DejaVuSans-67" d="M 2906 1791 
Q 2906 2416 2648 2759 
Q 2391 3103 1925 3103 
Q 1463 3103 1205 2759 
Q 947 2416 947 1791 
Q 947 1169 1205 825 
Q 1463 481 1925 481 
Q 2391 481 2648 825 
Q 2906 1169 2906 1791 
z
M 3481 434 
Q 3481 -459 3084 -895 
Q 2688 -1331 1869 -1331 
Q 1566 -1331 1297 -1286 
Q 1028 -1241 775 -1147 
L 775 -588 
Q 1028 -725 1275 -790 
Q 1522 -856 1778 -856 
Q 2344 -856 2625 -561 
Q 2906 -266 2906 331 
L 2906 616 
Q 2728 306 2450 153 
Q 2172 0 1784 0 
Q 1141 0 747 490 
Q 353 981 353 1791 
Q 353 2603 747 3093 
Q 1141 3584 1784 3584 
Q 2172 3584 2450 3431 
Q 2728 3278 2906 2969 
L 2906 3500 
L 3481 3500 
L 3481 434 
z
" transform="scale(0.015625)"/>
     </defs>
     <use xlink:href="#DejaVuSans-42"/>
     <use xlink:href="#DejaVuSans-75" x="68.603516"/>
     <use xlink:href="#DejaVuSans-69" x="131.982422"/>
     <use xlink:href="#DejaVuSans-6c" x="159.765625"/>
     <use xlink:href="#DejaVuSans-64" x="187.548828"/>
     <use xlink:href="#DejaVuSans-69" x="251.025391"/>
     <use xlink:href="#DejaVuSans-6e" x="278.808594"/>
     <use xlink:href="#DejaVuSans-67" x="342.1875"/>
     <use xlink:href="#DejaVuSans-20" x="405.664062"/>
     <use xlink:href="#DejaVuSans-42" x="437.451172"/>
     <use xlink:href="#DejaVuSans-6c" x="506.054688"/>
     <use xlink:href="#DejaVuSans-6f" x="533.837891"/>
     <use xlink:href="#DejaVuSans-63" x="595.019531"/>
     <use xlink:href="#DejaVuSans-6b" x="650"/>
     <use xlink:href="#DejaVuSans-73" x="707.910156"/>
    </g>
   </g>
   <g id="patch_118">
    <path d="M 861.131484 106.237344 
L 883.131484 106.237344 
L 883.131484 98.537344 
L 861.131484 98.537344 
z
" style="fill: #4878d0; stroke: #797979; stroke-linejoin: miter"/>
   </g>
   <g id="text_69">
    <!-- Led3 -->
    <g style="fill: #262626" transform="translate(891.931484 106.237344) scale(0.11 -0.11)">
     <use xlink:href="#DejaVuSans-4c"/>
     <use xlink:href="#DejaVuSans-65" x="53.962891"/>
     <use xlink:href="#DejaVuSans-64" x="115.486328"/>
     <use xlink:href="#DejaVuSans-33" x="178.962891"/>
    </g>
   </g>
   <g id="patch_119">
    <path d="M 861.131484 122.383281 
L 883.131484 122.383281 
L 883.131484 114.683281 
L 861.131484 114.683281 
z
" style="fill: #ee854a; stroke: #797979; stroke-linejoin: miter"/>
   </g>
   <g id="text_70">
    <!-- Zinc -->
    <g style="fill: #262626" transform="translate(891.931484 122.383281) scale(0.11 -0.11)">
     <defs>
      <path id="DejaVuSans-5a" d="M 359 4666 
L 4025 4666 
L 4025 4184 
L 1075 531 
L 4097 531 
L 4097 0 
L 288 0 
L 288 481 
L 3238 4134 
L 359 4134 
L 359 4666 
z
" transform="scale(0.015625)"/>
     </defs>
     <use xlink:href="#DejaVuSans-5a"/>
     <use xlink:href="#DejaVuSans-69" x="68.505859"/>
     <use xlink:href="#DejaVuSans-6e" x="96.289062"/>
     <use xlink:href="#DejaVuSans-63" x="159.667969"/>
    </g>
   </g>
  </g>
 </g>
 <defs>
  <clipPath id="pdafea60994">
   <rect x="56.805938" y="22.318125" width="146.226414" height="140.34"/>
  </clipPath>
  <clipPath id="pa4dd9508aa">
   <rect x="217.239937" y="22.318125" width="146.226414" height="140.34"/>
  </clipPath>
  <clipPath id="pcf39cd0c5d">
   <rect x="377.673937" y="22.318125" width="146.226414" height="140.34"/>
  </clipPath>
  <clipPath id="p6e73fc2087">
   <rect x="538.107937" y="22.318125" width="146.226414" height="140.34"/>
  </clipPath>
  <clipPath id="pec1ef5c340">
   <rect x="698.541938" y="22.318125" width="146.226414" height="140.34"/>
  </clipPath>
 </defs>
</svg>
