<?xml version="1.0" encoding="utf-8" standalone="no"?>
<!DOCTYPE svg PUBLIC "-//W3C//DTD SVG 1.1//EN"
  "http://www.w3.org/Graphics/SVG/1.1/DTD/svg11.dtd">
<svg xmlns:xlink="http://www.w3.org/1999/xlink" width="974.351269pt" height="522pt" viewBox="0 0 974.351269 522" xmlns="http://www.w3.org/2000/svg" version="1.1">
 <metadata>
  <rdf:RDF xmlns:dc="http://purl.org/dc/elements/1.1/" xmlns:cc="http://creativecommons.org/ns#" xmlns:rdf="http://www.w3.org/1999/02/22-rdf-syntax-ns#">
   <cc:Work>
    <dc:type rdf:resource="http://purl.org/dc/dcmitype/StillImage"/>
    <dc:date>2023-06-16T16:02:49.849165</dc:date>
    <dc:format>image/svg+xml</dc:format>
    <dc:creator>
     <cc:Agent>
      <dc:title>Matplotlib v3.5.1, https://matplotlib.org/</dc:title>
     </cc:Agent>
    </dc:creator>
   </cc:Work>
  </rdf:RDF>
 </metadata>
 <defs>
  <style type="text/css">*{stroke-linejoin: round; stroke-linecap: butt}</style>
 </defs>
 <g id="figure_1">
  <g id="patch_1">
   <path d="M 0 522 
L 974.351269 522 
L 974.351269 0 
L 0 0 
z
" style="fill: #ffffff"/>
  </g>
  <g id="axes_1">
   <g id="patch_2">
    <path d="M 67.3075 410.43375 
L 412.755013 410.43375 
L 412.755013 57.76 
L 67.3075 57.76 
z
" style="fill: #ffffff"/>
   </g>
   <g id="matplotlib.axis_1">
    <g id="xtick_1">
     <g id="text_1">
      <!-- QSAR Only -->
      <g style="fill: #262626" transform="translate(80.57866 459.313742)rotate(-45)scale(0.09 -0.09)">
       <defs>
        <path id="DejaVuSans-51" d="M 2522 4238 
Q 1834 4238 1429 3725 
Q 1025 3213 1025 2328 
Q 1025 1447 1429 934 
Q 1834 422 2522 422 
Q 3209 422 3611 934 
Q 4013 1447 4013 2328 
Q 4013 3213 3611 3725 
Q 3209 4238 2522 4238 
z
M 3406 84 
L 4238 -825 
L 3475 -825 
L 2784 -78 
Q 2681 -84 2626 -87 
Q 2572 -91 2522 -91 
Q 1538 -91 948 567 
Q 359 1225 359 2328 
Q 359 3434 948 4092 
Q 1538 4750 2522 4750 
Q 3503 4750 4090 4092 
Q 4678 3434 4678 2328 
Q 4678 1516 4351 937 
Q 4025 359 3406 84 
z
" transform="scale(0.015625)"/>
        <path id="DejaVuSans-53" d="M 3425 4513 
L 3425 3897 
Q 3066 4069 2747 4153 
Q 2428 4238 2131 4238 
Q 1616 4238 1336 4038 
Q 1056 3838 1056 3469 
Q 1056 3159 1242 3001 
Q 1428 2844 1947 2747 
L 2328 2669 
Q 3034 2534 3370 2195 
Q 3706 1856 3706 1288 
Q 3706 609 3251 259 
Q 2797 -91 1919 -91 
Q 1588 -91 1214 -16 
Q 841 59 441 206 
L 441 856 
Q 825 641 1194 531 
Q 1563 422 1919 422 
Q 2459 422 2753 634 
Q 3047 847 3047 1241 
Q 3047 1584 2836 1778 
Q 2625 1972 2144 2069 
L 1759 2144 
Q 1053 2284 737 2584 
Q 422 2884 422 3419 
Q 422 4038 858 4394 
Q 1294 4750 2059 4750 
Q 2388 4750 2728 4690 
Q 3069 4631 3425 4513 
z
" transform="scale(0.015625)"/>
        <path id="DejaVuSans-41" d="M 2188 4044 
L 1331 1722 
L 3047 1722 
L 2188 4044 
z
M 1831 4666 
L 2547 4666 
L 4325 0 
L 3669 0 
L 3244 1197 
L 1141 1197 
L 716 0 
L 50 0 
L 1831 4666 
z
" transform="scale(0.015625)"/>
        <path id="DejaVuSans-52" d="M 2841 2188 
Q 3044 2119 3236 1894 
Q 3428 1669 3622 1275 
L 4263 0 
L 3584 0 
L 2988 1197 
Q 2756 1666 2539 1819 
Q 2322 1972 1947 1972 
L 1259 1972 
L 1259 0 
L 628 0 
L 628 4666 
L 2053 4666 
Q 2853 4666 3247 4331 
Q 3641 3997 3641 3322 
Q 3641 2881 3436 2590 
Q 3231 2300 2841 2188 
z
M 1259 4147 
L 1259 2491 
L 2053 2491 
Q 2509 2491 2742 2702 
Q 2975 2913 2975 3322 
Q 2975 3731 2742 3939 
Q 2509 4147 2053 4147 
L 1259 4147 
z
" transform="scale(0.015625)"/>
        <path id="DejaVuSans-20" transform="scale(0.015625)"/>
        <path id="DejaVuSans-4f" d="M 2522 4238 
Q 1834 4238 1429 3725 
Q 1025 3213 1025 2328 
Q 1025 1447 1429 934 
Q 1834 422 2522 422 
Q 3209 422 3611 934 
Q 4013 1447 4013 2328 
Q 4013 3213 3611 3725 
Q 3209 4238 2522 4238 
z
M 2522 4750 
Q 3503 4750 4090 4092 
Q 4678 3434 4678 2328 
Q 4678 1225 4090 567 
Q 3503 -91 2522 -91 
Q 1538 -91 948 565 
Q 359 1222 359 2328 
Q 359 3434 948 4092 
Q 1538 4750 2522 4750 
z
" transform="scale(0.015625)"/>
        <path id="DejaVuSans-6e" d="M 3513 2113 
L 3513 0 
L 2938 0 
L 2938 2094 
Q 2938 2591 2744 2837 
Q 2550 3084 2163 3084 
Q 1697 3084 1428 2787 
Q 1159 2491 1159 1978 
L 1159 0 
L 581 0 
L 581 3500 
L 1159 3500 
L 1159 2956 
Q 1366 3272 1645 3428 
Q 1925 3584 2291 3584 
Q 2894 3584 3203 3211 
Q 3513 2838 3513 2113 
z
" transform="scale(0.015625)"/>
        <path id="DejaVuSans-6c" d="M 603 4863 
L 1178 4863 
L 1178 0 
L 603 0 
L 603 4863 
z
" transform="scale(0.015625)"/>
        <path id="DejaVuSans-79" d="M 2059 -325 
Q 1816 -950 1584 -1140 
Q 1353 -1331 966 -1331 
L 506 -1331 
L 506 -850 
L 844 -850 
Q 1081 -850 1212 -737 
Q 1344 -625 1503 -206 
L 1606 56 
L 191 3500 
L 800 3500 
L 1894 763 
L 2988 3500 
L 3597 3500 
L 2059 -325 
z
" transform="scale(0.015625)"/>
       </defs>
       <use xlink:href="#DejaVuSans-51"/>
       <use xlink:href="#DejaVuSans-53" x="78.710938"/>
       <use xlink:href="#DejaVuSans-41" x="144.0625"/>
       <use xlink:href="#DejaVuSans-52" x="212.470703"/>
       <use xlink:href="#DejaVuSans-20" x="281.953125"/>
       <use xlink:href="#DejaVuSans-4f" x="313.740234"/>
       <use xlink:href="#DejaVuSans-6e" x="392.451172"/>
       <use xlink:href="#DejaVuSans-6c" x="455.830078"/>
       <use xlink:href="#DejaVuSans-79" x="483.613281"/>
      </g>
     </g>
    </g>
    <g id="xtick_2">
     <g id="text_2">
      <!-- SaScore -->
      <g style="fill: #262626" transform="translate(142.544379 450.531476)rotate(-45)scale(0.09 -0.09)">
       <defs>
        <path id="DejaVuSans-61" d="M 2194 1759 
Q 1497 1759 1228 1600 
Q 959 1441 959 1056 
Q 959 750 1161 570 
Q 1363 391 1709 391 
Q 2188 391 2477 730 
Q 2766 1069 2766 1631 
L 2766 1759 
L 2194 1759 
z
M 3341 1997 
L 3341 0 
L 2766 0 
L 2766 531 
Q 2569 213 2275 61 
Q 1981 -91 1556 -91 
Q 1019 -91 701 211 
Q 384 513 384 1019 
Q 384 1609 779 1909 
Q 1175 2209 1959 2209 
L 2766 2209 
L 2766 2266 
Q 2766 2663 2505 2880 
Q 2244 3097 1772 3097 
Q 1472 3097 1187 3025 
Q 903 2953 641 2809 
L 641 3341 
Q 956 3463 1253 3523 
Q 1550 3584 1831 3584 
Q 2591 3584 2966 3190 
Q 3341 2797 3341 1997 
z
" transform="scale(0.015625)"/>
        <path id="DejaVuSans-63" d="M 3122 3366 
L 3122 2828 
Q 2878 2963 2633 3030 
Q 2388 3097 2138 3097 
Q 1578 3097 1268 2742 
Q 959 2388 959 1747 
Q 959 1106 1268 751 
Q 1578 397 2138 397 
Q 2388 397 2633 464 
Q 2878 531 3122 666 
L 3122 134 
Q 2881 22 2623 -34 
Q 2366 -91 2075 -91 
Q 1284 -91 818 406 
Q 353 903 353 1747 
Q 353 2603 823 3093 
Q 1294 3584 2113 3584 
Q 2378 3584 2631 3529 
Q 2884 3475 3122 3366 
z
" transform="scale(0.015625)"/>
        <path id="DejaVuSans-6f" d="M 1959 3097 
Q 1497 3097 1228 2736 
Q 959 2375 959 1747 
Q 959 1119 1226 758 
Q 1494 397 1959 397 
Q 2419 397 2687 759 
Q 2956 1122 2956 1747 
Q 2956 2369 2687 2733 
Q 2419 3097 1959 3097 
z
M 1959 3584 
Q 2709 3584 3137 3096 
Q 3566 2609 3566 1747 
Q 3566 888 3137 398 
Q 2709 -91 1959 -91 
Q 1206 -91 779 398 
Q 353 888 353 1747 
Q 353 2609 779 3096 
Q 1206 3584 1959 3584 
z
" transform="scale(0.015625)"/>
        <path id="DejaVuSans-72" d="M 2631 2963 
Q 2534 3019 2420 3045 
Q 2306 3072 2169 3072 
Q 1681 3072 1420 2755 
Q 1159 2438 1159 1844 
L 1159 0 
L 581 0 
L 581 3500 
L 1159 3500 
L 1159 2956 
Q 1341 3275 1631 3429 
Q 1922 3584 2338 3584 
Q 2397 3584 2469 3576 
Q 2541 3569 2628 3553 
L 2631 2963 
z
" transform="scale(0.015625)"/>
        <path id="DejaVuSans-65" d="M 3597 1894 
L 3597 1613 
L 953 1613 
Q 991 1019 1311 708 
Q 1631 397 2203 397 
Q 2534 397 2845 478 
Q 3156 559 3463 722 
L 3463 178 
Q 3153 47 2828 -22 
Q 2503 -91 2169 -91 
Q 1331 -91 842 396 
Q 353 884 353 1716 
Q 353 2575 817 3079 
Q 1281 3584 2069 3584 
Q 2775 3584 3186 3129 
Q 3597 2675 3597 1894 
z
M 3022 2063 
Q 3016 2534 2758 2815 
Q 2500 3097 2075 3097 
Q 1594 3097 1305 2825 
Q 1016 2553 972 2059 
L 3022 2063 
z
" transform="scale(0.015625)"/>
       </defs>
       <use xlink:href="#DejaVuSans-53"/>
       <use xlink:href="#DejaVuSans-61" x="63.476562"/>
       <use xlink:href="#DejaVuSans-53" x="124.755859"/>
       <use xlink:href="#DejaVuSans-63" x="188.232422"/>
       <use xlink:href="#DejaVuSans-6f" x="243.212891"/>
       <use xlink:href="#DejaVuSans-72" x="304.394531"/>
       <use xlink:href="#DejaVuSans-65" x="343.257812"/>
      </g>
     </g>
    </g>
    <g id="xtick_3">
     <g id="text_3">
      <!-- Led3_Caspyrus10k -->
      <g style="fill: #262626" transform="translate(182.993943 484.604521)rotate(-45)scale(0.09 -0.09)">
       <defs>
        <path id="DejaVuSans-4c" d="M 628 4666 
L 1259 4666 
L 1259 531 
L 3531 531 
L 3531 0 
L 628 0 
L 628 4666 
z
" transform="scale(0.015625)"/>
        <path id="DejaVuSans-64" d="M 2906 2969 
L 2906 4863 
L 3481 4863 
L 3481 0 
L 2906 0 
L 2906 525 
Q 2725 213 2448 61 
Q 2172 -91 1784 -91 
Q 1150 -91 751 415 
Q 353 922 353 1747 
Q 353 2572 751 3078 
Q 1150 3584 1784 3584 
Q 2172 3584 2448 3432 
Q 2725 3281 2906 2969 
z
M 947 1747 
Q 947 1113 1208 752 
Q 1469 391 1925 391 
Q 2381 391 2643 752 
Q 2906 1113 2906 1747 
Q 2906 2381 2643 2742 
Q 2381 3103 1925 3103 
Q 1469 3103 1208 2742 
Q 947 2381 947 1747 
z
" transform="scale(0.015625)"/>
        <path id="DejaVuSans-33" d="M 2597 2516 
Q 3050 2419 3304 2112 
Q 3559 1806 3559 1356 
Q 3559 666 3084 287 
Q 2609 -91 1734 -91 
Q 1441 -91 1130 -33 
Q 819 25 488 141 
L 488 750 
Q 750 597 1062 519 
Q 1375 441 1716 441 
Q 2309 441 2620 675 
Q 2931 909 2931 1356 
Q 2931 1769 2642 2001 
Q 2353 2234 1838 2234 
L 1294 2234 
L 1294 2753 
L 1863 2753 
Q 2328 2753 2575 2939 
Q 2822 3125 2822 3475 
Q 2822 3834 2567 4026 
Q 2313 4219 1838 4219 
Q 1578 4219 1281 4162 
Q 984 4106 628 3988 
L 628 4550 
Q 988 4650 1302 4700 
Q 1616 4750 1894 4750 
Q 2613 4750 3031 4423 
Q 3450 4097 3450 3541 
Q 3450 3153 3228 2886 
Q 3006 2619 2597 2516 
z
" transform="scale(0.015625)"/>
        <path id="DejaVuSans-5f" d="M 3263 -1063 
L 3263 -1509 
L -63 -1509 
L -63 -1063 
L 3263 -1063 
z
" transform="scale(0.015625)"/>
        <path id="DejaVuSans-43" d="M 4122 4306 
L 4122 3641 
Q 3803 3938 3442 4084 
Q 3081 4231 2675 4231 
Q 1875 4231 1450 3742 
Q 1025 3253 1025 2328 
Q 1025 1406 1450 917 
Q 1875 428 2675 428 
Q 3081 428 3442 575 
Q 3803 722 4122 1019 
L 4122 359 
Q 3791 134 3420 21 
Q 3050 -91 2638 -91 
Q 1578 -91 968 557 
Q 359 1206 359 2328 
Q 359 3453 968 4101 
Q 1578 4750 2638 4750 
Q 3056 4750 3426 4639 
Q 3797 4528 4122 4306 
z
" transform="scale(0.015625)"/>
        <path id="DejaVuSans-73" d="M 2834 3397 
L 2834 2853 
Q 2591 2978 2328 3040 
Q 2066 3103 1784 3103 
Q 1356 3103 1142 2972 
Q 928 2841 928 2578 
Q 928 2378 1081 2264 
Q 1234 2150 1697 2047 
L 1894 2003 
Q 2506 1872 2764 1633 
Q 3022 1394 3022 966 
Q 3022 478 2636 193 
Q 2250 -91 1575 -91 
Q 1294 -91 989 -36 
Q 684 19 347 128 
L 347 722 
Q 666 556 975 473 
Q 1284 391 1588 391 
Q 1994 391 2212 530 
Q 2431 669 2431 922 
Q 2431 1156 2273 1281 
Q 2116 1406 1581 1522 
L 1381 1569 
Q 847 1681 609 1914 
Q 372 2147 372 2553 
Q 372 3047 722 3315 
Q 1072 3584 1716 3584 
Q 2034 3584 2315 3537 
Q 2597 3491 2834 3397 
z
" transform="scale(0.015625)"/>
        <path id="DejaVuSans-70" d="M 1159 525 
L 1159 -1331 
L 581 -1331 
L 581 3500 
L 1159 3500 
L 1159 2969 
Q 1341 3281 1617 3432 
Q 1894 3584 2278 3584 
Q 2916 3584 3314 3078 
Q 3713 2572 3713 1747 
Q 3713 922 3314 415 
Q 2916 -91 2278 -91 
Q 1894 -91 1617 61 
Q 1341 213 1159 525 
z
M 3116 1747 
Q 3116 2381 2855 2742 
Q 2594 3103 2138 3103 
Q 1681 3103 1420 2742 
Q 1159 2381 1159 1747 
Q 1159 1113 1420 752 
Q 1681 391 2138 391 
Q 2594 391 2855 752 
Q 3116 1113 3116 1747 
z
" transform="scale(0.015625)"/>
        <path id="DejaVuSans-75" d="M 544 1381 
L 544 3500 
L 1119 3500 
L 1119 1403 
Q 1119 906 1312 657 
Q 1506 409 1894 409 
Q 2359 409 2629 706 
Q 2900 1003 2900 1516 
L 2900 3500 
L 3475 3500 
L 3475 0 
L 2900 0 
L 2900 538 
Q 2691 219 2414 64 
Q 2138 -91 1772 -91 
Q 1169 -91 856 284 
Q 544 659 544 1381 
z
M 1991 3584 
L 1991 3584 
z
" transform="scale(0.015625)"/>
        <path id="DejaVuSans-31" d="M 794 531 
L 1825 531 
L 1825 4091 
L 703 3866 
L 703 4441 
L 1819 4666 
L 2450 4666 
L 2450 531 
L 3481 531 
L 3481 0 
L 794 0 
L 794 531 
z
" transform="scale(0.015625)"/>
        <path id="DejaVuSans-30" d="M 2034 4250 
Q 1547 4250 1301 3770 
Q 1056 3291 1056 2328 
Q 1056 1369 1301 889 
Q 1547 409 2034 409 
Q 2525 409 2770 889 
Q 3016 1369 3016 2328 
Q 3016 3291 2770 3770 
Q 2525 4250 2034 4250 
z
M 2034 4750 
Q 2819 4750 3233 4129 
Q 3647 3509 3647 2328 
Q 3647 1150 3233 529 
Q 2819 -91 2034 -91 
Q 1250 -91 836 529 
Q 422 1150 422 2328 
Q 422 3509 836 4129 
Q 1250 4750 2034 4750 
z
" transform="scale(0.015625)"/>
        <path id="DejaVuSans-6b" d="M 581 4863 
L 1159 4863 
L 1159 1991 
L 2875 3500 
L 3609 3500 
L 1753 1863 
L 3688 0 
L 2938 0 
L 1159 1709 
L 1159 0 
L 581 0 
L 581 4863 
z
" transform="scale(0.015625)"/>
       </defs>
       <use xlink:href="#DejaVuSans-4c"/>
       <use xlink:href="#DejaVuSans-65" x="53.962891"/>
       <use xlink:href="#DejaVuSans-64" x="115.486328"/>
       <use xlink:href="#DejaVuSans-33" x="178.962891"/>
       <use xlink:href="#DejaVuSans-5f" x="242.585938"/>
       <use xlink:href="#DejaVuSans-43" x="292.585938"/>
       <use xlink:href="#DejaVuSans-61" x="362.410156"/>
       <use xlink:href="#DejaVuSans-73" x="423.689453"/>
       <use xlink:href="#DejaVuSans-70" x="475.789062"/>
       <use xlink:href="#DejaVuSans-79" x="539.265625"/>
       <use xlink:href="#DejaVuSans-72" x="598.445312"/>
       <use xlink:href="#DejaVuSans-75" x="639.558594"/>
       <use xlink:href="#DejaVuSans-73" x="702.9375"/>
       <use xlink:href="#DejaVuSans-31" x="755.037109"/>
       <use xlink:href="#DejaVuSans-30" x="818.660156"/>
       <use xlink:href="#DejaVuSans-6b" x="882.283203"/>
      </g>
     </g>
    </g>
    <g id="xtick_4">
     <g id="text_4">
      <!-- Led3_ChEBML200k -->
      <g style="fill: #262626" transform="translate(240.308501 485.124576)rotate(-45)scale(0.09 -0.09)">
       <defs>
        <path id="DejaVuSans-68" d="M 3513 2113 
L 3513 0 
L 2938 0 
L 2938 2094 
Q 2938 2591 2744 2837 
Q 2550 3084 2163 3084 
Q 1697 3084 1428 2787 
Q 1159 2491 1159 1978 
L 1159 0 
L 581 0 
L 581 4863 
L 1159 4863 
L 1159 2956 
Q 1366 3272 1645 3428 
Q 1925 3584 2291 3584 
Q 2894 3584 3203 3211 
Q 3513 2838 3513 2113 
z
" transform="scale(0.015625)"/>
        <path id="DejaVuSans-45" d="M 628 4666 
L 3578 4666 
L 3578 4134 
L 1259 4134 
L 1259 2753 
L 3481 2753 
L 3481 2222 
L 1259 2222 
L 1259 531 
L 3634 531 
L 3634 0 
L 628 0 
L 628 4666 
z
" transform="scale(0.015625)"/>
        <path id="DejaVuSans-42" d="M 1259 2228 
L 1259 519 
L 2272 519 
Q 2781 519 3026 730 
Q 3272 941 3272 1375 
Q 3272 1813 3026 2020 
Q 2781 2228 2272 2228 
L 1259 2228 
z
M 1259 4147 
L 1259 2741 
L 2194 2741 
Q 2656 2741 2882 2914 
Q 3109 3088 3109 3444 
Q 3109 3797 2882 3972 
Q 2656 4147 2194 4147 
L 1259 4147 
z
M 628 4666 
L 2241 4666 
Q 2963 4666 3353 4366 
Q 3744 4066 3744 3513 
Q 3744 3084 3544 2831 
Q 3344 2578 2956 2516 
Q 3422 2416 3680 2098 
Q 3938 1781 3938 1306 
Q 3938 681 3513 340 
Q 3088 0 2303 0 
L 628 0 
L 628 4666 
z
" transform="scale(0.015625)"/>
        <path id="DejaVuSans-4d" d="M 628 4666 
L 1569 4666 
L 2759 1491 
L 3956 4666 
L 4897 4666 
L 4897 0 
L 4281 0 
L 4281 4097 
L 3078 897 
L 2444 897 
L 1241 4097 
L 1241 0 
L 628 0 
L 628 4666 
z
" transform="scale(0.015625)"/>
        <path id="DejaVuSans-32" d="M 1228 531 
L 3431 531 
L 3431 0 
L 469 0 
L 469 531 
Q 828 903 1448 1529 
Q 2069 2156 2228 2338 
Q 2531 2678 2651 2914 
Q 2772 3150 2772 3378 
Q 2772 3750 2511 3984 
Q 2250 4219 1831 4219 
Q 1534 4219 1204 4116 
Q 875 4013 500 3803 
L 500 4441 
Q 881 4594 1212 4672 
Q 1544 4750 1819 4750 
Q 2544 4750 2975 4387 
Q 3406 4025 3406 3419 
Q 3406 3131 3298 2873 
Q 3191 2616 2906 2266 
Q 2828 2175 2409 1742 
Q 1991 1309 1228 531 
z
" transform="scale(0.015625)"/>
       </defs>
       <use xlink:href="#DejaVuSans-4c"/>
       <use xlink:href="#DejaVuSans-65" x="53.962891"/>
       <use xlink:href="#DejaVuSans-64" x="115.486328"/>
       <use xlink:href="#DejaVuSans-33" x="178.962891"/>
       <use xlink:href="#DejaVuSans-5f" x="242.585938"/>
       <use xlink:href="#DejaVuSans-43" x="292.585938"/>
       <use xlink:href="#DejaVuSans-68" x="362.410156"/>
       <use xlink:href="#DejaVuSans-45" x="425.789062"/>
       <use xlink:href="#DejaVuSans-42" x="488.972656"/>
       <use xlink:href="#DejaVuSans-4d" x="557.576172"/>
       <use xlink:href="#DejaVuSans-4c" x="643.855469"/>
       <use xlink:href="#DejaVuSans-32" x="699.568359"/>
       <use xlink:href="#DejaVuSans-30" x="763.191406"/>
       <use xlink:href="#DejaVuSans-30" x="826.814453"/>
       <use xlink:href="#DejaVuSans-6b" x="890.4375"/>
      </g>
     </g>
    </g>
    <g id="xtick_5">
     <g id="text_5">
      <!-- Zinc_Caspyrus10k -->
      <g style="fill: #262626" transform="translate(299.033074 482.824601)rotate(-45)scale(0.09 -0.09)">
       <defs>
        <path id="DejaVuSans-5a" d="M 359 4666 
L 4025 4666 
L 4025 4184 
L 1075 531 
L 4097 531 
L 4097 0 
L 288 0 
L 288 481 
L 3238 4134 
L 359 4134 
L 359 4666 
z
" transform="scale(0.015625)"/>
        <path id="DejaVuSans-69" d="M 603 3500 
L 1178 3500 
L 1178 0 
L 603 0 
L 603 3500 
z
M 603 4863 
L 1178 4863 
L 1178 4134 
L 603 4134 
L 603 4863 
z
" transform="scale(0.015625)"/>
       </defs>
       <use xlink:href="#DejaVuSans-5a"/>
       <use xlink:href="#DejaVuSans-69" x="68.505859"/>
       <use xlink:href="#DejaVuSans-6e" x="96.289062"/>
       <use xlink:href="#DejaVuSans-63" x="159.667969"/>
       <use xlink:href="#DejaVuSans-5f" x="214.648438"/>
       <use xlink:href="#DejaVuSans-43" x="264.648438"/>
       <use xlink:href="#DejaVuSans-61" x="334.472656"/>
       <use xlink:href="#DejaVuSans-73" x="395.751953"/>
       <use xlink:href="#DejaVuSans-70" x="447.851562"/>
       <use xlink:href="#DejaVuSans-79" x="511.328125"/>
       <use xlink:href="#DejaVuSans-72" x="570.507812"/>
       <use xlink:href="#DejaVuSans-75" x="611.621094"/>
       <use xlink:href="#DejaVuSans-73" x="675"/>
       <use xlink:href="#DejaVuSans-31" x="727.099609"/>
       <use xlink:href="#DejaVuSans-30" x="790.722656"/>
       <use xlink:href="#DejaVuSans-6b" x="854.345703"/>
      </g>
     </g>
    </g>
    <g id="xtick_6">
     <g id="text_6">
      <!-- Zinc_ChEBML200k -->
      <g style="fill: #262626" transform="translate(356.347632 483.344655)rotate(-45)scale(0.09 -0.09)">
       <use xlink:href="#DejaVuSans-5a"/>
       <use xlink:href="#DejaVuSans-69" x="68.505859"/>
       <use xlink:href="#DejaVuSans-6e" x="96.289062"/>
       <use xlink:href="#DejaVuSans-63" x="159.667969"/>
       <use xlink:href="#DejaVuSans-5f" x="214.648438"/>
       <use xlink:href="#DejaVuSans-43" x="264.648438"/>
       <use xlink:href="#DejaVuSans-68" x="334.472656"/>
       <use xlink:href="#DejaVuSans-45" x="397.851562"/>
       <use xlink:href="#DejaVuSans-42" x="461.035156"/>
       <use xlink:href="#DejaVuSans-4d" x="529.638672"/>
       <use xlink:href="#DejaVuSans-4c" x="615.917969"/>
       <use xlink:href="#DejaVuSans-32" x="671.630859"/>
       <use xlink:href="#DejaVuSans-30" x="735.253906"/>
       <use xlink:href="#DejaVuSans-30" x="798.876953"/>
       <use xlink:href="#DejaVuSans-6b" x="862.5"/>
      </g>
     </g>
    </g>
   </g>
   <g id="matplotlib.axis_2">
    <g id="ytick_1">
     <g id="text_7">
      <!-- 0 -->
      <g style="fill: #262626" transform="translate(50.80875 414.612891)scale(0.11 -0.11)">
       <use xlink:href="#DejaVuSans-30"/>
      </g>
     </g>
    </g>
    <g id="ytick_2">
     <g id="text_8">
      <!-- 10000 -->
      <g style="fill: #262626" transform="translate(22.81375 364.230926)scale(0.11 -0.11)">
       <use xlink:href="#DejaVuSans-31"/>
       <use xlink:href="#DejaVuSans-30" x="63.623047"/>
       <use xlink:href="#DejaVuSans-30" x="127.246094"/>
       <use xlink:href="#DejaVuSans-30" x="190.869141"/>
       <use xlink:href="#DejaVuSans-30" x="254.492188"/>
      </g>
     </g>
    </g>
    <g id="ytick_3">
     <g id="text_9">
      <!-- 20000 -->
      <g style="fill: #262626" transform="translate(22.81375 313.848962)scale(0.11 -0.11)">
       <use xlink:href="#DejaVuSans-32"/>
       <use xlink:href="#DejaVuSans-30" x="63.623047"/>
       <use xlink:href="#DejaVuSans-30" x="127.246094"/>
       <use xlink:href="#DejaVuSans-30" x="190.869141"/>
       <use xlink:href="#DejaVuSans-30" x="254.492188"/>
      </g>
     </g>
    </g>
    <g id="ytick_4">
     <g id="text_10">
      <!-- 30000 -->
      <g style="fill: #262626" transform="translate(22.81375 263.466998)scale(0.11 -0.11)">
       <use xlink:href="#DejaVuSans-33"/>
       <use xlink:href="#DejaVuSans-30" x="63.623047"/>
       <use xlink:href="#DejaVuSans-30" x="127.246094"/>
       <use xlink:href="#DejaVuSans-30" x="190.869141"/>
       <use xlink:href="#DejaVuSans-30" x="254.492188"/>
      </g>
     </g>
    </g>
    <g id="ytick_5">
     <g id="text_11">
      <!-- 40000 -->
      <g style="fill: #262626" transform="translate(22.81375 213.085033)scale(0.11 -0.11)">
       <defs>
        <path id="DejaVuSans-34" d="M 2419 4116 
L 825 1625 
L 2419 1625 
L 2419 4116 
z
M 2253 4666 
L 3047 4666 
L 3047 1625 
L 3713 1625 
L 3713 1100 
L 3047 1100 
L 3047 0 
L 2419 0 
L 2419 1100 
L 313 1100 
L 313 1709 
L 2253 4666 
z
" transform="scale(0.015625)"/>
       </defs>
       <use xlink:href="#DejaVuSans-34"/>
       <use xlink:href="#DejaVuSans-30" x="63.623047"/>
       <use xlink:href="#DejaVuSans-30" x="127.246094"/>
       <use xlink:href="#DejaVuSans-30" x="190.869141"/>
       <use xlink:href="#DejaVuSans-30" x="254.492188"/>
      </g>
     </g>
    </g>
    <g id="ytick_6">
     <g id="text_12">
      <!-- 50000 -->
      <g style="fill: #262626" transform="translate(22.81375 162.703069)scale(0.11 -0.11)">
       <defs>
        <path id="DejaVuSans-35" d="M 691 4666 
L 3169 4666 
L 3169 4134 
L 1269 4134 
L 1269 2991 
Q 1406 3038 1543 3061 
Q 1681 3084 1819 3084 
Q 2600 3084 3056 2656 
Q 3513 2228 3513 1497 
Q 3513 744 3044 326 
Q 2575 -91 1722 -91 
Q 1428 -91 1123 -41 
Q 819 9 494 109 
L 494 744 
Q 775 591 1075 516 
Q 1375 441 1709 441 
Q 2250 441 2565 725 
Q 2881 1009 2881 1497 
Q 2881 1984 2565 2268 
Q 2250 2553 1709 2553 
Q 1456 2553 1204 2497 
Q 953 2441 691 2322 
L 691 4666 
z
" transform="scale(0.015625)"/>
       </defs>
       <use xlink:href="#DejaVuSans-35"/>
       <use xlink:href="#DejaVuSans-30" x="63.623047"/>
       <use xlink:href="#DejaVuSans-30" x="127.246094"/>
       <use xlink:href="#DejaVuSans-30" x="190.869141"/>
       <use xlink:href="#DejaVuSans-30" x="254.492188"/>
      </g>
     </g>
    </g>
    <g id="ytick_7">
     <g id="text_13">
      <!-- 60000 -->
      <g style="fill: #262626" transform="translate(22.81375 112.321105)scale(0.11 -0.11)">
       <defs>
        <path id="DejaVuSans-36" d="M 2113 2584 
Q 1688 2584 1439 2293 
Q 1191 2003 1191 1497 
Q 1191 994 1439 701 
Q 1688 409 2113 409 
Q 2538 409 2786 701 
Q 3034 994 3034 1497 
Q 3034 2003 2786 2293 
Q 2538 2584 2113 2584 
z
M 3366 4563 
L 3366 3988 
Q 3128 4100 2886 4159 
Q 2644 4219 2406 4219 
Q 1781 4219 1451 3797 
Q 1122 3375 1075 2522 
Q 1259 2794 1537 2939 
Q 1816 3084 2150 3084 
Q 2853 3084 3261 2657 
Q 3669 2231 3669 1497 
Q 3669 778 3244 343 
Q 2819 -91 2113 -91 
Q 1303 -91 875 529 
Q 447 1150 447 2328 
Q 447 3434 972 4092 
Q 1497 4750 2381 4750 
Q 2619 4750 2861 4703 
Q 3103 4656 3366 4563 
z
" transform="scale(0.015625)"/>
       </defs>
       <use xlink:href="#DejaVuSans-36"/>
       <use xlink:href="#DejaVuSans-30" x="63.623047"/>
       <use xlink:href="#DejaVuSans-30" x="127.246094"/>
       <use xlink:href="#DejaVuSans-30" x="190.869141"/>
       <use xlink:href="#DejaVuSans-30" x="254.492188"/>
      </g>
     </g>
    </g>
    <g id="ytick_8">
     <g id="text_14">
      <!-- 70000 -->
      <g style="fill: #262626" transform="translate(22.81375 61.939141)scale(0.11 -0.11)">
       <defs>
        <path id="DejaVuSans-37" d="M 525 4666 
L 3525 4666 
L 3525 4397 
L 1831 0 
L 1172 0 
L 2766 4134 
L 525 4134 
L 525 4666 
z
" transform="scale(0.015625)"/>
       </defs>
       <use xlink:href="#DejaVuSans-37"/>
       <use xlink:href="#DejaVuSans-30" x="63.623047"/>
       <use xlink:href="#DejaVuSans-30" x="127.246094"/>
       <use xlink:href="#DejaVuSans-30" x="190.869141"/>
       <use xlink:href="#DejaVuSans-30" x="254.492188"/>
      </g>
     </g>
    </g>
    <g id="text_15">
     <!-- # Molecules -->
     <g style="fill: #262626" transform="translate(16.318125 270.824375)rotate(-90)scale(0.12 -0.12)">
      <defs>
       <path id="DejaVuSans-23" d="M 3272 2816 
L 2363 2816 
L 2100 1772 
L 3016 1772 
L 3272 2816 
z
M 2803 4594 
L 2478 3297 
L 3391 3297 
L 3719 4594 
L 4219 4594 
L 3897 3297 
L 4872 3297 
L 4872 2816 
L 3775 2816 
L 3519 1772 
L 4513 1772 
L 4513 1294 
L 3397 1294 
L 3072 0 
L 2572 0 
L 2894 1294 
L 1978 1294 
L 1656 0 
L 1153 0 
L 1478 1294 
L 494 1294 
L 494 1772 
L 1594 1772 
L 1856 2816 
L 850 2816 
L 850 3297 
L 1978 3297 
L 2297 4594 
L 2803 4594 
z
" transform="scale(0.015625)"/>
      </defs>
      <use xlink:href="#DejaVuSans-23"/>
      <use xlink:href="#DejaVuSans-20" x="83.789062"/>
      <use xlink:href="#DejaVuSans-4d" x="115.576172"/>
      <use xlink:href="#DejaVuSans-6f" x="201.855469"/>
      <use xlink:href="#DejaVuSans-6c" x="263.037109"/>
      <use xlink:href="#DejaVuSans-65" x="290.820312"/>
      <use xlink:href="#DejaVuSans-63" x="352.34375"/>
      <use xlink:href="#DejaVuSans-75" x="407.324219"/>
      <use xlink:href="#DejaVuSans-6c" x="470.703125"/>
      <use xlink:href="#DejaVuSans-65" x="498.486328"/>
      <use xlink:href="#DejaVuSans-73" x="560.009766"/>
     </g>
    </g>
   </g>
   <g id="patch_3">
    <path d="M 73.064959 410.43375 
L 96.094793 410.43375 
L 96.094793 403.037678 
L 73.064959 403.037678 
z
" clip-path="url(#pa110971174)" style="fill: #75bf71; stroke: #ffffff; stroke-linejoin: miter"/>
   </g>
   <g id="patch_4">
    <path d="M 130.639544 410.43375 
L 153.669378 410.43375 
L 153.669378 117.956371 
L 130.639544 117.956371 
z
" clip-path="url(#pa110971174)" style="fill: #75bf71; stroke: #ffffff; stroke-linejoin: miter"/>
   </g>
   <g id="patch_5">
    <path d="M 188.214129 410.43375 
L 211.243964 410.43375 
L 211.243964 230.585252 
L 188.214129 230.585252 
z
" clip-path="url(#pa110971174)" style="fill: #75bf71; stroke: #ffffff; stroke-linejoin: miter"/>
   </g>
   <g id="patch_6">
    <path d="M 245.788715 410.43375 
L 268.818549 410.43375 
L 268.818549 256.013029 
L 245.788715 256.013029 
z
" clip-path="url(#pa110971174)" style="fill: #75bf71; stroke: #ffffff; stroke-linejoin: miter"/>
   </g>
   <g id="patch_7">
    <path d="M 303.3633 410.43375 
L 326.393135 410.43375 
L 326.393135 233.582979 
L 303.3633 233.582979 
z
" clip-path="url(#pa110971174)" style="fill: #75bf71; stroke: #ffffff; stroke-linejoin: miter"/>
   </g>
   <g id="patch_8">
    <path d="M 360.937886 410.43375 
L 383.96772 410.43375 
L 383.96772 190.491285 
L 360.937886 190.491285 
z
" clip-path="url(#pa110971174)" style="fill: #75bf71; stroke: #ffffff; stroke-linejoin: miter"/>
   </g>
   <g id="patch_9">
    <path d="M 96.094793 410.43375 
L 119.124627 410.43375 
L 119.124627 406.594644 
L 96.094793 406.594644 
z
" clip-path="url(#pa110971174)" style="fill: #1e6525; stroke: #ffffff; stroke-linejoin: miter"/>
   </g>
   <g id="patch_10">
    <path d="M 153.669378 410.43375 
L 176.699212 410.43375 
L 176.699212 398.105283 
L 153.669378 398.105283 
z
" clip-path="url(#pa110971174)" style="fill: #1e6525; stroke: #ffffff; stroke-linejoin: miter"/>
   </g>
   <g id="patch_11">
    <path d="M 211.243964 410.43375 
L 234.273798 410.43375 
L 234.273798 284.257159 
L 211.243964 284.257159 
z
" clip-path="url(#pa110971174)" style="fill: #1e6525; stroke: #ffffff; stroke-linejoin: miter"/>
   </g>
   <g id="patch_12">
    <path d="M 268.818549 410.43375 
L 291.848383 410.43375 
L 291.848383 298.575713 
L 268.818549 298.575713 
z
" clip-path="url(#pa110971174)" style="fill: #1e6525; stroke: #ffffff; stroke-linejoin: miter"/>
   </g>
   <g id="patch_13">
    <path d="M 326.393135 410.43375 
L 349.422969 410.43375 
L 349.422969 284.922201 
L 326.393135 284.922201 
z
" clip-path="url(#pa110971174)" style="fill: #1e6525; stroke: #ffffff; stroke-linejoin: miter"/>
   </g>
   <g id="patch_14">
    <path d="M 383.96772 410.43375 
L 406.997554 410.43375 
L 406.997554 288.967872 
L 383.96772 288.967872 
z
" clip-path="url(#pa110971174)" style="fill: #1e6525; stroke: #ffffff; stroke-linejoin: miter"/>
   </g>
   <g id="line2d_1">
    <path clip-path="url(#pa110971174)" style="fill: none; stroke: #424242; stroke-width: 2.7; stroke-linecap: round"/>
   </g>
   <g id="line2d_2">
    <path clip-path="url(#pa110971174)" style="fill: none; stroke: #424242; stroke-width: 2.7; stroke-linecap: round"/>
   </g>
   <g id="line2d_3">
    <path clip-path="url(#pa110971174)" style="fill: none; stroke: #424242; stroke-width: 2.7; stroke-linecap: round"/>
   </g>
   <g id="line2d_4">
    <path clip-path="url(#pa110971174)" style="fill: none; stroke: #424242; stroke-width: 2.7; stroke-linecap: round"/>
   </g>
   <g id="line2d_5">
    <path clip-path="url(#pa110971174)" style="fill: none; stroke: #424242; stroke-width: 2.7; stroke-linecap: round"/>
   </g>
   <g id="line2d_6">
    <path clip-path="url(#pa110971174)" style="fill: none; stroke: #424242; stroke-width: 2.7; stroke-linecap: round"/>
   </g>
   <g id="line2d_7">
    <path clip-path="url(#pa110971174)" style="fill: none; stroke: #424242; stroke-width: 2.7; stroke-linecap: round"/>
   </g>
   <g id="line2d_8">
    <path clip-path="url(#pa110971174)" style="fill: none; stroke: #424242; stroke-width: 2.7; stroke-linecap: round"/>
   </g>
   <g id="line2d_9">
    <path clip-path="url(#pa110971174)" style="fill: none; stroke: #424242; stroke-width: 2.7; stroke-linecap: round"/>
   </g>
   <g id="line2d_10">
    <path clip-path="url(#pa110971174)" style="fill: none; stroke: #424242; stroke-width: 2.7; stroke-linecap: round"/>
   </g>
   <g id="line2d_11">
    <path clip-path="url(#pa110971174)" style="fill: none; stroke: #424242; stroke-width: 2.7; stroke-linecap: round"/>
   </g>
   <g id="line2d_12">
    <path clip-path="url(#pa110971174)" style="fill: none; stroke: #424242; stroke-width: 2.7; stroke-linecap: round"/>
   </g>
   <g id="patch_15">
    <path d="M 67.3075 410.43375 
L 67.3075 57.76 
" style="fill: none; stroke: #262626; stroke-width: 1.25; stroke-linejoin: miter; stroke-linecap: square"/>
   </g>
   <g id="patch_16">
    <path d="M 67.3075 410.43375 
L 412.755013 410.43375 
" style="fill: none; stroke: #262626; stroke-width: 1.25; stroke-linejoin: miter; stroke-linecap: square"/>
   </g>
   <g id="text_16">
    <!-- Building Blocks = Led3 -->
    <g style="fill: #262626" transform="translate(171.032194 51.76)scale(0.12 -0.12)">
     <defs>
      <path id="DejaVuSans-67" d="M 2906 1791 
Q 2906 2416 2648 2759 
Q 2391 3103 1925 3103 
Q 1463 3103 1205 2759 
Q 947 2416 947 1791 
Q 947 1169 1205 825 
Q 1463 481 1925 481 
Q 2391 481 2648 825 
Q 2906 1169 2906 1791 
z
M 3481 434 
Q 3481 -459 3084 -895 
Q 2688 -1331 1869 -1331 
Q 1566 -1331 1297 -1286 
Q 1028 -1241 775 -1147 
L 775 -588 
Q 1028 -725 1275 -790 
Q 1522 -856 1778 -856 
Q 2344 -856 2625 -561 
Q 2906 -266 2906 331 
L 2906 616 
Q 2728 306 2450 153 
Q 2172 0 1784 0 
Q 1141 0 747 490 
Q 353 981 353 1791 
Q 353 2603 747 3093 
Q 1141 3584 1784 3584 
Q 2172 3584 2450 3431 
Q 2728 3278 2906 2969 
L 2906 3500 
L 3481 3500 
L 3481 434 
z
" transform="scale(0.015625)"/>
      <path id="DejaVuSans-3d" d="M 678 2906 
L 4684 2906 
L 4684 2381 
L 678 2381 
L 678 2906 
z
M 678 1631 
L 4684 1631 
L 4684 1100 
L 678 1100 
L 678 1631 
z
" transform="scale(0.015625)"/>
     </defs>
     <use xlink:href="#DejaVuSans-42"/>
     <use xlink:href="#DejaVuSans-75" x="68.603516"/>
     <use xlink:href="#DejaVuSans-69" x="131.982422"/>
     <use xlink:href="#DejaVuSans-6c" x="159.765625"/>
     <use xlink:href="#DejaVuSans-64" x="187.548828"/>
     <use xlink:href="#DejaVuSans-69" x="251.025391"/>
     <use xlink:href="#DejaVuSans-6e" x="278.808594"/>
     <use xlink:href="#DejaVuSans-67" x="342.1875"/>
     <use xlink:href="#DejaVuSans-20" x="405.664062"/>
     <use xlink:href="#DejaVuSans-42" x="437.451172"/>
     <use xlink:href="#DejaVuSans-6c" x="506.054688"/>
     <use xlink:href="#DejaVuSans-6f" x="533.837891"/>
     <use xlink:href="#DejaVuSans-63" x="595.019531"/>
     <use xlink:href="#DejaVuSans-6b" x="650"/>
     <use xlink:href="#DejaVuSans-73" x="707.910156"/>
     <use xlink:href="#DejaVuSans-20" x="760.009766"/>
     <use xlink:href="#DejaVuSans-3d" x="791.796875"/>
     <use xlink:href="#DejaVuSans-20" x="875.585938"/>
     <use xlink:href="#DejaVuSans-4c" x="907.373047"/>
     <use xlink:href="#DejaVuSans-65" x="961.335938"/>
     <use xlink:href="#DejaVuSans-64" x="1022.859375"/>
     <use xlink:href="#DejaVuSans-33" x="1086.335938"/>
    </g>
   </g>
  </g>
  <g id="axes_2">
   <g id="patch_17">
    <path d="M 490.571506 410.43375 
L 836.019019 410.43375 
L 836.019019 57.76 
L 490.571506 57.76 
z
" style="fill: #ffffff"/>
   </g>
   <g id="matplotlib.axis_3">
    <g id="xtick_7">
     <g id="text_17">
      <!-- QSAR Only -->
      <g style="fill: #262626" transform="translate(503.842667 459.313742)rotate(-45)scale(0.09 -0.09)">
       <use xlink:href="#DejaVuSans-51"/>
       <use xlink:href="#DejaVuSans-53" x="78.710938"/>
       <use xlink:href="#DejaVuSans-41" x="144.0625"/>
       <use xlink:href="#DejaVuSans-52" x="212.470703"/>
       <use xlink:href="#DejaVuSans-20" x="281.953125"/>
       <use xlink:href="#DejaVuSans-4f" x="313.740234"/>
       <use xlink:href="#DejaVuSans-6e" x="392.451172"/>
       <use xlink:href="#DejaVuSans-6c" x="455.830078"/>
       <use xlink:href="#DejaVuSans-79" x="483.613281"/>
      </g>
     </g>
    </g>
    <g id="xtick_8">
     <g id="text_18">
      <!-- SaScore -->
      <g style="fill: #262626" transform="translate(565.808385 450.531476)rotate(-45)scale(0.09 -0.09)">
       <use xlink:href="#DejaVuSans-53"/>
       <use xlink:href="#DejaVuSans-61" x="63.476562"/>
       <use xlink:href="#DejaVuSans-53" x="124.755859"/>
       <use xlink:href="#DejaVuSans-63" x="188.232422"/>
       <use xlink:href="#DejaVuSans-6f" x="243.212891"/>
       <use xlink:href="#DejaVuSans-72" x="304.394531"/>
       <use xlink:href="#DejaVuSans-65" x="343.257812"/>
      </g>
     </g>
    </g>
    <g id="xtick_9">
     <g id="text_19">
      <!-- Led3_Caspyrus10k -->
      <g style="fill: #262626" transform="translate(606.257949 484.604521)rotate(-45)scale(0.09 -0.09)">
       <use xlink:href="#DejaVuSans-4c"/>
       <use xlink:href="#DejaVuSans-65" x="53.962891"/>
       <use xlink:href="#DejaVuSans-64" x="115.486328"/>
       <use xlink:href="#DejaVuSans-33" x="178.962891"/>
       <use xlink:href="#DejaVuSans-5f" x="242.585938"/>
       <use xlink:href="#DejaVuSans-43" x="292.585938"/>
       <use xlink:href="#DejaVuSans-61" x="362.410156"/>
       <use xlink:href="#DejaVuSans-73" x="423.689453"/>
       <use xlink:href="#DejaVuSans-70" x="475.789062"/>
       <use xlink:href="#DejaVuSans-79" x="539.265625"/>
       <use xlink:href="#DejaVuSans-72" x="598.445312"/>
       <use xlink:href="#DejaVuSans-75" x="639.558594"/>
       <use xlink:href="#DejaVuSans-73" x="702.9375"/>
       <use xlink:href="#DejaVuSans-31" x="755.037109"/>
       <use xlink:href="#DejaVuSans-30" x="818.660156"/>
       <use xlink:href="#DejaVuSans-6b" x="882.283203"/>
      </g>
     </g>
    </g>
    <g id="xtick_10">
     <g id="text_20">
      <!-- Led3_ChEBML200k -->
      <g style="fill: #262626" transform="translate(663.572507 485.124576)rotate(-45)scale(0.09 -0.09)">
       <use xlink:href="#DejaVuSans-4c"/>
       <use xlink:href="#DejaVuSans-65" x="53.962891"/>
       <use xlink:href="#DejaVuSans-64" x="115.486328"/>
       <use xlink:href="#DejaVuSans-33" x="178.962891"/>
       <use xlink:href="#DejaVuSans-5f" x="242.585938"/>
       <use xlink:href="#DejaVuSans-43" x="292.585938"/>
       <use xlink:href="#DejaVuSans-68" x="362.410156"/>
       <use xlink:href="#DejaVuSans-45" x="425.789062"/>
       <use xlink:href="#DejaVuSans-42" x="488.972656"/>
       <use xlink:href="#DejaVuSans-4d" x="557.576172"/>
       <use xlink:href="#DejaVuSans-4c" x="643.855469"/>
       <use xlink:href="#DejaVuSans-32" x="699.568359"/>
       <use xlink:href="#DejaVuSans-30" x="763.191406"/>
       <use xlink:href="#DejaVuSans-30" x="826.814453"/>
       <use xlink:href="#DejaVuSans-6b" x="890.4375"/>
      </g>
     </g>
    </g>
    <g id="xtick_11">
     <g id="text_21">
      <!-- Zinc_Caspyrus10k -->
      <g style="fill: #262626" transform="translate(722.29708 482.824601)rotate(-45)scale(0.09 -0.09)">
       <use xlink:href="#DejaVuSans-5a"/>
       <use xlink:href="#DejaVuSans-69" x="68.505859"/>
       <use xlink:href="#DejaVuSans-6e" x="96.289062"/>
       <use xlink:href="#DejaVuSans-63" x="159.667969"/>
       <use xlink:href="#DejaVuSans-5f" x="214.648438"/>
       <use xlink:href="#DejaVuSans-43" x="264.648438"/>
       <use xlink:href="#DejaVuSans-61" x="334.472656"/>
       <use xlink:href="#DejaVuSans-73" x="395.751953"/>
       <use xlink:href="#DejaVuSans-70" x="447.851562"/>
       <use xlink:href="#DejaVuSans-79" x="511.328125"/>
       <use xlink:href="#DejaVuSans-72" x="570.507812"/>
       <use xlink:href="#DejaVuSans-75" x="611.621094"/>
       <use xlink:href="#DejaVuSans-73" x="675"/>
       <use xlink:href="#DejaVuSans-31" x="727.099609"/>
       <use xlink:href="#DejaVuSans-30" x="790.722656"/>
       <use xlink:href="#DejaVuSans-6b" x="854.345703"/>
      </g>
     </g>
    </g>
    <g id="xtick_12">
     <g id="text_22">
      <!-- Zinc_ChEBML200k -->
      <g style="fill: #262626" transform="translate(779.611638 483.344655)rotate(-45)scale(0.09 -0.09)">
       <use xlink:href="#DejaVuSans-5a"/>
       <use xlink:href="#DejaVuSans-69" x="68.505859"/>
       <use xlink:href="#DejaVuSans-6e" x="96.289062"/>
       <use xlink:href="#DejaVuSans-63" x="159.667969"/>
       <use xlink:href="#DejaVuSans-5f" x="214.648438"/>
       <use xlink:href="#DejaVuSans-43" x="264.648438"/>
       <use xlink:href="#DejaVuSans-68" x="334.472656"/>
       <use xlink:href="#DejaVuSans-45" x="397.851562"/>
       <use xlink:href="#DejaVuSans-42" x="461.035156"/>
       <use xlink:href="#DejaVuSans-4d" x="529.638672"/>
       <use xlink:href="#DejaVuSans-4c" x="615.917969"/>
       <use xlink:href="#DejaVuSans-32" x="671.630859"/>
       <use xlink:href="#DejaVuSans-30" x="735.253906"/>
       <use xlink:href="#DejaVuSans-30" x="798.876953"/>
       <use xlink:href="#DejaVuSans-6b" x="862.5"/>
      </g>
     </g>
    </g>
   </g>
   <g id="matplotlib.axis_4">
    <g id="ytick_9">
     <g id="text_23">
      <!-- 0 -->
      <g style="fill: #262626" transform="translate(474.072756 414.612891)scale(0.11 -0.11)">
       <use xlink:href="#DejaVuSans-30"/>
      </g>
     </g>
    </g>
    <g id="ytick_10">
     <g id="text_24">
      <!-- 10000 -->
      <g style="fill: #262626" transform="translate(446.077756 364.230926)scale(0.11 -0.11)">
       <use xlink:href="#DejaVuSans-31"/>
       <use xlink:href="#DejaVuSans-30" x="63.623047"/>
       <use xlink:href="#DejaVuSans-30" x="127.246094"/>
       <use xlink:href="#DejaVuSans-30" x="190.869141"/>
       <use xlink:href="#DejaVuSans-30" x="254.492188"/>
      </g>
     </g>
    </g>
    <g id="ytick_11">
     <g id="text_25">
      <!-- 20000 -->
      <g style="fill: #262626" transform="translate(446.077756 313.848962)scale(0.11 -0.11)">
       <use xlink:href="#DejaVuSans-32"/>
       <use xlink:href="#DejaVuSans-30" x="63.623047"/>
       <use xlink:href="#DejaVuSans-30" x="127.246094"/>
       <use xlink:href="#DejaVuSans-30" x="190.869141"/>
       <use xlink:href="#DejaVuSans-30" x="254.492188"/>
      </g>
     </g>
    </g>
    <g id="ytick_12">
     <g id="text_26">
      <!-- 30000 -->
      <g style="fill: #262626" transform="translate(446.077756 263.466998)scale(0.11 -0.11)">
       <use xlink:href="#DejaVuSans-33"/>
       <use xlink:href="#DejaVuSans-30" x="63.623047"/>
       <use xlink:href="#DejaVuSans-30" x="127.246094"/>
       <use xlink:href="#DejaVuSans-30" x="190.869141"/>
       <use xlink:href="#DejaVuSans-30" x="254.492188"/>
      </g>
     </g>
    </g>
    <g id="ytick_13">
     <g id="text_27">
      <!-- 40000 -->
      <g style="fill: #262626" transform="translate(446.077756 213.085033)scale(0.11 -0.11)">
       <use xlink:href="#DejaVuSans-34"/>
       <use xlink:href="#DejaVuSans-30" x="63.623047"/>
       <use xlink:href="#DejaVuSans-30" x="127.246094"/>
       <use xlink:href="#DejaVuSans-30" x="190.869141"/>
       <use xlink:href="#DejaVuSans-30" x="254.492188"/>
      </g>
     </g>
    </g>
    <g id="ytick_14">
     <g id="text_28">
      <!-- 50000 -->
      <g style="fill: #262626" transform="translate(446.077756 162.703069)scale(0.11 -0.11)">
       <use xlink:href="#DejaVuSans-35"/>
       <use xlink:href="#DejaVuSans-30" x="63.623047"/>
       <use xlink:href="#DejaVuSans-30" x="127.246094"/>
       <use xlink:href="#DejaVuSans-30" x="190.869141"/>
       <use xlink:href="#DejaVuSans-30" x="254.492188"/>
      </g>
     </g>
    </g>
    <g id="ytick_15">
     <g id="text_29">
      <!-- 60000 -->
      <g style="fill: #262626" transform="translate(446.077756 112.321105)scale(0.11 -0.11)">
       <use xlink:href="#DejaVuSans-36"/>
       <use xlink:href="#DejaVuSans-30" x="63.623047"/>
       <use xlink:href="#DejaVuSans-30" x="127.246094"/>
       <use xlink:href="#DejaVuSans-30" x="190.869141"/>
       <use xlink:href="#DejaVuSans-30" x="254.492188"/>
      </g>
     </g>
    </g>
    <g id="ytick_16">
     <g id="text_30">
      <!-- 70000 -->
      <g style="fill: #262626" transform="translate(446.077756 61.939141)scale(0.11 -0.11)">
       <use xlink:href="#DejaVuSans-37"/>
       <use xlink:href="#DejaVuSans-30" x="63.623047"/>
       <use xlink:href="#DejaVuSans-30" x="127.246094"/>
       <use xlink:href="#DejaVuSans-30" x="190.869141"/>
       <use xlink:href="#DejaVuSans-30" x="254.492188"/>
      </g>
     </g>
    </g>
   </g>
   <g id="patch_18">
    <path d="M 496.328965 410.43375 
L 519.358799 410.43375 
L 519.358799 402.196299 
L 496.328965 402.196299 
z
" clip-path="url(#p47f90b16c4)" style="fill: #75bf71; stroke: #ffffff; stroke-linejoin: miter"/>
   </g>
   <g id="patch_19">
    <path d="M 553.90355 410.43375 
L 576.933384 410.43375 
L 576.933384 95.788307 
L 553.90355 95.788307 
z
" clip-path="url(#p47f90b16c4)" style="fill: #75bf71; stroke: #ffffff; stroke-linejoin: miter"/>
   </g>
   <g id="patch_20">
    <path d="M 611.478136 410.43375 
L 634.50797 410.43375 
L 634.50797 195.987957 
L 611.478136 195.987957 
z
" clip-path="url(#p47f90b16c4)" style="fill: #75bf71; stroke: #ffffff; stroke-linejoin: miter"/>
   </g>
   <g id="patch_21">
    <path d="M 669.052721 410.43375 
L 692.082555 410.43375 
L 692.082555 255.433637 
L 669.052721 255.433637 
z
" clip-path="url(#p47f90b16c4)" style="fill: #75bf71; stroke: #ffffff; stroke-linejoin: miter"/>
   </g>
   <g id="patch_22">
    <path d="M 726.627307 410.43375 
L 749.657141 410.43375 
L 749.657141 233.673666 
L 726.627307 233.673666 
z
" clip-path="url(#p47f90b16c4)" style="fill: #75bf71; stroke: #ffffff; stroke-linejoin: miter"/>
   </g>
   <g id="patch_23">
    <path d="M 784.201892 410.43375 
L 807.231726 410.43375 
L 807.231726 168.207342 
L 784.201892 168.207342 
z
" clip-path="url(#p47f90b16c4)" style="fill: #75bf71; stroke: #ffffff; stroke-linejoin: miter"/>
   </g>
   <g id="patch_24">
    <path d="M 519.358799 410.43375 
L 542.388633 410.43375 
L 542.388633 405.985023 
L 519.358799 405.985023 
z
" clip-path="url(#p47f90b16c4)" style="fill: #1e6525; stroke: #ffffff; stroke-linejoin: miter"/>
   </g>
   <g id="patch_25">
    <path d="M 576.933384 410.43375 
L 599.963219 410.43375 
L 599.963219 396.069852 
L 576.933384 396.069852 
z
" clip-path="url(#p47f90b16c4)" style="fill: #1e6525; stroke: #ffffff; stroke-linejoin: miter"/>
   </g>
   <g id="patch_26">
    <path d="M 634.50797 410.43375 
L 657.537804 410.43375 
L 657.537804 258.930145 
L 634.50797 258.930145 
z
" clip-path="url(#p47f90b16c4)" style="fill: #1e6525; stroke: #ffffff; stroke-linejoin: miter"/>
   </g>
   <g id="patch_27">
    <path d="M 692.082555 410.43375 
L 715.11239 410.43375 
L 715.11239 300.943665 
L 692.082555 300.943665 
z
" clip-path="url(#p47f90b16c4)" style="fill: #1e6525; stroke: #ffffff; stroke-linejoin: miter"/>
   </g>
   <g id="patch_28">
    <path d="M 749.657141 410.43375 
L 772.686975 410.43375 
L 772.686975 286.620073 
L 749.657141 286.620073 
z
" clip-path="url(#p47f90b16c4)" style="fill: #1e6525; stroke: #ffffff; stroke-linejoin: miter"/>
   </g>
   <g id="patch_29">
    <path d="M 807.231726 410.43375 
L 830.261561 410.43375 
L 830.261561 276.649482 
L 807.231726 276.649482 
z
" clip-path="url(#p47f90b16c4)" style="fill: #1e6525; stroke: #ffffff; stroke-linejoin: miter"/>
   </g>
   <g id="line2d_13">
    <path clip-path="url(#p47f90b16c4)" style="fill: none; stroke: #424242; stroke-width: 2.7; stroke-linecap: round"/>
   </g>
   <g id="line2d_14">
    <path clip-path="url(#p47f90b16c4)" style="fill: none; stroke: #424242; stroke-width: 2.7; stroke-linecap: round"/>
   </g>
   <g id="line2d_15">
    <path clip-path="url(#p47f90b16c4)" style="fill: none; stroke: #424242; stroke-width: 2.7; stroke-linecap: round"/>
   </g>
   <g id="line2d_16">
    <path clip-path="url(#p47f90b16c4)" style="fill: none; stroke: #424242; stroke-width: 2.7; stroke-linecap: round"/>
   </g>
   <g id="line2d_17">
    <path clip-path="url(#p47f90b16c4)" style="fill: none; stroke: #424242; stroke-width: 2.7; stroke-linecap: round"/>
   </g>
   <g id="line2d_18">
    <path clip-path="url(#p47f90b16c4)" style="fill: none; stroke: #424242; stroke-width: 2.7; stroke-linecap: round"/>
   </g>
   <g id="line2d_19">
    <path clip-path="url(#p47f90b16c4)" style="fill: none; stroke: #424242; stroke-width: 2.7; stroke-linecap: round"/>
   </g>
   <g id="line2d_20">
    <path clip-path="url(#p47f90b16c4)" style="fill: none; stroke: #424242; stroke-width: 2.7; stroke-linecap: round"/>
   </g>
   <g id="line2d_21">
    <path clip-path="url(#p47f90b16c4)" style="fill: none; stroke: #424242; stroke-width: 2.7; stroke-linecap: round"/>
   </g>
   <g id="line2d_22">
    <path clip-path="url(#p47f90b16c4)" style="fill: none; stroke: #424242; stroke-width: 2.7; stroke-linecap: round"/>
   </g>
   <g id="line2d_23">
    <path clip-path="url(#p47f90b16c4)" style="fill: none; stroke: #424242; stroke-width: 2.7; stroke-linecap: round"/>
   </g>
   <g id="line2d_24">
    <path clip-path="url(#p47f90b16c4)" style="fill: none; stroke: #424242; stroke-width: 2.7; stroke-linecap: round"/>
   </g>
   <g id="patch_30">
    <path d="M 490.571506 410.43375 
L 490.571506 57.76 
" style="fill: none; stroke: #262626; stroke-width: 1.25; stroke-linejoin: miter; stroke-linecap: square"/>
   </g>
   <g id="patch_31">
    <path d="M 490.571506 410.43375 
L 836.019019 410.43375 
" style="fill: none; stroke: #262626; stroke-width: 1.25; stroke-linejoin: miter; stroke-linecap: square"/>
   </g>
   <g id="text_31">
    <!-- Building Blocks = Zinc -->
    <g style="fill: #262626" transform="translate(595.974325 51.76)scale(0.12 -0.12)">
     <use xlink:href="#DejaVuSans-42"/>
     <use xlink:href="#DejaVuSans-75" x="68.603516"/>
     <use xlink:href="#DejaVuSans-69" x="131.982422"/>
     <use xlink:href="#DejaVuSans-6c" x="159.765625"/>
     <use xlink:href="#DejaVuSans-64" x="187.548828"/>
     <use xlink:href="#DejaVuSans-69" x="251.025391"/>
     <use xlink:href="#DejaVuSans-6e" x="278.808594"/>
     <use xlink:href="#DejaVuSans-67" x="342.1875"/>
     <use xlink:href="#DejaVuSans-20" x="405.664062"/>
     <use xlink:href="#DejaVuSans-42" x="437.451172"/>
     <use xlink:href="#DejaVuSans-6c" x="506.054688"/>
     <use xlink:href="#DejaVuSans-6f" x="533.837891"/>
     <use xlink:href="#DejaVuSans-63" x="595.019531"/>
     <use xlink:href="#DejaVuSans-6b" x="650"/>
     <use xlink:href="#DejaVuSans-73" x="707.910156"/>
     <use xlink:href="#DejaVuSans-20" x="760.009766"/>
     <use xlink:href="#DejaVuSans-3d" x="791.796875"/>
     <use xlink:href="#DejaVuSans-20" x="875.585938"/>
     <use xlink:href="#DejaVuSans-5a" x="907.373047"/>
     <use xlink:href="#DejaVuSans-69" x="975.878906"/>
     <use xlink:href="#DejaVuSans-6e" x="1003.662109"/>
     <use xlink:href="#DejaVuSans-63" x="1067.041016"/>
    </g>
   </g>
  </g>
  <g id="text_32">
   <!-- Synthesizability Score -->
   <g style="fill: #262626" transform="translate(411.238144 512.304375)scale(0.12 -0.12)">
    <defs>
     <path id="DejaVuSans-74" d="M 1172 4494 
L 1172 3500 
L 2356 3500 
L 2356 3053 
L 1172 3053 
L 1172 1153 
Q 1172 725 1289 603 
Q 1406 481 1766 481 
L 2356 481 
L 2356 0 
L 1766 0 
Q 1100 0 847 248 
Q 594 497 594 1153 
L 594 3053 
L 172 3053 
L 172 3500 
L 594 3500 
L 594 4494 
L 1172 4494 
z
" transform="scale(0.015625)"/>
     <path id="DejaVuSans-7a" d="M 353 3500 
L 3084 3500 
L 3084 2975 
L 922 459 
L 3084 459 
L 3084 0 
L 275 0 
L 275 525 
L 2438 3041 
L 353 3041 
L 353 3500 
z
" transform="scale(0.015625)"/>
     <path id="DejaVuSans-62" d="M 3116 1747 
Q 3116 2381 2855 2742 
Q 2594 3103 2138 3103 
Q 1681 3103 1420 2742 
Q 1159 2381 1159 1747 
Q 1159 1113 1420 752 
Q 1681 391 2138 391 
Q 2594 391 2855 752 
Q 3116 1113 3116 1747 
z
M 1159 2969 
Q 1341 3281 1617 3432 
Q 1894 3584 2278 3584 
Q 2916 3584 3314 3078 
Q 3713 2572 3713 1747 
Q 3713 922 3314 415 
Q 2916 -91 2278 -91 
Q 1894 -91 1617 61 
Q 1341 213 1159 525 
L 1159 0 
L 581 0 
L 581 4863 
L 1159 4863 
L 1159 2969 
z
" transform="scale(0.015625)"/>
    </defs>
    <use xlink:href="#DejaVuSans-53"/>
    <use xlink:href="#DejaVuSans-79" x="63.476562"/>
    <use xlink:href="#DejaVuSans-6e" x="122.65625"/>
    <use xlink:href="#DejaVuSans-74" x="186.035156"/>
    <use xlink:href="#DejaVuSans-68" x="225.244141"/>
    <use xlink:href="#DejaVuSans-65" x="288.623047"/>
    <use xlink:href="#DejaVuSans-73" x="350.146484"/>
    <use xlink:href="#DejaVuSans-69" x="402.246094"/>
    <use xlink:href="#DejaVuSans-7a" x="430.029297"/>
    <use xlink:href="#DejaVuSans-61" x="482.519531"/>
    <use xlink:href="#DejaVuSans-62" x="543.798828"/>
    <use xlink:href="#DejaVuSans-69" x="607.275391"/>
    <use xlink:href="#DejaVuSans-6c" x="635.058594"/>
    <use xlink:href="#DejaVuSans-69" x="662.841797"/>
    <use xlink:href="#DejaVuSans-74" x="690.625"/>
    <use xlink:href="#DejaVuSans-79" x="729.833984"/>
    <use xlink:href="#DejaVuSans-20" x="789.013672"/>
    <use xlink:href="#DejaVuSans-53" x="820.800781"/>
    <use xlink:href="#DejaVuSans-63" x="884.277344"/>
    <use xlink:href="#DejaVuSans-6f" x="939.257812"/>
    <use xlink:href="#DejaVuSans-72" x="1000.439453"/>
    <use xlink:href="#DejaVuSans-65" x="1039.302734"/>
   </g>
  </g>
  <g id="text_33">
   <!-- Number of Solved and Active Molecules per Synthesizability Score -->
   <g style="fill: #262626" transform="translate(238.375894 18.14175)scale(0.144 -0.144)">
    <defs>
     <path id="DejaVuSans-4e" d="M 628 4666 
L 1478 4666 
L 3547 763 
L 3547 4666 
L 4159 4666 
L 4159 0 
L 3309 0 
L 1241 3903 
L 1241 0 
L 628 0 
L 628 4666 
z
" transform="scale(0.015625)"/>
     <path id="DejaVuSans-6d" d="M 3328 2828 
Q 3544 3216 3844 3400 
Q 4144 3584 4550 3584 
Q 5097 3584 5394 3201 
Q 5691 2819 5691 2113 
L 5691 0 
L 5113 0 
L 5113 2094 
Q 5113 2597 4934 2840 
Q 4756 3084 4391 3084 
Q 3944 3084 3684 2787 
Q 3425 2491 3425 1978 
L 3425 0 
L 2847 0 
L 2847 2094 
Q 2847 2600 2669 2842 
Q 2491 3084 2119 3084 
Q 1678 3084 1418 2786 
Q 1159 2488 1159 1978 
L 1159 0 
L 581 0 
L 581 3500 
L 1159 3500 
L 1159 2956 
Q 1356 3278 1631 3431 
Q 1906 3584 2284 3584 
Q 2666 3584 2933 3390 
Q 3200 3197 3328 2828 
z
" transform="scale(0.015625)"/>
     <path id="DejaVuSans-66" d="M 2375 4863 
L 2375 4384 
L 1825 4384 
Q 1516 4384 1395 4259 
Q 1275 4134 1275 3809 
L 1275 3500 
L 2222 3500 
L 2222 3053 
L 1275 3053 
L 1275 0 
L 697 0 
L 697 3053 
L 147 3053 
L 147 3500 
L 697 3500 
L 697 3744 
Q 697 4328 969 4595 
Q 1241 4863 1831 4863 
L 2375 4863 
z
" transform="scale(0.015625)"/>
     <path id="DejaVuSans-76" d="M 191 3500 
L 800 3500 
L 1894 563 
L 2988 3500 
L 3597 3500 
L 2284 0 
L 1503 0 
L 191 3500 
z
" transform="scale(0.015625)"/>
    </defs>
    <use xlink:href="#DejaVuSans-4e"/>
    <use xlink:href="#DejaVuSans-75" x="74.804688"/>
    <use xlink:href="#DejaVuSans-6d" x="138.183594"/>
    <use xlink:href="#DejaVuSans-62" x="235.595703"/>
    <use xlink:href="#DejaVuSans-65" x="299.072266"/>
    <use xlink:href="#DejaVuSans-72" x="360.595703"/>
    <use xlink:href="#DejaVuSans-20" x="401.708984"/>
    <use xlink:href="#DejaVuSans-6f" x="433.496094"/>
    <use xlink:href="#DejaVuSans-66" x="494.677734"/>
    <use xlink:href="#DejaVuSans-20" x="529.882812"/>
    <use xlink:href="#DejaVuSans-53" x="561.669922"/>
    <use xlink:href="#DejaVuSans-6f" x="625.146484"/>
    <use xlink:href="#DejaVuSans-6c" x="686.328125"/>
    <use xlink:href="#DejaVuSans-76" x="714.111328"/>
    <use xlink:href="#DejaVuSans-65" x="773.291016"/>
    <use xlink:href="#DejaVuSans-64" x="834.814453"/>
    <use xlink:href="#DejaVuSans-20" x="898.291016"/>
    <use xlink:href="#DejaVuSans-61" x="930.078125"/>
    <use xlink:href="#DejaVuSans-6e" x="991.357422"/>
    <use xlink:href="#DejaVuSans-64" x="1054.736328"/>
    <use xlink:href="#DejaVuSans-20" x="1118.212891"/>
    <use xlink:href="#DejaVuSans-41" x="1150"/>
    <use xlink:href="#DejaVuSans-63" x="1216.658203"/>
    <use xlink:href="#DejaVuSans-74" x="1271.638672"/>
    <use xlink:href="#DejaVuSans-69" x="1310.847656"/>
    <use xlink:href="#DejaVuSans-76" x="1338.630859"/>
    <use xlink:href="#DejaVuSans-65" x="1397.810547"/>
    <use xlink:href="#DejaVuSans-20" x="1459.333984"/>
    <use xlink:href="#DejaVuSans-4d" x="1491.121094"/>
    <use xlink:href="#DejaVuSans-6f" x="1577.400391"/>
    <use xlink:href="#DejaVuSans-6c" x="1638.582031"/>
    <use xlink:href="#DejaVuSans-65" x="1666.365234"/>
    <use xlink:href="#DejaVuSans-63" x="1727.888672"/>
    <use xlink:href="#DejaVuSans-75" x="1782.869141"/>
    <use xlink:href="#DejaVuSans-6c" x="1846.248047"/>
    <use xlink:href="#DejaVuSans-65" x="1874.03125"/>
    <use xlink:href="#DejaVuSans-73" x="1935.554688"/>
    <use xlink:href="#DejaVuSans-20" x="1987.654297"/>
    <use xlink:href="#DejaVuSans-70" x="2019.441406"/>
    <use xlink:href="#DejaVuSans-65" x="2082.917969"/>
    <use xlink:href="#DejaVuSans-72" x="2144.441406"/>
    <use xlink:href="#DejaVuSans-20" x="2185.554688"/>
    <use xlink:href="#DejaVuSans-53" x="2217.341797"/>
    <use xlink:href="#DejaVuSans-79" x="2280.818359"/>
    <use xlink:href="#DejaVuSans-6e" x="2339.998047"/>
    <use xlink:href="#DejaVuSans-74" x="2403.376953"/>
    <use xlink:href="#DejaVuSans-68" x="2442.585938"/>
    <use xlink:href="#DejaVuSans-65" x="2505.964844"/>
    <use xlink:href="#DejaVuSans-73" x="2567.488281"/>
    <use xlink:href="#DejaVuSans-69" x="2619.587891"/>
    <use xlink:href="#DejaVuSans-7a" x="2647.371094"/>
    <use xlink:href="#DejaVuSans-61" x="2699.861328"/>
    <use xlink:href="#DejaVuSans-62" x="2761.140625"/>
    <use xlink:href="#DejaVuSans-69" x="2824.617188"/>
    <use xlink:href="#DejaVuSans-6c" x="2852.400391"/>
    <use xlink:href="#DejaVuSans-69" x="2880.183594"/>
    <use xlink:href="#DejaVuSans-74" x="2907.966797"/>
    <use xlink:href="#DejaVuSans-79" x="2947.175781"/>
    <use xlink:href="#DejaVuSans-20" x="3006.355469"/>
    <use xlink:href="#DejaVuSans-53" x="3038.142578"/>
    <use xlink:href="#DejaVuSans-63" x="3101.619141"/>
    <use xlink:href="#DejaVuSans-6f" x="3156.599609"/>
    <use xlink:href="#DejaVuSans-72" x="3217.78125"/>
    <use xlink:href="#DejaVuSans-65" x="3256.644531"/>
   </g>
  </g>
  <g id="legend_1">
   <g id="text_34">
    <!-- Metric -->
    <g style="fill: #262626" transform="translate(887.082753 248.165312)scale(0.12 -0.12)">
     <use xlink:href="#DejaVuSans-4d"/>
     <use xlink:href="#DejaVuSans-65" x="86.279297"/>
     <use xlink:href="#DejaVuSans-74" x="147.802734"/>
     <use xlink:href="#DejaVuSans-72" x="187.011719"/>
     <use xlink:href="#DejaVuSans-69" x="228.125"/>
     <use xlink:href="#DejaVuSans-63" x="255.908203"/>
    </g>
   </g>
   <g id="patch_32">
    <path d="M 847.021113 264.519219 
L 869.021113 264.519219 
L 869.021113 256.819219 
L 847.021113 256.819219 
z
" style="fill: #75bf71; stroke: #ffffff; stroke-linejoin: miter"/>
   </g>
   <g id="text_35">
    <!-- Solved -->
    <g style="fill: #262626" transform="translate(877.821113 264.519219)scale(0.11 -0.11)">
     <use xlink:href="#DejaVuSans-53"/>
     <use xlink:href="#DejaVuSans-6f" x="63.476562"/>
     <use xlink:href="#DejaVuSans-6c" x="124.658203"/>
     <use xlink:href="#DejaVuSans-76" x="152.441406"/>
     <use xlink:href="#DejaVuSans-65" x="211.621094"/>
     <use xlink:href="#DejaVuSans-64" x="273.144531"/>
    </g>
   </g>
   <g id="patch_33">
    <path d="M 847.021113 280.665156 
L 869.021113 280.665156 
L 869.021113 272.965156 
L 847.021113 272.965156 
z
" style="fill: #1e6525; stroke: #ffffff; stroke-linejoin: miter"/>
   </g>
   <g id="text_36">
    <!-- Solved &amp; Active -->
    <g style="fill: #262626" transform="translate(877.821113 280.665156)scale(0.11 -0.11)">
     <defs>
      <path id="DejaVuSans-26" d="M 1556 2509 
Q 1272 2256 1139 2004 
Q 1006 1753 1006 1478 
Q 1006 1022 1337 719 
Q 1669 416 2169 416 
Q 2466 416 2725 514 
Q 2984 613 3213 813 
L 1556 2509 
z
M 1997 2859 
L 3584 1234 
Q 3769 1513 3872 1830 
Q 3975 2147 3994 2503 
L 4575 2503 
Q 4538 2091 4375 1687 
Q 4213 1284 3922 891 
L 4794 0 
L 4006 0 
L 3559 459 
Q 3234 181 2878 45 
Q 2522 -91 2113 -91 
Q 1359 -91 881 339 
Q 403 769 403 1441 
Q 403 1841 612 2192 
Q 822 2544 1241 2853 
Q 1091 3050 1012 3245 
Q 934 3441 934 3628 
Q 934 4134 1281 4442 
Q 1628 4750 2203 4750 
Q 2463 4750 2720 4694 
Q 2978 4638 3244 4525 
L 3244 3956 
Q 2972 4103 2725 4179 
Q 2478 4256 2266 4256 
Q 1938 4256 1733 4082 
Q 1528 3909 1528 3634 
Q 1528 3475 1620 3314 
Q 1713 3153 1997 2859 
z
" transform="scale(0.015625)"/>
     </defs>
     <use xlink:href="#DejaVuSans-53"/>
     <use xlink:href="#DejaVuSans-6f" x="63.476562"/>
     <use xlink:href="#DejaVuSans-6c" x="124.658203"/>
     <use xlink:href="#DejaVuSans-76" x="152.441406"/>
     <use xlink:href="#DejaVuSans-65" x="211.621094"/>
     <use xlink:href="#DejaVuSans-64" x="273.144531"/>
     <use xlink:href="#DejaVuSans-20" x="336.621094"/>
     <use xlink:href="#DejaVuSans-26" x="368.408203"/>
     <use xlink:href="#DejaVuSans-20" x="446.386719"/>
     <use xlink:href="#DejaVuSans-41" x="478.173828"/>
     <use xlink:href="#DejaVuSans-63" x="544.832031"/>
     <use xlink:href="#DejaVuSans-74" x="599.8125"/>
     <use xlink:href="#DejaVuSans-69" x="639.021484"/>
     <use xlink:href="#DejaVuSans-76" x="666.804688"/>
     <use xlink:href="#DejaVuSans-65" x="725.984375"/>
    </g>
   </g>
  </g>
 </g>
 <defs>
  <clipPath id="pa110971174">
   <rect x="67.3075" y="57.76" width="345.447513" height="352.67375"/>
  </clipPath>
  <clipPath id="p47f90b16c4">
   <rect x="490.571506" y="57.76" width="345.447513" height="352.67375"/>
  </clipPath>
 </defs>
</svg>
